<?xml version="1.0" encoding="utf-8"?>
<!-- Generator: Adobe Illustrator 27.0.0, SVG Export Plug-In . SVG Version: 6.00 Build 0)  -->
<svg version="1.1" id="Layer_1" xmlns="http://www.w3.org/2000/svg" xmlns:xlink="http://www.w3.org/1999/xlink" x="0px" y="0px"
	 viewBox="0 0 576 576" style="enable-background:new 0 0 576 576;" xml:space="preserve">
<style type="text/css">
	.st0{fill:#148ECE;}
	.st1{fill:url(#SVGID_1_);}
</style>
<g>
	<g>
		<path class="st0" d="M478.6,574.9H97.4c-53.2,0-96.4-43.1-96.4-96.4V97.4c0-53.2,43.1-96.4,96.4-96.4h381.1
			c53.2,0,96.4,43.1,96.4,96.4v381.1C574.9,531.8,531.8,574.9,478.6,574.9z"/>
	</g>
	<radialGradient id="SVGID_1_" cx="240.1786" cy="250.1131" r="203.5405" gradientUnits="userSpaceOnUse">
		<stop  offset="0.1969" style="stop-color:#F6BE3C"/>
		<stop  offset="0.2165" style="stop-color:#F7C338"/>
		<stop  offset="0.3052" style="stop-color:#FBD42A"/>
		<stop  offset="0.4152" style="stop-color:#FDDF1F"/>
		<stop  offset="0.5701" style="stop-color:#FFE61A"/>
		<stop  offset="1" style="stop-color:#FFE818"/>
	</radialGradient>
	<path class="st1" d="M475,226c-1.3-73.7-58.7-116.4-58.7-116.4c-11.8-12.1-43.3-36.7-94.5-39.3c-51.2-2.6-92.1,5.4-129.4,27.5
		c-37.4,22.1-74.1,74.8-85,107.6s-4.8,93.4-4.8,93.4c9.5,71.3,69.2,100.9,69.2,100.9s42.2,28.2,101.2,1s60.4-97.4,60.4-97.4V194.9
		c-3.6-57.1-54.9-12.8-54.9-12.8l-45.6,37.6c-1.7,0.8-3.3,1.7-4.8,2.9L207.8,239c-10.1,8.1-11.7,23.1-3.5,33.1l1.4,1.7
		c0,0,0.1,0.1,0.1,0.1c0.9,1.1,1.9,2.1,3,3c0.3,0.2,0.6,0.4,0.8,0.7c0.1,0.1,0.3,0.2,0.4,0.3c4.4,3.3,9.8,4.9,15.2,4.6
		c5.6,0.4,10-0.2,10-0.2l43.1-32.7c13.2,63.1-25.7,99.2-25.7,99.2C199.1,384,169.2,321,169.2,321c-37.6-75.5,1.8-130,31.4-161.4
		c29.6-31.4,118.6-56.8,166.4-22.3c47.8,34.5,53.7,83.6,53.7,83.6l2.1,57.6c-7.3,95-81.2,149.5-113.2,162.2
		c-13,5.2-27.8,8.4-40.7,10.3c-1.1-0.1-2.1-0.2-3.3-0.1l-29.5,1.9h-4.6c-1.9,0-3.7,0.2-5.5,0.6l-0.8,0.1
		c-13.1,0.8-23.1,12.2-22.3,25.3l0.4,6.1c0.8,13.1,12.2,23.1,25.3,22.3l40.4-2.6c1.1-0.1,2.2-0.3,3.2-0.5l5.6-0.4
		c79.4-11.4,144.6-67.5,169.2-123.3C471.9,324.6,476.3,299.7,475,226z"/>
</g>
</svg>
