<svg width="201" height="200" viewBox="0 0 201 200" fill="none" xmlns="http://www.w3.org/2000/svg">
<path d="M153.18 84.58C152.76 84.58 152.76 85.36 153.18 85.36C154.18 85.36 168.11 85.13 169.28 84.9C169.386 84.884 169.484 84.8302 169.554 84.7486C169.624 84.6669 169.663 84.5627 169.663 84.455C169.663 84.3472 169.624 84.243 169.554 84.1614C169.484 84.0797 169.386 84.026 169.28 84.01C165.61 83.53 157.22 84.5 153.18 84.58ZM158.76 105C158.3 105 158.38 105.77 158.82 105.79C162.08 105.9 167.16 105.73 170.49 105.58C171.1 105.58 171.17 104.58 170.49 104.58C166.76 104.6 162.5 104.65 158.76 105ZM159.19 70.51C159.093 70.5142 159.001 70.5534 158.931 70.6204C158.861 70.6875 158.817 70.7777 158.809 70.8743C158.8 70.9709 158.827 71.0674 158.884 71.1457C158.941 71.224 159.025 71.2788 159.12 71.3C160.91 71.52 166.72 71.75 168.47 71.01C168.559 70.9656 168.632 70.8932 168.677 70.8039C168.722 70.7145 168.736 70.6129 168.718 70.5146C168.7 70.4163 168.65 70.3266 168.577 70.259C168.503 70.1914 168.409 70.1496 168.31 70.14C165.99 70 162.27 70.74 159.19 70.51ZM147.77 89.83C156.21 89.71 165.77 89.12 174.29 88.34C174.82 88.34 174.77 87.34 174.22 87.34C165.84 87.55 156.05 88.1 147.72 88.96C147.604 88.9666 147.496 89.0188 147.42 89.1051C147.343 89.1913 147.303 89.3046 147.31 89.42C147.316 89.5353 147.369 89.6434 147.455 89.7202C147.541 89.7971 147.654 89.8366 147.77 89.83ZM159.87 45.29C162.22 45.11 164.57 44.97 166.87 44.69C167.53 44.62 167.36 43.69 166.71 43.69C164.37 43.87 162.03 44.17 159.71 44.44C159.17 44.5 159.32 45.33 159.87 45.29ZM146.15 66.15C145.65 66.15 145.63 67 146.15 67.04C151.803 67.3033 157.468 66.9073 163.03 65.86C163.66 65.75 163.56 64.75 162.92 64.86C157.381 65.8045 151.768 66.2363 146.15 66.15ZM164.76 50.08C165.63 50.29 165.76 48.87 164.96 49.01C161.057 49.6428 157.101 49.8873 153.15 49.74C152.62 49.74 152.5 50.51 153.04 50.57C156.95 50.9625 160.896 50.7975 164.76 50.08ZM143.1 89.36C142.32 89.06 138.72 89.56 137.71 89.67C137.22 89.67 137.2 90.46 137.71 90.45L141.8 90.32C143.69 90.25 143.68 89.59 143.1 89.36ZM147.23 132.63C146.39 132.43 140.42 132.88 139.44 132.94C138.92 132.94 139.02 133.74 139.54 133.73C140.6 133.73 146.41 133.73 147.33 133.44C147.74 133.3 147.6 132.71 147.23 132.63ZM139.43 128.4C142.24 128.53 149.2 128.65 152.01 127.98C152.075 127.979 152.14 127.965 152.2 127.938C152.26 127.911 152.313 127.872 152.357 127.823C152.401 127.774 152.434 127.716 152.454 127.654C152.474 127.591 152.48 127.525 152.473 127.46C152.466 127.394 152.446 127.331 152.413 127.275C152.38 127.218 152.336 127.168 152.283 127.13C152.229 127.091 152.169 127.064 152.105 127.05C152.04 127.037 151.974 127.037 151.91 127.05C147.8 127.05 143.99 127.74 139.55 127.56C139.02 127.54 138.88 128.37 139.43 128.4ZM149.13 110.62C149.73 110.51 149.68 109.62 149.05 109.62C144.61 110.07 143.68 110.18 139.13 110.36C138.69 110.36 138.64 111.12 139.13 111.15C142.472 111.372 145.829 111.194 149.13 110.62ZM155.29 104.33C149.85 104.53 144.2 105.45 138.52 105.65C138.418 105.666 138.326 105.717 138.259 105.795C138.192 105.873 138.155 105.972 138.155 106.075C138.155 106.178 138.192 106.277 138.259 106.355C138.326 106.433 138.418 106.484 138.52 106.5C143.23 106.5 150.81 106.28 155.4 105.26C155.496 105.218 155.575 105.146 155.627 105.055C155.679 104.964 155.7 104.858 155.688 104.754C155.676 104.65 155.63 104.553 155.559 104.477C155.487 104.4 155.393 104.349 155.29 104.33ZM173.82 130.18C173.74 130.18 168.25 130.63 167.31 130.6C167.221 130.616 167.139 130.66 167.077 130.726C167.016 130.792 166.977 130.877 166.967 130.966C166.956 131.056 166.976 131.147 167.021 131.225C167.067 131.303 167.137 131.365 167.22 131.4C168.34 131.61 173.06 131.69 174.03 130.87C174.079 130.816 174.113 130.751 174.129 130.68C174.145 130.609 174.142 130.535 174.121 130.465C174.099 130.396 174.061 130.333 174.008 130.283C173.955 130.233 173.89 130.197 173.82 130.18ZM175.59 108.37C168.66 108.82 160.92 109.08 154.02 109.67C153.48 109.67 153.58 110.48 154.1 110.51C157.83 110.62 171.1 109.94 175.68 109.36C175.745 109.355 175.809 109.337 175.867 109.307C175.925 109.277 175.977 109.235 176.019 109.185C176.061 109.135 176.092 109.076 176.111 109.014C176.13 108.951 176.137 108.885 176.13 108.82C176.117 108.689 176.053 108.568 175.952 108.484C175.851 108.4 175.721 108.359 175.59 108.37ZM149.56 85.63C149.692 85.63 149.82 85.5773 149.913 85.4835C150.007 85.3898 150.06 85.2626 150.06 85.13C150.06 84.9974 150.007 84.8702 149.913 84.7764C149.82 84.6827 149.692 84.63 149.56 84.63C145.25 84.74 140.9 84.77 136.56 85.1C136.467 85.1207 136.383 85.1726 136.323 85.2472C136.263 85.3217 136.231 85.4144 136.231 85.51C136.231 85.6055 136.263 85.6982 136.323 85.7728C136.383 85.8473 136.467 85.8992 136.56 85.92C140.92 86 145.25 85.77 149.56 85.63ZM166.61 126C165.09 126 159.61 126.39 158.31 126.62C157.89 126.69 157.83 127.38 158.31 127.4C159.72 127.47 165.17 127.12 166.75 126.98C167.36 127 167.23 126 166.61 126ZM163.69 131.61L151.12 132.41C150.55 132.41 150.69 133.28 151.25 133.25C153.69 133.14 161.54 132.83 163.74 132.53C164.23 132.47 164.24 131.61 163.69 131.61ZM154.69 44.69C151 44.27 139.42 44.97 135.49 45.37C134.95 45.42 134.91 46.26 135.49 46.21C141.95 45.79 148.24 45.65 154.7 45.67C154.813 45.6459 154.914 45.5836 154.986 45.4935C155.058 45.4035 155.097 45.2912 155.095 45.1759C155.094 45.0605 155.053 44.9491 154.979 44.8606C154.905 44.772 154.803 44.7118 154.69 44.69ZM155.76 71.68C156.39 71.59 156.16 70.68 155.53 70.68C149.093 71.4133 142.618 71.7473 136.14 71.68C136.046 71.695 135.96 71.743 135.899 71.8154C135.837 71.8878 135.803 71.9798 135.803 72.075C135.803 72.1701 135.837 72.2622 135.899 72.3346C135.96 72.407 136.046 72.455 136.14 72.47C142.69 72.7855 149.256 72.5211 155.76 71.68ZM148.97 50.74C149.036 50.7337 149.099 50.7145 149.158 50.6834C149.216 50.6523 149.268 50.61 149.31 50.5588C149.351 50.5077 149.383 50.4488 149.402 50.3855C149.421 50.3221 149.427 50.2557 149.42 50.19C149.414 50.1242 149.394 50.0603 149.363 50.002C149.332 49.9437 149.29 49.8921 149.239 49.8503C149.188 49.8084 149.129 49.7771 149.065 49.7582C149.002 49.7393 148.936 49.7331 148.87 49.74C144.46 50.29 140.28 50.31 135.93 50.69C135.47 50.74 135.42 51.49 135.93 51.51C140.29 51.5805 144.649 51.3231 148.97 50.74ZM136.58 66.57C136.08 66.57 136.07 67.36 136.64 67.38C138.435 67.549 140.239 67.5958 142.04 67.52C142.121 67.4837 142.19 67.4248 142.238 67.3503C142.286 67.2757 142.312 67.1888 142.312 67.1C142.312 67.0111 142.286 66.9242 142.238 66.8497C142.19 66.7752 142.121 66.7162 142.04 66.68C141.86 66.58 137.5 66.57 136.58 66.57ZM124.1 72.33C124.68 72.33 126.83 68.77 128.04 67.55C128.48 67.11 127.76 66.37 127.31 66.79C126.034 67.9401 124.93 69.2669 124.03 70.73L121.5 68.4C120.98 67.92 120.31 68.74 120.79 69.23C121.27 69.72 123.36 72.33 124.1 72.33ZM117.26 56C121.36 56.24 125.62 56.16 130.12 56.19C130.44 56.19 130.63 55.3 130.12 44.68C130.12 43.91 130.05 43.34 130.04 43.13C130.042 43.099 130.038 43.0679 130.028 43.0386C130.018 43.0093 130.001 42.9825 129.98 42.96C129.69 42.65 127.8 42.67 123.55 42.78C116.4 42.95 115.61 42.9 115.61 43.31C115.58 43.39 116.03 55.88 117.26 56ZM117.54 55.26C117.04 52.59 116.68 46.95 116.37 43.79C119.28 43.96 125.91 43.63 129.25 43.55C129.25 43.55 129.43 52.44 129.51 55.31C125.59 55.22 121.5 55.07 117.5 55.21L117.54 55.26Z" fill="black"/>
<path d="M131.5 74.94C132.34 74.61 131.36 65.29 131.22 62.84C131.213 62.7896 131.188 62.7434 131.15 62.71C130.55 62.19 117.86 62.88 117.22 62.93C116.58 62.98 117.22 66.46 117.33 68.83C117.56 74.73 117.83 75.24 118.13 75.28C120.31 75.59 129.5 75.72 131.5 74.94ZM117.83 63.75C122.16 63.47 126.55 63.45 130.45 63.43C130.55 65.77 130.71 72.36 130.91 74.14C126.834 74.5615 122.733 74.6785 118.64 74.49C118.81 73 117.98 65.44 117.83 63.75ZM125.97 89L128.29 86.9C128.358 86.7857 128.387 86.6529 128.375 86.5207C128.363 86.3884 128.309 86.2635 128.221 86.1636C128.134 86.0638 128.017 85.9942 127.887 85.9649C127.758 85.9355 127.622 85.9478 127.5 86C126.55 86.5851 125.688 87.3023 124.94 88.13L122.86 86.21C122.747 86.1053 122.598 86.0496 122.444 86.0552C122.29 86.0608 122.145 86.1273 122.04 86.24C121.935 86.3527 121.88 86.5024 121.885 86.6562C121.891 86.81 121.957 86.9553 122.07 87.06L124.07 89.06C122.27 90.96 121.48 92.15 121.66 92.69C121.84 93.23 122.49 92.99 122.66 92.75C123.36 91.89 124.15 90.91 125 90C125.843 90.92 126.778 91.7511 127.79 92.48C127.894 92.5071 128.004 92.5055 128.108 92.4754C128.212 92.4453 128.305 92.3878 128.379 92.309C128.453 92.2302 128.504 92.133 128.527 92.0275C128.55 91.9221 128.544 91.8124 128.51 91.71C127.757 90.7231 126.906 89.8151 125.97 89ZM126.5 46.13C124.903 47.527 123.598 49.2263 122.66 51.13C121.907 50.2283 121.039 49.4282 120.08 48.75C119.49 48.34 118.73 49.12 119.31 49.56C120.451 50.5682 121.517 51.6577 122.5 52.82C122.76 53.09 123.01 52.95 123.23 52.66C124.319 50.5383 125.662 48.5571 127.23 46.76C127.71 46.23 127.02 45.64 126.5 46.13ZM126.18 111.42C126.7 111.06 128.68 107.24 129.83 105.94C130.28 105.44 129.5 104.75 128.99 105.28C127.621 106.69 126.447 108.278 125.5 110L123.17 108C122.66 107.57 121.98 108.34 122.51 108.85C123.04 109.36 125.32 112.16 126.18 111.42ZM133.81 124.24C133.43 123.49 119.75 124.24 119.62 124.24C119.59 124.244 119.562 124.255 119.537 124.272C119.513 124.29 119.493 124.313 119.48 124.34C119.02 125.08 119.48 137.11 119.81 138.23C120.2 139.59 133.46 138.46 134.12 138.52C134.14 138.524 134.161 138.524 134.18 138.52C134.2 138.516 134.219 138.507 134.235 138.495C134.251 138.482 134.265 138.466 134.274 138.448C134.284 138.43 134.289 138.41 134.29 138.39C134.5 136.86 133.86 124.34 133.81 124.24ZM120.26 124.97C124.26 125.14 128.99 124.89 133.05 124.88C133.11 126.55 133.47 136.35 133.52 137.67C129.08 137.87 125.35 137.8 120.62 137.67C120.67 136 120.32 126.49 120.26 125V124.97Z" fill="black"/>
<path d="M125.09 131.45C125.8 131.45 129.43 131.7 129.72 131.54C129.797 131.496 129.862 131.436 129.911 131.363C129.96 131.29 129.992 131.207 130.004 131.12C130.015 131.032 130.006 130.944 129.978 130.86C129.95 130.777 129.903 130.702 129.84 130.64C129.31 130.08 125.96 130.2 125.4 130.31C124.64 130.45 124.5 130.74 124.52 130.96C124.547 131.093 124.617 131.214 124.721 131.303C124.824 131.392 124.954 131.443 125.09 131.45ZM126.44 102.1C123.16 102.16 119.71 102.28 119.14 102.32C118.92 102.32 118.69 102.51 118.66 104.59C118.66 107.08 119.09 114.97 120.09 115.04C122.09 115.19 132.43 115.23 133.76 115.13C133.97 115.13 134.14 115.13 133.76 109.93C133.55 107.25 133.08 102.38 133.08 102.38C133.04 102.18 133.02 102 126.44 102.1ZM132.33 102.98C132.57 106.71 132.7 110.53 133.1 114.28H120.38C119.99 110.67 119.73 106.95 119.45 103.13L132.33 102.98ZM121.5 96.4697C125.56 96.4697 132.35 95.9197 132.41 95.8897C133.05 95.5597 132.41 86.5297 132.2 82.6697C132.2 81.9797 128.67 81.9697 125.74 82.0797C124.46 82.0797 118.1 82.4197 118.12 83.3297C118.46 96.7197 118.38 96.0697 118.63 96.2097C119.566 96.4539 120.536 96.5417 121.5 96.4697ZM119.39 95.4697C119.16 91.5297 119.08 87.3497 118.92 83.4697C123.073 83.1009 127.242 82.9607 131.41 83.0497C131.41 84.4197 131.68 93.5297 131.85 95.0497C130.37 95.1497 120.94 95.2197 119.42 95.4797L119.39 95.4697Z" fill="black"/>
<path d="M194.5 111.27C191.88 39.9998 192.98 40.5998 192.5 40.1798C191.82 39.5398 186.57 39.9598 185.28 40.0298L184.74 29.0998C184.766 29.0339 184.775 28.9627 184.767 28.8924C184.76 28.822 184.735 28.7545 184.696 28.6956C184.657 28.6367 184.604 28.5882 184.542 28.5541C184.48 28.52 184.411 28.5014 184.34 28.4998C163.34 28.2398 141.73 29.6298 120.06 31.0998C114.22 31.5098 108.15 31.8698 102.21 32.4998C102.154 32.4909 102.097 32.4944 102.043 32.5101C101.989 32.5258 101.94 32.5533 101.898 32.5906C101.855 32.6279 101.822 32.6741 101.8 32.7259C101.778 32.7776 101.768 32.8336 101.77 32.8898C102.87 59.5898 106.07 102.75 111.6 150.54C111.66 151.09 116.22 150.61 120.32 150.34C120.374 151.516 120.585 152.68 120.95 153.8C121.55 154.56 195.73 149.96 195.64 146.8C195.32 134.93 194.89 122.91 194.5 111.27ZM188.88 142.45C162.58 146.45 138.93 147.57 112.52 149.85C107.29 104.54 105.14 73.4598 102.52 33.1998C110.64 32.7198 140.67 29.9598 184.05 29.3898C185.13 58.4598 189.15 139.25 188.85 142.45H188.88ZM63.3499 73.6998C62.6699 73.6998 62.6799 75.0198 62.9999 75.5198C63.0368 75.593 63.0944 75.6538 63.1654 75.6946C63.2365 75.7355 63.318 75.7547 63.3999 75.7498C64.0099 75.6798 63.9799 73.7698 63.3499 73.6998ZM59.7799 79.4798C60.2099 79.5898 61.3699 79.6598 61.6399 79.2598C62.0199 78.6998 60.9899 73.6198 60.8599 73.2598C60.8331 73.1863 60.7811 73.1248 60.7132 73.086C60.6453 73.0473 60.5658 73.034 60.489 73.0484C60.4121 73.0628 60.3429 73.104 60.2936 73.1647C60.2443 73.2254 60.2182 73.3016 60.2199 73.3798C60.2199 74.2898 60.6299 77.3798 60.7899 78.6698L59.7899 78.7298C59.7168 78.7609 59.6543 78.8127 59.61 78.8787C59.5658 78.9447 59.5416 79.0221 59.5406 79.1015C59.5395 79.181 59.5616 79.2591 59.604 79.3262C59.6465 79.3934 59.7076 79.4467 59.7799 79.4798ZM62.4999 71.8298C62.7959 71.7487 63.1072 71.741 63.4068 71.8072C63.7065 71.8734 63.9856 72.0116 64.2199 72.2098C64.6099 72.5598 65.3599 71.8898 64.2899 71.2098C63.5199 70.6898 61.7199 70.5098 61.9099 71.4298C61.9409 71.5579 62.0185 71.6698 62.1276 71.7438C62.2367 71.8178 62.3694 71.8484 62.4999 71.8298Z" fill="#2596BE"/>
<path d="M91.8199 108.18C85.3899 101.84 73.8199 94.3897 63.4199 92.9097C63.5922 92.3152 63.5922 91.6841 63.4199 91.0897C64.2116 90.428 64.9474 89.7022 65.6199 88.9197C67.0499 87.2397 67.0199 85.5997 64.9799 86.4297C66.9799 82.0097 66.9799 72.4297 66.2599 67.0497C69.6099 69.1397 75.2599 67.1297 74.5699 63.0497C79.1199 64.4197 82.0799 55.3797 76.2999 53.7497C77.1099 46.9097 68.3499 45.9197 65.6699 49.9097C64.1599 45.4997 57.2199 47.8197 57.7199 51.2797C54.5899 47.9197 47.8299 49.0897 46.8899 53.2797C44.0599 50.7097 39.3899 51.7997 39.7999 55.5897C35.3199 53.5097 32.9499 58.8697 36.4299 60.5897C34.1999 61.7897 34.2699 66.7297 37.6899 66.7297C37.6899 70.0297 39.6899 77.5897 44.6399 81.7297C45.1699 86.3597 44.2199 88.7297 42.5699 93.0197C26.2499 95.4997 13.8599 108.23 8.29994 124.02C1.95994 142.02 4.96994 159.02 23.7599 162.6C23.7208 165.002 23.4394 167.394 22.9199 169.74C22.9106 169.828 22.9334 169.917 22.9843 169.99C23.0352 170.063 23.1107 170.115 23.197 170.137C23.2832 170.159 23.3745 170.149 23.454 170.109C23.5335 170.069 23.596 170.002 23.6299 169.92C24.2993 167.59 24.6624 165.183 24.7099 162.76C29.2367 163.432 33.8612 162.727 37.9813 160.734C42.1014 158.742 45.5262 155.556 47.8099 151.59C50.7047 152.689 53.6594 153.624 56.6599 154.39C66.0999 157.06 78.4099 159.71 90.0699 156.55C89.8399 162.14 89.5199 166.62 89.0199 171.07C89.0199 171.51 89.6299 171.64 89.6999 171.2C90.0899 168.86 91.0599 158.59 90.9999 156.28C98.4199 154 103.38 148.85 104.6 142.16C106.73 130.82 101.93 118.09 91.8199 108.18ZM49.3499 65.1097C49.6099 68.0297 49.3499 70.1097 48.4599 71.4597C48.1299 71.9497 47.6299 72.4597 47.1999 72.4597C46.8699 72.0997 44.7099 69.8597 42.6699 71.1697C41.3399 72.0397 41.2799 73.7297 42.5399 75.9297C43.4405 77.2659 44.0848 78.7579 44.4399 80.3297C40.6099 76.1697 39.4399 72.2697 38.5599 66.6797C39.5765 66.4963 40.5043 65.9832 41.1999 65.2197C42.9499 67.8197 47.2299 67.2997 49.3499 65.1097ZM43.1499 71.8297C44.4999 70.9997 45.7499 71.9997 46.8899 72.9997C47.5599 73.5897 48.6599 72.7597 49.1799 71.9997C50.5399 70.1197 50.4199 66.9997 50.2399 65.4397C51.2106 66.3641 52.4996 66.8797 53.8399 66.8797C55.1803 66.8797 56.4693 66.3641 57.4399 65.4397C57.6399 68.3197 63.6799 68.9797 65.2699 66.5897C65.9999 71.5897 66.3499 82.3997 63.9299 86.9297C61.9299 87.8097 57.3799 89.8197 55.1199 88.9297C53.1799 88.1597 52.1999 85.1997 49.9399 83.9297C48.4199 83.0897 47.1199 84.0397 48.1799 85.7397C50.8599 89.9997 50.6199 91.6197 48.4999 95.9997C46.6419 95.4933 44.9043 94.6194 43.3899 93.4297C45.5899 90.2797 46.1899 84.6597 45.6399 80.9197C45.1499 77.5897 44.6399 77.7897 43.3199 75.3297C42.7099 74.3197 42.1699 72.4497 43.1499 71.8297ZM60.0199 91.9997C59.9402 92.0367 59.8767 92.1016 59.8415 92.1822C59.8063 92.2627 59.8018 92.3534 59.8289 92.4371C59.856 92.5207 59.9127 92.5916 59.9884 92.6363C60.0642 92.681 60.1536 92.6964 60.2399 92.6797C61.0975 92.5264 61.9103 92.1849 62.6199 91.6797C62.6775 92.6122 62.432 93.5382 61.9199 94.3197C61.7399 94.5697 62.0599 95.3197 62.7099 94.3897C62.6599 97.1497 61.2499 100.56 58.5399 101.9C56.7032 101.568 54.9553 100.859 53.4063 99.8173C51.8572 98.7761 50.5408 97.4251 49.5399 95.8497C52.5399 90.7097 49.8999 86.8497 49.0199 85.2497C48.5299 84.3297 48.7799 84.1897 49.5799 84.7097C51.4699 85.9097 53.1299 89.2597 54.9599 89.7097C58.4099 90.5397 62.6599 88.4597 64.7399 87.5297C65.8199 87.0397 66.4499 86.7097 65.1499 88.3397C63.4099 90.4897 62.4199 90.9397 60.0199 91.9997ZM17.6999 134.68C17.6638 134.761 17.6581 134.853 17.684 134.938C17.7099 135.023 17.7656 135.096 17.841 135.143C17.9163 135.191 18.0062 135.209 18.0942 135.196C18.1822 135.182 18.2623 135.138 18.3199 135.07C27.0899 121.25 41.5999 111.66 49.0699 96.8697C50.2299 99.4497 55.1899 102.77 58.2499 102.77C58.2499 105.26 57.9999 108.22 57.7399 111.06C54.7399 110.37 46.6299 107.83 45.1699 104.51C44.9999 104.1 44.3399 104.38 44.4999 104.79C45.8699 108.5 54.3299 111.48 57.6499 112.11C56.9487 119.582 55.5595 126.973 53.4999 134.19C51.9899 139.59 50.0499 146.12 47.2499 150.95C45.0177 154.921 41.6021 158.096 37.4793 160.034C33.3565 161.972 28.7318 162.575 24.2499 161.76C5.78994 158.52 3.00994 141.87 9.27994 124.28C15.1399 107.8 27.9699 96.1997 42.7699 93.9997C44.3787 95.186 46.1373 96.1543 47.9999 96.8797C40.4999 111.35 26.1999 120.85 17.6999 134.68ZM54.3599 134.61C64.0771 130.515 74.4015 128.045 84.9199 127.3C87.9199 127.1 90.9199 127.11 93.9199 127.11C94.3599 127.11 94.3699 126.39 93.9199 126.39C91.8798 126.248 89.8338 126.211 87.7899 126.28C87.2999 122.28 80.0899 110.61 77.6399 107.38C77.5772 107.32 77.4953 107.286 77.4091 107.282C77.3228 107.278 77.2381 107.305 77.1702 107.358C77.1023 107.412 77.0559 107.487 77.0393 107.572C77.0228 107.657 77.0372 107.745 77.0799 107.82C81.9899 114.7 85.9599 123.46 86.7499 126.32C77.9599 126.65 64.3999 128.73 54.6399 133.51C55.5599 130.14 59.1199 116.24 59.1999 102.51C61.9499 101.28 63.9099 96.8297 63.6799 93.8397C74.0484 96.201 83.558 101.394 91.1499 108.84C100.06 117.57 105.52 128.84 103.84 141.09C102.95 148.09 97.9799 153.51 90.5599 155.48C77.7699 158.98 64.6099 155.94 51.9799 152.02C50.7573 151.608 49.5119 151.268 48.2499 151C50.8057 145.744 52.8518 140.256 54.3599 134.61Z" fill="#2596BE"/>
<path d="M53.87 70.23C54.1285 69.8481 54.4731 69.5324 54.8761 69.3083C55.2792 69.0842 55.7292 68.958 56.19 68.94C56.92 68.94 56.88 67.84 56.19 67.94C55.5961 68.0025 55.0242 68.1998 54.5181 68.5169C54.0121 68.8341 53.5852 69.2627 53.27 69.77C53.01 70.18 53.59 70.63 53.87 70.23ZM56.23 73C55.82 73.33 55.85 75 56.47 75C56.6118 74.9852 56.7444 74.9228 56.8461 74.8229C56.9479 74.723 57.0127 74.5915 57.03 74.45C57.26 73.58 56.67 72.69 56.23 73ZM55.35 81.26C55.3313 81.1818 55.2889 81.1113 55.2287 81.0582C55.1684 81.005 55.0931 80.9717 55.0132 80.963C54.9333 80.9542 54.8526 80.9704 54.7822 81.0092C54.7119 81.0481 54.6552 81.1077 54.62 81.18C54.52 81.32 54.33 81.75 54.75 82.62C55.0351 83.2123 55.5272 83.6797 56.1333 83.9339C56.7395 84.1882 57.4177 84.2117 58.04 84C58.1243 83.9666 58.1934 83.9033 58.2341 83.8223C58.2748 83.7412 58.2843 83.6481 58.2609 83.5605C58.2375 83.4729 58.1827 83.3969 58.1069 83.3471C58.0312 83.2972 57.9398 83.2769 57.85 83.29C56.43 83.57 55.61 82.67 55.35 81.26Z" fill="black"/>
</svg>
