<svg width="201" height="168" viewBox="0 0 201 168" fill="none" xmlns="http://www.w3.org/2000/svg">
<path d="M147.476 30.2411C149.185 31.3178 150.539 32.8735 151.37 34.7144C152.485 37.3257 153.27 40.0659 153.707 42.8716C153.062 42.8886 152.42 42.9697 151.791 43.1137C151.718 43.1137 151.297 43.3347 151.223 43.5662C150.886 44.7331 150.629 45.9218 150.455 47.1238L129.404 47.2501C129.162 47.2501 129.193 47.5343 129.404 47.5449C129.404 47.5449 148.623 47.8396 150.455 47.8501C149.991 51.6813 150.381 55.8915 153.096 58.607C155.654 61.1331 164.348 61.491 167.579 59.0807C170.263 57.0703 170.926 51.2603 170.737 47.8501C171.368 47.8501 185.599 47.5975 187.009 47.5449C187.048 47.5449 187.086 47.5293 187.113 47.5017C187.141 47.4741 187.157 47.4366 187.157 47.3975C187.157 47.3584 187.141 47.3209 187.113 47.2933C187.086 47.2657 187.048 47.2501 187.009 47.2501C184.609 47.2501 170.705 47.1449 170.705 47.1449C170.421 43.9873 169.653 43.6715 169.653 43.5241C169.644 43.4267 169.605 43.3345 169.541 43.2607C169.476 43.187 169.39 43.1355 169.295 43.1137C168.379 42.9347 167.449 42.8396 166.516 42.8295C167.99 40.4613 169.253 34.0197 171.568 29.7043C175 23.2733 187.914 29.3991 187.704 23.7153C187.451 17.4001 180.441 13.853 172.916 17.2001C165.769 20.3577 163.906 35.0933 163.78 42.7874C161.622 42.7874 162.664 42.8505 159.569 42.7874C162.275 39.1877 165.716 27.1887 165.116 18.8C164.429 13.2329 162.086 8.00035 158.391 3.78023C155.149 0.14897 151.349 -1.38774 148.486 1.5278C144.276 5.73796 148.149 10.4428 151.749 15.2108C155.707 20.4735 157.191 23.0943 157.728 30.5884C157.979 34.6543 157.902 38.7339 157.496 42.7874H156.328C157.233 39.8297 156.065 33.3145 155.212 30.2516C153.991 25.9257 151.907 21.5682 148.602 18.5684C144.698 15.1972 139.949 12.9523 134.866 12.0742C131.761 11.548 129.109 11.748 127.667 12.611C127.137 12.8869 126.727 13.3491 126.517 13.9087C126.308 14.4684 126.312 15.0859 126.53 15.6424C128.277 21.3577 140.634 26.0309 147.476 30.2411ZM173.126 17.8737C180.168 14.7161 186.651 18.0316 186.872 23.7574C187.041 28.1465 174.379 22.7049 170.926 29.4306C168.527 34.0829 167.464 40.5876 166.011 42.84H165.264C166.316 38.1983 168.895 27.8729 171.926 24.2206C175.8 19.4947 182.546 22.2523 182.841 22.1786C182.957 22.1786 183.073 21.9892 182.725 21.8629C178.515 20.3367 174.231 20.3683 171.368 23.7574C167.927 27.8202 165.758 37.6089 164.853 42.8716H163.948C164.232 35.5038 166.295 20.8735 173.126 17.8737ZM158.264 30.5779C157.843 23.147 156.475 20.4209 152.317 14.7898C148.907 10.2113 145.255 5.84321 149.023 2.02249C151.591 -0.587808 154.938 0.96995 157.843 4.25387C161.4 8.37161 163.644 13.4596 164.285 18.8631C164.969 27.3887 161.496 39.6297 159.022 42.7979H158.464C159.59 37.9784 160.319 33.0746 160.643 28.136C160.885 23.9258 160.811 20.9998 159.591 17.337C158.587 14.5481 157.195 11.9152 155.454 9.51658C154.623 8.33346 153.709 7.21139 152.717 6.15897C152.692 6.12827 152.656 6.1088 152.617 6.10485C152.577 6.1009 152.538 6.1128 152.507 6.13792C152.476 6.16305 152.457 6.19934 152.453 6.23882C152.449 6.27829 152.461 6.31772 152.486 6.34843C152.75 6.62392 152.996 6.91569 153.223 7.22204C156.507 11.4322 159.748 17.579 160.001 23.0101C160.254 28.4412 159.17 37.5036 158.17 42.8716H157.875C158.34 38.7912 158.47 34.6796 158.264 30.5779ZM168.99 44.0083C170.726 45.5977 170.179 56.1546 167.032 58.5123C163.885 60.87 155.686 60.3122 153.454 58.1544C149.939 54.7758 150.297 48.45 151.497 43.7557C151.571 43.8541 151.674 43.9275 151.791 43.9662C152.6 44.153 153.425 44.2657 154.254 44.303C153.224 48.1227 153.404 52.168 154.77 55.881C154.82 55.987 154.911 56.0688 155.021 56.1083C155.132 56.1478 155.253 56.1417 155.359 56.0915C155.465 56.0412 155.547 55.9509 155.587 55.8404C155.626 55.7298 155.62 55.6081 155.57 55.5021C154.244 52.8497 153.886 46.9554 154.654 44.3767C157.938 44.5241 166.727 44.5872 168.99 44.0083ZM148.149 19.1052C155.286 25.4205 157.117 39.4087 156.012 42.8189H155.359C155.21 39.8942 154.701 36.999 153.844 34.1986C151.57 26.8309 147.76 22.3049 141.918 18.8947C138.867 17.1492 135.601 15.8083 132.203 14.9056C132.164 14.8958 132.123 14.902 132.088 14.9227C132.054 14.9434 132.029 14.977 132.019 15.0161C132.01 15.0552 132.016 15.0965 132.036 15.1311C132.057 15.1656 132.091 15.1905 132.13 15.2003C136.096 16.4579 139.861 18.2799 143.308 20.6103C147.13 23.1549 150.115 26.773 151.886 31.0094C153.567 34.7542 154.633 38.7454 155.044 42.8295H154.054C153.665 39.9405 152.915 37.1118 151.823 34.4091C150.969 32.4657 149.569 30.8127 147.792 29.6517C140.834 25.3678 128.846 20.6735 127.246 15.4108C125.762 10.5796 140.066 11.8637 148.149 19.1052ZM57.1363 73.3005C43.1165 68.4273 30.5491 66.2485 22.7288 64.2802C22.6319 64.253 22.5306 64.2456 22.4308 64.2585C22.331 64.2714 22.2349 64.3043 22.1481 64.3553C22.0614 64.4062 21.9858 64.4742 21.926 64.5551C21.8661 64.6359 21.8232 64.728 21.7998 64.8259C21.7764 64.9237 21.773 65.0253 21.7898 65.1245C21.8066 65.2237 21.8432 65.3184 21.8976 65.4031C21.9519 65.4878 22.0227 65.5607 22.1059 65.6173C22.189 65.6739 22.2827 65.7132 22.3814 65.7327C27.4126 66.9432 35.0119 68.3325 43.2322 70.2376C56.81 73.3952 57.1047 74.332 57.3258 73.6794C57.3494 73.604 57.3428 73.5224 57.3075 73.4517C57.2721 73.3811 57.2108 73.3269 57.1363 73.3005ZM168.232 81.8156C168.232 81.7907 168.227 81.766 168.217 81.7431C168.208 81.7201 168.194 81.6992 168.176 81.6816C168.159 81.664 168.138 81.65 168.115 81.6405C168.092 81.631 168.067 81.6261 168.042 81.6261C158.812 81.6261 149.833 83.7312 144.75 84.2048C144.688 84.21 144.628 84.2277 144.573 84.2566C144.518 84.2856 144.469 84.3253 144.43 84.3734C144.391 84.4216 144.361 84.4771 144.344 84.5367C144.327 84.5964 144.321 84.6589 144.329 84.7206C144.334 84.7829 144.352 84.8435 144.38 84.899C144.409 84.9544 144.449 85.0036 144.497 85.0437C144.545 85.0839 144.6 85.1141 144.66 85.1327C144.719 85.1513 144.782 85.1579 144.844 85.1521C148.57 84.7837 155.023 83.3733 161.064 82.5944C167.769 81.8156 168.242 82.2892 168.232 81.8156ZM136.435 103.719C136.444 103.702 136.449 103.683 136.451 103.663C136.453 103.644 136.451 103.624 136.445 103.606C136.439 103.587 136.43 103.57 136.417 103.555C136.404 103.54 136.389 103.528 136.372 103.519L136.108 103.382L136.045 103.698C136.224 103.782 136.361 103.919 136.435 103.719Z" fill="#2596BE"/>
<path d="M200.365 106.351C197.66 105.793 190.976 106.014 188.218 106.256C190.492 98.4881 192.839 88.3627 193.786 82.7842C194.13 81.2405 194.278 79.6599 194.228 78.0793C194.194 77.9374 194.13 77.8042 194.041 77.6883C193.953 77.5723 193.841 77.4761 193.713 77.4057C189.503 74.7638 145.391 80.5633 142.317 82.0895C141.402 82.5421 140.581 84.8261 140.212 85.8576C137.486 81.3738 137.77 80.3107 134.728 73.2271C132.833 68.6132 130.429 64.2251 127.561 60.1441C127.634 59.5862 130.55 37.8092 127.424 31.9886C125.319 28.0942 113.92 26.7259 109.531 26.3575C109.531 26.126 108.983 22.1474 108.752 20.3475C112.457 17.2531 114.014 11.5588 109.994 10.601C107.141 9.92738 95.8792 7.7802 87.4904 9.94843C82.2277 11.3167 78.0176 14.3902 77.6597 20.4738C77.5184 22.7839 77.6597 25.1027 78.0807 27.3785C72.6391 27.9784 63.2715 28.8731 58.4929 30.6729C52.3461 32.9885 54.9354 59.8809 55.5879 62.0597C55.2301 62.9438 54.8933 63.8385 54.588 64.67C39.2736 60.7651 4.99234 53.4815 3.46616 53.6183C3.06863 53.6135 2.67609 53.7071 2.32349 53.8907C1.9709 54.0744 1.6692 54.3424 1.44528 54.6709C1.03479 54.7656 0.887434 55.3445 0.813756 55.7234C-0.238784 61.3229 1.66631 94.7621 2.00313 100.435C2.56097 102.477 18.7806 106.908 20.8857 107.487C20.9909 110.256 21.5488 124.002 21.6646 126.822C20.7489 126.656 19.8425 126.441 18.949 126.18C17.0755 125.412 9.89718 132.401 10.5287 131.822C7.78157 134.264 37.6737 142.295 40.063 141.621C42.4522 140.948 47.1781 136.432 46.3782 133.917C46.157 133.469 45.784 133.115 45.3257 132.917C43.0627 131.727 37.0738 130.264 34.5792 129.664C34.8213 124.57 34.8213 116.213 34.8108 111.14C37.7684 111.876 54.5564 115.939 57.5878 115.887C57.8051 115.89 58.0193 115.835 58.2088 115.729C59.1771 115.592 60.3138 115.35 60.4086 114.36C60.4086 114.066 60.6507 111.498 60.9559 107.687C68.3763 110.519 77.3755 110.308 78.9754 109.656C79.4067 109.448 79.7713 109.123 80.0279 108.719C80.1016 108.814 80.1332 108.792 80.691 108.877C82.7961 109.213 86.1642 109.529 88.0588 108.54C90.7428 108.971 98.521 109.592 99.0999 106.993C99.1736 106.645 99.2789 105.94 99.3841 105.088C107.173 105.509 134.834 105.319 134.939 105.319L134.297 108.214C134.281 108.19 134.259 108.17 134.233 108.157C134.207 108.145 134.178 108.139 134.15 108.14C134.15 108.077 134.15 108.056 134.15 108.14C129.84 107.8 125.515 107.688 121.193 107.803C119.656 107.877 115.604 108.066 115.53 109.561C114.992 110.831 114.914 112.249 115.309 113.571C115.541 114.403 117.498 115.75 118.225 116.244C114.109 115.834 111.709 115.992 110.467 116.434C110.172 116.485 109.897 116.618 109.672 116.816C109.447 117.015 109.282 117.272 109.195 117.559C109.108 117.846 109.102 118.151 109.178 118.441C109.254 118.732 109.409 118.995 109.625 119.202C111.036 121.139 113.972 121.791 114.288 124.328C114.888 129.138 102.658 134.58 98.1947 136.485C100.437 133.538 106.447 124.265 103.531 122.023C100.289 119.528 72.4917 118.434 69.9341 119.086C68.1342 119.549 54.9038 129.328 55.1459 132.769C55.3143 135.011 68.3342 137.211 70.755 137.632C73.4811 138.095 92.932 141.127 95.2582 139.642C95.7515 139.443 96.1996 139.147 96.5758 138.771C96.9519 138.395 97.2484 137.946 97.4474 137.453C101.478 136.068 105.357 134.276 109.025 132.106C114.814 128.517 118.056 124.075 112.33 120.339C111.646 119.897 109.773 118.55 110.046 117.792C110.636 116.118 118.772 116.739 118.888 116.739C122.666 119.202 129.897 123.002 134.16 124.107C138.665 125.296 159.716 122.991 164.799 122.349C165.378 124.454 165.936 126.412 166.305 127.612C165.515 127.675 163.263 127.875 162.631 128.37C162.284 128.643 162.294 129.106 162.852 129.422C162.852 132.948 162.421 143.495 163.473 148.252C163.873 150.031 164.336 150.768 166.178 151.41C169.662 152.536 176.356 152.136 179.861 151.199C182.04 150.61 182.324 150.147 182.672 148.989C183.872 145.052 183.808 133.432 183.724 129.306C183.792 129.258 183.846 129.194 183.884 129.12C183.922 129.045 183.942 128.963 183.942 128.88C183.942 128.797 183.922 128.715 183.884 128.641C183.846 128.567 183.792 128.503 183.724 128.454C182.946 128.093 182.107 127.879 181.251 127.822C181.398 126.644 182.187 120.055 182.303 118.897C182.853 118.567 183.344 118.147 183.756 117.655C184.399 116.873 184.818 115.931 184.966 114.929C186.019 113.55 187.534 108.403 188.029 106.719C192.723 106.919 199.607 106.645 200.249 106.719C200.298 106.734 200.351 106.73 200.396 106.706C200.442 106.682 200.476 106.642 200.491 106.593C200.506 106.544 200.502 106.491 200.478 106.445C200.454 106.4 200.414 106.366 200.365 106.351ZM58.093 129.064C58.7982 128.286 59.6297 127.475 60.5138 126.654C64.2714 123.181 69.0499 119.686 70.0919 119.423C72.618 118.771 100.363 120.476 103.184 122.581C103.657 122.939 103.752 123.633 103.657 124.465C103.279 127.77 99.8262 133.222 97.8158 135.885C95.5423 133.927 61.1032 129.475 58.093 129.064ZM109.667 27.1154C113.688 27.4943 124.961 28.7889 126.898 32.3044C129.634 37.2513 127.95 54.1235 127.276 59.6704C126.687 58.881 126.077 58.1337 125.456 57.4496C121.887 53.5341 115.762 51.5659 110.573 50.5659C107.239 49.9855 103.877 49.5884 100.5 49.3766C100.395 49.3766 100.563 49.5345 99.7315 47.8293C98.4895 45.2717 98.4158 45.3138 98.5421 45.2401C99.9221 45.1666 101.289 44.9335 102.615 44.5454C106.173 43.4929 108.289 41.3878 109.289 36.2725C109.831 33.2405 109.945 30.1473 109.625 27.0838L109.667 27.1154ZM100.605 49.7029C101.268 49.7976 101.447 49.7871 101.5 49.8186C101.5 50.0818 103.805 62.4491 95.9107 63.0175C89.385 63.5543 85.0906 54.3972 82.775 48.2819C83.6171 48.1451 84.2907 48.0504 84.7433 47.9872C84.9643 52.7868 91.869 61.4913 95.7002 60.8808C100.005 60.1756 102.121 53.6288 100.605 49.7029ZM84.8906 30.3361C84.985 29.8666 85.1952 29.428 85.5022 29.0604C85.8092 28.6927 86.2032 28.4076 86.6484 28.2311C88.7535 27.7153 88.7535 30.3361 90.427 30.1888C92.5321 30.0519 90.1849 25.1682 91.9953 22.1895C93.9635 18.9055 101.942 25.5471 108.394 20.6212C109.173 26.1681 110.025 30.4835 108.836 36.1462C107.783 41.1141 105.826 42.9456 102.447 43.9349C101.059 44.2545 99.6529 44.4935 98.2369 44.6507C98.1239 44.7145 98.029 44.8059 97.9609 44.9163C97.8928 45.0267 97.8537 45.1526 97.8474 45.2822C97.8474 45.6506 98.9 47.5346 99.8788 49.7344C101.342 53.1868 99.4368 59.4599 95.5845 60.0599C92.8479 60.4914 87.4904 54.3551 85.9642 50.0186C85.2906 48.103 85.4906 48.0293 86.68 40.5458C88.3535 40.6616 88.7008 37.3882 88.785 35.6936C88.8024 35.3343 88.6776 34.9827 88.4377 34.7147C87.6799 33.8832 87.0589 34.8515 85.5853 33.0096C85.2638 32.6522 85.0329 32.2228 84.912 31.7576C84.7911 31.2923 84.7838 30.8048 84.8906 30.3361ZM78.2281 28.1363C79.6385 34.5779 83.3434 39.0512 85.8906 40.2932C85.4274 43.2508 84.9012 46.5452 84.7643 47.5452C78.691 47.8498 72.7013 49.0925 67.008 51.2291C64.4798 52.1971 62.1236 53.5654 60.0297 55.2813C58.8719 49.2819 61.8505 37.5566 61.4822 34.2305C61.3138 32.8201 60.9138 31.3255 59.535 31.0203C64.2503 29.5362 72.9864 28.6942 78.2281 28.1363ZM58.9034 31.2939C59.155 31.3025 59.4022 31.3619 59.6301 31.4687C59.858 31.5754 60.062 31.7272 60.2296 31.9149C60.7041 32.631 60.9433 33.4773 60.9138 34.3358C61.1453 37.4934 57.8719 49.1345 59.7139 55.5866C57.9397 57.2502 56.596 59.3199 55.7984 61.6176C54.9564 56.4917 53.5565 33.1569 58.9034 31.2939ZM21.0857 79.2477C21.1699 78.753 22.0751 78.5319 22.5698 78.4477C26.2221 77.8478 33.8109 79.9318 33.6425 82.4684C33.3899 86.226 34.5477 131.759 33.5583 133.432C32.3794 135.443 25.9379 134.327 23.3697 132.538C22.2014 131.727 22.2224 131.033 22.254 131.169C21.3593 95.3305 20.9383 80.0686 21.0857 79.2477ZM45.4836 134.264C46.0203 136.053 41.7997 140.169 39.8419 140.716C37.8842 141.263 9.02357 133.79 10.9076 132.085C10.034 132.875 15.6019 127.749 18.0544 126.928C18.2498 126.83 18.4732 126.804 18.6859 126.854C18.9701 126.98 20.0858 127.265 21.6961 127.643C21.7909 129.864 21.854 131.18 21.854 131.18C22.475 134.274 32.3794 136.611 34.1056 133.759C34.3699 132.748 34.5112 131.709 34.5266 130.664C36.137 131.064 44.3994 133.075 45.4836 134.264ZM57.5878 114.992C54.8196 115.097 37.5895 111.055 34.8108 110.403C34.7582 98.0671 34.5056 84.2367 34.6319 82.5316C34.8845 78.6582 25.0327 76.5532 21.5593 77.6899C21.2151 77.7655 20.8988 77.9355 20.6459 78.1809C20.3931 78.4264 20.2136 78.7375 20.1279 79.0793C19.8963 80.4791 20.8015 105.393 20.8541 106.887C19.1385 106.424 3.06619 102.14 2.40309 100.425C2.22416 96.5514 0.508519 59.1021 1.72947 55.555C7.45528 56.9864 56.3563 66.8487 59.7981 69.238C60.6612 71.6062 58.6929 111.645 57.5878 114.992ZM60.0612 114.371C60.0612 115.076 59.1245 115.318 58.4298 115.423C59.5665 112.697 61.8295 71.2168 60.6717 68.7749C59.5139 66.333 6.70798 56.0707 1.77157 54.6919C1.99111 54.4544 2.25839 54.2659 2.55587 54.139C2.85336 54.012 3.17433 53.9493 3.49773 53.9551C4.96076 53.8499 58.9561 65.912 62.0926 67.6381C62.6189 69.1538 62.0926 79.7108 62.019 81.4475C61.8295 85.6366 60.1033 113.803 60.0612 114.371ZM88.4798 107.245C87.2483 108.887 82.8803 108.687 80.8278 108.498H80.3226C81.259 106.615 81.7897 104.557 81.8804 102.456C82.9329 102.161 86.7852 101.267 87.3746 102.214C87.5536 102.488 86.9852 102.814 86.6905 102.972C85.9122 103.333 85.097 103.608 84.2591 103.793C84.1349 103.817 84.0252 103.889 83.9541 103.993C83.8831 104.098 83.8565 104.227 83.8802 104.351C83.9039 104.475 83.976 104.585 84.0807 104.656C84.1853 104.727 84.3138 104.753 84.4381 104.73C85.4906 104.582 88.364 104.182 89.385 104.53C88.9644 105.113 88.3604 105.54 87.6694 105.74C86.6852 105.733 85.7025 105.814 84.7328 105.982C84.593 106.009 84.4679 106.085 84.3813 106.198C84.2946 106.311 84.2525 106.452 84.2629 106.593C84.2733 106.735 84.3355 106.868 84.4377 106.967C84.5399 107.066 84.6749 107.124 84.817 107.129C85.8861 107.161 86.953 107.015 87.9746 106.698C88.2408 106.709 88.5021 106.773 88.7429 106.887C88.6755 107.029 88.5743 107.152 88.4482 107.245H88.4798ZM98.4368 106.877C98.3923 107.041 98.3087 107.192 98.1932 107.316C98.0778 107.441 97.9338 107.536 97.7737 107.593C95.8265 108.645 90.9112 108.456 88.7219 108.235C89.5323 107.614 90.006 106.603 89.185 106.045C90.8059 104.993 90.6375 103.867 89.5745 103.54C88.886 103.373 88.1744 103.324 87.4694 103.393C88.1325 102.898 88.3746 102.34 87.9746 101.74C87.3957 100.919 85.8695 101.025 84.9222 101.183C84.4715 97.0155 84.2396 92.8277 84.2275 88.6363C87.0378 90.6783 96.3528 90.7414 99.6052 88.8047C99.763 92.3413 98.7 105.34 98.3947 106.877H98.4368ZM89.406 104.488C89.406 104.488 89.3745 104.509 89.3745 104.488H89.406ZM111.994 104.719C113.941 99.0249 114.214 86.9628 114.099 80.9317C115.73 83.5526 124.624 96.1199 124.687 96.2251C124.903 96.5557 125.158 96.8595 125.445 97.1303C127.566 99.0684 129.946 100.702 132.518 101.983C135.265 103.435 135.486 103.361 135.465 103.477L135.097 105.056C134.918 105.045 113.604 104.719 111.962 104.719H111.994ZM116.53 109.445C118.793 107.866 134.181 108.582 134.35 108.477V108.592C132.876 115.645 132.308 118.192 132.129 119.118C132.223 118.707 132.802 115.96 133.465 112.918C133.928 110.687 134.518 108.035 135.118 105.224C135.392 103.94 135.57 103.119 135.581 103.056C132.697 101.53 128.297 98.8986 125.992 96.5725C125.413 95.9831 114.225 80.4791 114.12 80.3002C114.014 80.1213 114.014 75.5006 113.899 75.2901C113.877 75.2662 113.848 75.2497 113.816 75.2429C113.784 75.236 113.751 75.2391 113.721 75.2518C113.691 75.2645 113.666 75.2861 113.649 75.3136C113.631 75.3412 113.623 75.3734 113.625 75.4059C113.52 75.4059 113.625 97.9092 111.678 104.688L99.5525 104.803C99.6262 104.214 99.6999 103.53 99.7841 102.793C104.668 103.414 106.889 98.0566 105.594 93.6885C104.826 91.2887 102.847 90.9203 100.584 92.0781C100.689 90.6767 100.689 89.2694 100.584 87.868C100.682 87.6261 100.699 87.3592 100.632 87.1069C100.566 86.8546 100.42 86.6306 100.216 86.4681C98.6473 84.9945 94.2583 84.8367 92.1216 84.8367C89.9849 84.8367 85.5853 85.0051 84.0276 86.4681C83.8911 86.5735 83.7827 86.7109 83.7118 86.8681C82.9119 88.31 84.4486 100.951 84.638 101.225C83.7214 101.407 82.8178 101.65 81.933 101.951V100.267C81.8699 96.5935 70.1235 94.5516 69.7235 92.457C69.5867 91.7413 69.3657 90.1415 69.1131 88.2469C67.6921 77.8478 67.9027 78.2478 67.6711 78.2478C67.632 78.2478 67.5945 78.2633 67.5669 78.2909C67.5393 78.3186 67.5237 78.356 67.5237 78.3951C67.5237 78.6793 68.6605 90.1309 69.071 92.5623C69.4815 94.9937 81.1436 97.3514 81.1962 100.267C81.1962 102.54 80.691 108.182 78.7228 108.992C77.5334 109.498 68.3342 109.961 60.998 107.382C61.1559 105.34 64.0819 68.7854 62.6715 67.1645C62.1347 66.5435 55.83 64.9647 55.0301 64.7647C58.1877 57.6074 60.5243 51.7132 82.4803 48.2714C83.0901 50.3151 83.8356 52.3159 84.7117 54.2604C86.9431 59.0284 90.7217 64.1753 95.9528 63.7332C101.963 63.2175 102.931 56.7023 101.973 50.7554C101.91 50.3344 101.847 50.0607 101.794 49.8186C104.682 50.1076 107.553 50.5503 110.394 51.1448C115.351 52.1974 121.445 54.1972 124.845 57.9653C128.518 62.0071 131.729 68.2486 133.981 73.2377C137.223 80.416 137.202 82.2685 139.991 86.4049C138.03 92.5937 136.386 98.8785 135.065 105.235C134.644 107.203 134.013 110.203 133.413 112.929C132.539 117.139 132.013 119.802 132.065 119.244C131.971 119.813 132.065 119.792 132.065 119.928C128.634 118.398 125.323 116.611 122.161 114.581C121.056 113.845 115.414 110.234 116.53 109.424V109.445ZM100.5 94.2253C100.5 93.678 100.563 93.1728 100.584 92.6465C102.489 91.8782 104.184 91.9939 104.699 93.9832C105.752 97.5934 104.089 102.404 99.8472 102.404C99.8472 101.898 100.026 100.456 100.047 100.298C104.889 100.951 104.857 92.0887 100.5 94.2253ZM100.089 99.8459C100.237 98.1829 100.363 96.4251 100.468 94.7726C100.972 94.6169 101.511 94.6169 102.015 94.7726C103.268 95.2252 103.068 99.5722 100.037 99.8459H100.089ZM134.518 123.202C130.468 121.877 126.549 120.178 122.814 118.129C121.761 117.571 116.309 114.602 115.941 113.455C115.622 112.431 115.59 111.339 115.846 110.298C117.256 113.045 126.203 117.665 129.076 119.023C130.392 119.644 131.749 120.172 133.139 120.602C138.002 122.339 158.863 119.549 163.989 118.918C164.052 119.139 164.494 120.834 164.663 121.444C160.2 121.96 138.707 124.307 134.465 123.202H134.518ZM181.545 149.673C180.009 150.978 170.788 152.073 166.441 150.726C164.863 150.231 164.547 149.726 164.168 148.126C163.823 146.39 163.605 144.631 163.515 142.863C165.673 144.189 169.631 144.526 172.167 144.6C175.988 144.684 179.746 144.6 182.819 142.863C182.756 143.979 182.398 148.947 181.545 149.673ZM182.851 142.453C180.774 143.341 178.541 143.803 176.283 143.81C173.272 143.958 166.22 143.937 163.494 142.484C163.379 140.506 163.305 138.39 163.273 136.422C164.326 137.685 169.936 138.253 172.178 138.327C176.177 138.411 179.893 138.327 183.093 136.432C183.093 136.327 183.061 138.821 182.861 142.453H182.851ZM183.093 136.064C177.83 138.716 164.768 137.516 163.263 136.064V129.591C166.61 130.78 179.84 130.696 183.156 129.591C183.135 130.801 183.145 133.264 183.103 136.064H183.093ZM180.988 128.98C181.025 128.991 181.065 128.987 181.101 128.969C181.136 128.952 181.163 128.922 181.177 128.885C181.177 128.885 181.177 128.696 181.24 128.359C181.919 128.452 182.588 128.604 183.24 128.812C180.935 129.864 167.062 129.959 163.6 128.938C163.576 128.931 163.555 128.916 163.541 128.896C163.526 128.876 163.518 128.852 163.518 128.828C163.518 128.803 163.526 128.779 163.541 128.759C163.555 128.739 163.576 128.724 163.6 128.717C164.564 128.455 165.551 128.279 166.547 128.191C166.616 128.484 166.722 128.766 166.862 129.033C166.947 129.117 167.083 129.128 167.073 128.917C167.062 128.707 163.61 115.076 163.084 112.076C163.622 112.256 164.196 112.301 164.756 112.207C165.315 112.114 165.844 111.884 166.294 111.54C167.452 114.781 171.146 129.37 171.367 129.37C171.407 129.367 171.445 129.349 171.472 129.32C171.5 129.29 171.515 129.252 171.515 129.212L171.209 127.791H172.662C172.662 127.991 172.778 129.012 172.788 129.085C172.799 129.159 173.104 129.338 173.083 128.949C173.083 128.001 172.199 112.308 172.178 112.024C172.329 111.951 172.488 111.894 172.651 111.855C172.767 112.424 176.472 127.433 176.756 128.601C176.756 128.707 176.756 128.885 176.956 128.843C177.156 128.801 177.072 128.612 176.956 127.928L178.567 128.043V128.222C178.567 128.391 178.83 128.349 178.861 128.222C178.861 128.338 180.819 108.14 180.966 106.53C181.244 106.74 181.563 106.889 181.902 106.967C182.241 107.045 182.593 107.05 182.935 106.982C182.914 107.14 180.756 128.907 180.977 128.98H180.988ZM171.515 108.056C171.39 107.043 170.948 106.096 170.252 105.351C171.694 105.782 171.999 106.098 172.357 107.087C172.641 107.876 172.718 108.724 172.578 109.55C172.435 110.071 172.435 110.619 172.578 111.14C172.406 111.179 172.237 111.232 172.073 111.298C171.42 109.435 169.967 109.456 169.967 107.582C169.965 106.905 169.866 106.231 169.673 105.582C170.183 106.506 170.741 107.402 171.346 108.266C171.452 108.403 171.652 108.203 171.525 108.056H171.515ZM172.041 121.339C172.094 121.854 172.504 126.328 172.609 127.465H171.104C170.788 126.044 170.315 123.939 169.778 121.686L172.041 121.339ZM171.978 120.528L169.578 120.844C169.368 119.97 169.146 119.086 168.925 118.213C169.894 118.076 170.841 117.929 171.757 117.781C171.799 118.234 171.946 120.065 171.988 120.528H171.978ZM175.251 120.044C175.083 119.244 174.672 117.434 174.641 117.329C175.556 117.171 178.672 116.634 179.314 116.508C179.314 116.96 179.135 118.876 179.093 119.36C178.072 119.581 176.767 119.813 175.23 120.044H175.251ZM179.051 120.044C178.861 122.77 178.567 127.328 178.556 127.58C178.009 127.58 177.43 127.559 176.819 127.517C176.567 126.244 175.483 121.139 175.409 120.791C176.83 120.507 178.051 120.255 179.061 120.013L179.051 120.044ZM181.061 105.656C181.19 104.322 181.397 102.997 181.682 101.688C181.963 101.604 182.259 101.583 182.549 101.629C182.839 101.675 183.114 101.785 183.356 101.951C183.293 103.274 183.152 104.592 182.935 105.898C182.84 106.266 182.819 106.361 182.577 106.393C182.103 106.424 181.145 106.024 181.072 105.624L181.061 105.656ZM182.44 118.202C182.535 117.423 182.629 116.634 182.714 115.844C183.337 115.714 183.95 115.534 184.545 115.308C184.213 116.483 183.47 117.499 182.451 118.171L182.44 118.202ZM184.198 114.434C183.754 114.611 183.296 114.752 182.829 114.855C183.019 113.087 184.135 102.793 184.135 102.067C184.135 101.014 182.261 100.625 181.293 101.014C180.966 101.162 180.872 101.783 180.777 102.33C180.251 105.266 179.63 112.592 179.388 115.571L174.451 116.476C173.22 111.108 173.325 111.403 173.188 111.266C173.094 111.176 172.971 111.124 172.841 111.119C172.744 110.65 172.769 110.164 172.915 109.708C173.132 108.798 173.103 107.846 172.83 106.951C172.69 106.299 172.316 105.723 171.778 105.33C170.921 104.876 169.997 104.563 169.041 104.403C168.991 104.39 168.938 104.389 168.888 104.399C168.837 104.41 168.789 104.433 168.749 104.466C168.709 104.499 168.677 104.541 168.657 104.589C168.636 104.636 168.627 104.688 168.631 104.74C168.653 104.83 168.681 104.917 168.715 105.003C169.536 106.961 168.968 107.856 169.536 109.024C170.104 110.192 171.062 110.371 171.409 111.719C171.409 111.824 171.704 116.687 171.715 116.981L168.736 117.455C168.525 116.655 167.083 110.961 166.515 110.403C165.463 109.35 162.452 110.529 162.305 111.455C162.21 111.982 163.652 117.623 163.789 118.16C158.368 118.949 152.622 119.665 147.538 120.139C145.317 120.339 131.75 121.581 132.508 119.36C133.56 114.497 135.665 105.572 136.086 103.698V103.551C136.086 103.393 136.16 103.235 136.086 103.698C136.086 103.54 136.149 103.446 136.17 103.393L138.802 93.2149C139.149 91.9624 141.538 83.4473 142.749 82.8474C145.433 81.5212 189.545 75.8164 193.271 78.3109C193.902 81.0159 186.145 113.15 184.208 114.445L184.198 114.434Z" fill="#2596BE"/>
<path d="M98.9317 29.7781V28.9676C98.9317 28.8364 98.8796 28.7106 98.7868 28.6178C98.6941 28.5251 98.5683 28.4729 98.437 28.4729C98.3049 28.4729 98.1779 28.5247 98.0835 28.6172C97.989 28.7097 97.9346 28.8355 97.9318 28.9676V29.9149C97.9551 30.0401 98.0258 30.1515 98.1292 30.2259C98.2325 30.3003 98.3605 30.3319 98.4867 30.3143C98.6128 30.2967 98.7272 30.2311 98.8062 30.1312C98.8852 30.0314 98.9226 29.9049 98.9107 29.7781H98.9317ZM166.2 94.5514C165.894 94.2567 165.463 93.9094 165.063 94.0357C164.4 94.2462 163.737 95.9302 163.452 96.6249C162.654 98.6979 162.021 100.831 161.558 103.003C161.989 104.119 169.273 102.656 170.262 102.172C170.578 102.024 170.536 101.646 170.431 101.309C169.389 98.8453 167.961 96.5642 166.2 94.5514ZM161.842 102.866C162.032 101.993 164.431 95.2987 165.252 94.6882C166.526 95.4145 169.084 99.8773 169.768 101.561C168.82 101.94 162.389 103.572 161.842 102.866ZM76.1443 125.191C76.039 125.265 73.7445 126.717 73.6392 126.822C73.6143 126.833 73.593 126.85 73.578 126.873C73.563 126.895 73.555 126.922 73.555 126.949C73.555 126.976 73.563 127.002 73.578 127.024C73.593 127.047 73.6143 127.064 73.6392 127.075C74.2286 127.243 76.1969 127.464 76.7968 127.527C91.1956 123.917 91.2903 123.917 91.1114 123.917C91.2082 123.904 91.2962 123.854 91.357 123.778C91.4178 123.701 91.4467 123.604 91.4377 123.507C91.4377 123.328 91.1535 122.086 91.0693 121.707L76.1443 125.191ZM104.037 25.3785C104.331 25.3785 104.91 25.5153 105.026 25.5258C105.665 25.5921 106.298 25.7047 106.921 25.8626L107.868 26.031C107.904 26.04 107.942 26.036 107.975 26.0197C108.009 26.0034 108.035 25.9759 108.05 25.942C108.065 25.908 108.068 25.8699 108.058 25.8342C108.047 25.7985 108.025 25.7676 107.994 25.7469C107.445 25.2816 106.779 24.9758 106.068 24.8627C105.364 24.7118 104.631 24.7741 103.963 25.0417C103.941 25.0465 103.92 25.0556 103.901 25.0686C103.883 25.0815 103.867 25.098 103.855 25.117C103.842 25.1361 103.834 25.1574 103.83 25.1796C103.826 25.2019 103.826 25.2248 103.831 25.2469C103.836 25.269 103.845 25.29 103.858 25.3085C103.871 25.3271 103.888 25.343 103.907 25.3552C103.926 25.3674 103.947 25.3758 103.969 25.3797C103.992 25.3837 104.014 25.3833 104.037 25.3785ZM95.7004 26.3047C95.9846 26.2415 96.5951 26.1468 96.753 26.1258C97.3908 25.9865 98.0382 25.895 98.6897 25.8521L99.7422 25.7363C99.7841 25.7363 99.8242 25.7197 99.8538 25.6901C99.8834 25.6605 99.9001 25.6203 99.9001 25.5784C99.9001 25.5366 99.8834 25.4964 99.8538 25.4668C99.8242 25.4372 99.7841 25.4206 99.7422 25.4206C99.0637 25.1329 98.3194 25.0368 97.5901 25.1426C96.8608 25.2483 96.1745 25.552 95.6057 26.0205C95.5807 26.0205 95.556 26.0265 95.5338 26.0379C95.5115 26.0493 95.4923 26.0658 95.4776 26.0861C95.463 26.1064 95.4534 26.1299 95.4496 26.1546C95.4459 26.1793 95.448 26.2046 95.4559 26.2283C95.4638 26.2521 95.4773 26.2736 95.4951 26.2911C95.513 26.3086 95.5348 26.3216 95.5586 26.3291C95.5825 26.3366 95.6078 26.3382 95.6325 26.334C95.6571 26.3298 95.6804 26.3197 95.7004 26.3047ZM106.226 28.1361C106.095 28.1361 105.969 28.1882 105.876 28.281C105.783 28.3738 105.731 28.4996 105.731 28.6308V29.5781C105.749 29.7093 105.819 29.8279 105.924 29.9079C106.03 29.9878 106.163 30.0225 106.294 30.0044C106.425 29.9862 106.544 29.9167 106.624 29.8111C106.704 29.7055 106.739 29.5725 106.721 29.4413V28.6308C106.722 28.5655 106.71 28.5005 106.686 28.4398C106.661 28.3791 106.625 28.324 106.579 28.2778C106.533 28.2316 106.478 28.1952 106.417 28.1708C106.356 28.1465 106.291 28.1347 106.226 28.1361ZM24.5382 119.518C26.0012 119.991 29.4115 121.265 30.9798 121.075C31.1692 121.075 31.3797 120.886 31.5166 120.549C32.5691 118.181 31.8113 106.14 31.4323 103.814C31.1692 102.14 25.1171 100.067 23.6541 101.256C22.7068 102.024 23.1804 110.939 23.2857 112.181C23.5593 115.181 23.2752 119.107 24.5382 119.518ZM24.1277 101.814C25.2645 100.993 30.5377 102.94 30.7061 103.919C30.9692 105.571 31.9481 119.465 30.8956 120.549C29.5378 120.749 25.9381 119.644 24.5803 119.223C23.6225 118.907 23.9488 114.718 23.7909 112.129C23.7172 110.382 23.6015 103.445 24.1277 101.814ZM98.9212 36.0828C98.895 36.0698 98.8662 36.0631 98.837 36.0631C98.8078 36.0631 98.779 36.0698 98.7528 36.0828C98.4897 36.1775 98.3318 36.4722 98.2897 36.9038C98.2557 38.0189 98.6299 39.108 99.3422 39.9667C99.5092 40.1946 99.7203 40.3866 99.963 40.5312C100.206 40.6758 100.475 40.77 100.755 40.8083C101.035 40.8466 101.32 40.8282 101.592 40.7541C101.865 40.68 102.12 40.5518 102.342 40.3772C102.976 39.855 103.475 39.1869 103.794 38.43C103.823 38.371 103.838 38.3062 103.838 38.2405C103.838 38.1748 103.823 38.11 103.794 38.051C103.468 37.5458 102.689 38.2616 98.9212 36.0828ZM98.8265 36.4407C99.97 37.4144 101.309 38.1322 102.752 38.5457C100.5 42.377 98.2371 37.209 98.8265 36.4407ZM101.405 33.9672C102.079 34.0935 103.942 33.8619 104.342 33.1778C104.542 32.8515 104.342 32.7462 103.9 31.399C103.501 30.2285 103.034 29.0828 102.5 27.9677C102.31 27.673 102.068 27.9677 102.205 28.1466C102.498 29.7604 102.963 31.3378 103.594 32.8515C102.833 33.208 102.053 33.5242 101.258 33.7988C101.256 33.8195 101.259 33.8404 101.266 33.8601C101.272 33.8798 101.283 33.898 101.297 33.9136C101.31 33.9293 101.327 33.942 101.346 33.9512C101.364 33.9604 101.384 33.9659 101.405 33.9672ZM140.223 143.421C144.17 140.916 141.096 138.611 138.486 139.705C137.844 138.537 137.697 138.442 136.381 138.505C129.55 138.853 98.7002 145.989 98.4055 146.105C96.8477 146.747 100.805 156.041 102.374 157.262C102.731 157.535 102.616 157.588 106.478 156.83C106.731 159.125 107.731 163.145 110.068 163.272C111.157 163.072 112.217 162.74 113.225 162.282C115.177 164.224 117.255 166.035 119.446 167.703C121.867 169.324 137.339 151.252 139.655 149.147C140.318 148.926 140.907 148.778 140.833 147.136C142.833 146.768 144.38 145.536 143.317 143.768C142.602 142.695 141.36 142.863 140.223 143.421ZM140.591 140.558C141.023 140.716 141.244 140.884 141.107 141.316C140.823 141.975 140.408 142.57 139.886 143.063C139.607 142.207 139.28 141.367 138.907 140.547C139.452 140.351 140.049 140.355 140.591 140.558ZM129.392 140.211C129.782 142.053 130.045 143.052 130.54 144.747L123.245 146.126C122.826 144.603 122.338 143.1 121.782 141.621C123.161 141.358 128.266 140.4 129.392 140.211ZM118.604 154.262C118.99 155.584 119.56 156.846 120.298 158.009C118.277 158.988 116.372 159.883 114.751 160.619C114.17 158.854 113.352 157.176 112.32 155.63L118.604 154.262ZM115.625 154.262C115.269 152.433 114.82 150.624 114.278 148.841L122.698 147.021C123.157 148.803 123.712 150.56 124.361 152.283C121.467 152.894 118.446 153.578 115.625 154.22V154.262ZM119.13 154.315C119.014 154.146 118.298 154.399 126.045 152.62C126.182 153.402 126.472 154.15 126.898 154.82L120.73 157.841C120.364 156.583 119.825 155.382 119.13 154.273V154.315ZM126.498 152.504C130.497 151.578 134.171 150.694 136.707 150.02L127.413 154.557C127.241 153.809 126.935 153.1 126.508 152.462L126.498 152.504ZM124.719 152.178C124.381 150.382 123.953 148.605 123.435 146.852L130.624 145.084C130.624 145.136 131.108 146.757 131.329 147.452C131.434 147.768 132.329 150.315 132.381 150.357C130.203 150.841 124.887 152.094 124.708 152.136L124.719 152.178ZM121.467 141.726C121.814 143.642 122.14 144.884 122.519 146.315L114.099 148.168C113.604 146.494 113.267 145.4 112.541 143.505C114.183 143.126 120.204 141.926 121.477 141.684L121.467 141.726ZM112.194 143.568C112.604 145.673 112.909 146.778 113.352 148.336C112.646 148.494 106.889 149.936 106.889 149.936C106.678 149.936 106.763 150.262 106.973 150.22C106.973 150.22 113.215 149.062 113.53 148.989C113.53 148.989 113.983 150.799 115.278 154.346L108.489 155.862C107.518 152.19 106.298 148.589 104.836 145.084L112.194 143.568ZM102.668 156.904C101.068 155.704 97.4056 146.863 98.5107 146.378C98.5107 146.378 100.921 145.852 104.542 145.094C105.444 148.783 106.648 152.391 108.141 155.883C102.605 157.125 102.847 156.999 102.679 156.862L102.668 156.904ZM110.036 162.503C108.257 162.503 107.194 158.662 106.878 156.914C106.878 156.714 106.321 156.914 111.825 155.767C112.099 155.714 111.667 155.641 112.983 158.377C113.361 159.237 113.826 160.056 114.373 160.819C112.988 161.482 111.552 162.031 110.078 162.461L110.036 162.503ZM119.846 167.008C117.706 165.509 115.65 163.892 113.688 162.167C115.499 161.419 117.551 160.461 119.319 159.619C120.704 161.229 122.272 162.67 123.993 163.914C123.277 164.524 120.846 166.777 119.888 166.966L119.846 167.008ZM124.298 163.598C122.908 162.046 121.351 160.652 119.656 159.44L126.266 156.188C127.187 157.133 128.253 157.926 129.424 158.535C127.769 160.248 126.073 161.922 124.34 163.556L124.298 163.598ZM129.782 158.199C128.904 157.302 127.905 156.533 126.814 155.914C131.339 153.63 133.939 152.241 138.16 149.904C136.286 151.557 131.529 156.42 129.824 158.156L129.782 158.199ZM139.823 148.305C139.37 148.631 133.171 150.147 132.634 150.273C131.964 146.829 130.981 143.454 129.697 140.19C131.739 139.842 135.781 139.137 137.286 139.305C137.49 139.545 137.666 139.806 137.813 140.084C137.094 140.572 136.5 141.221 136.076 141.979C135.971 142.242 136.244 142.379 136.381 142.253C136.908 141.695 137.523 141.23 138.202 140.874C138.68 141.861 139.094 142.876 139.444 143.916C138.509 144.555 137.666 145.32 136.939 146.189C136.802 146.357 136.844 146.484 136.939 146.536C137.192 146.684 137.213 146.305 139.697 144.831C139.948 145.683 140.089 146.564 140.118 147.452C140.065 147.642 140.033 148.126 139.865 148.263L139.823 148.305ZM142.444 145.484C141.974 146.022 141.382 146.441 140.718 146.705C140.621 145.954 140.469 145.212 140.265 144.484C140.949 144.137 142.012 143.694 142.37 144.337C142.505 144.484 142.589 144.671 142.61 144.87C142.63 145.069 142.587 145.269 142.486 145.442L142.444 145.484Z" fill="black"/>
</svg>
