<svg width="200" height="200" viewBox="0 0 200 200" fill="none" xmlns="http://www.w3.org/2000/svg">
<path d="M72.9533 178.004C51.0603 179.12 14.8843 181.793 14.8073 183.47C14.7313 185.118 20.9573 182.421 63.0093 179.918C65.7743 179.753 68.5823 179.607 71.4163 179.475C71.8343 179.056 72.3343 178.58 72.9533 178.004Z" fill="black"/>
<path d="M120.884 177.146C121.164 177.487 121.454 177.845 121.767 178.244C121.832 178.327 121.886 178.401 121.95 178.483C154.739 178.519 181.575 179.588 182.201 179.294C185.717 177.642 151.228 177.113 120.884 177.147V177.146Z" fill="black"/>
<path d="M165.016 49.4829C164.835 49.4669 164.602 49.4429 164.34 49.4149C164.593 52.6899 164.799 56.4779 164.984 60.2179C164.772 73.1139 166.545 130.258 162.59 130.835C151.853 132.403 113.48 134.022 108.696 134.283C87.2594 135.452 46.6564 135.558 25.0094 133.701C18.3114 133.126 19.0124 133.518 18.8554 129.338C16.1164 56.4989 19.7964 43.0529 19.8154 42.0249C19.8374 40.8179 20.1204 38.3649 20.5604 37.2129C20.7334 36.7599 20.9984 36.3999 21.5704 36.3229C23.0474 36.1249 21.5374 35.7189 33.6864 34.7679C60.8214 32.6409 102.964 30.1829 135.968 32.2469C135.308 29.4179 135.241 26.4589 135.762 23.5649C94.7034 21.3879 26.1534 23.5089 15.1944 29.5369C13.1194 30.6779 12.6654 32.2739 12.0234 34.0439C6.68944 48.7629 8.81344 135.031 12.1284 149.53C12.8764 152.803 13.2944 154.569 15.1844 155.948C17.4694 157.616 24.0604 158.469 25.3094 158.52C26.1844 158.555 29.2544 159.212 32.9484 159.689C35.9244 160.073 40.7974 160.316 40.9354 160.334C50.1754 161.478 61.1554 161.526 78.3954 161.761C78.9064 161.768 78.8544 161.707 78.6744 164.097C77.9924 173.137 78.5974 173.285 77.5024 173.84C70.1544 180.545 70.9854 179.688 67.5254 184.18C66.5254 185.479 65.2554 187.367 65.3394 188.868C65.3864 189.704 65.4724 192.412 65.8174 193.122C67.1484 195.859 91.2104 194.865 94.6194 194.634C101.991 194.134 119.234 194.054 125.671 192.59C126.28 192.451 126.644 192.103 126.848 191.528C127.221 190.48 127.546 187.287 127.03 186.302C126.037 184.403 124.652 181.928 121.766 178.244C114.631 169.139 116.161 175.766 115.17 168.471C114.14 160.884 114.207 161.28 114.559 161.287C114.333 161.294 150.015 159.632 164.171 156.223C166.567 155.646 168.842 155.053 170.157 152.556C175.127 143.117 175.751 76.4309 173.91 48.4269C171.638 49.0419 171.208 49.0559 165.014 49.4829H165.016ZM115.883 178.776C116.172 179.586 116.368 179.607 116.683 179.58C117.533 179.508 116.826 177.787 116.05 173.978C119.503 176.994 123.261 182.601 125.541 185.859C126.375 187.051 124.153 186.898 110.275 187.765C110.083 187.777 73.6364 189.467 68.0234 188.713C65.5604 188.382 65.4554 188.829 71.4354 181.262C73.1534 179.087 77.1054 175.482 77.9204 174.953C78.3004 174.707 77.9384 175.355 77.7334 179.773C77.7054 180.385 78.2384 180.895 78.3994 180.482C79.6734 177.212 80.1864 165.261 80.0224 165.261C80.0224 161.738 79.8964 161.765 80.3254 161.764C95.2634 161.727 81.3224 162.312 106.326 161.614C112.562 161.44 110.413 161.567 112.562 161.399C112.855 161.376 112.76 161.564 112.874 162.742C113.53 169.52 115.228 176.933 115.884 178.775L115.883 178.776ZM169.242 151.263C168.116 154.146 166.236 154.54 157.868 156.281C152.673 157.362 120.488 159.607 120.464 159.609C117.235 159.894 91.9724 160.56 91.9714 160.524C46.9884 160.524 38.0364 158.533 28.7754 157.447C18.2954 156.218 15.2724 156.281 14.0544 151.592C13.4754 149.362 12.5244 145.588 12.4714 143.285C12.4434 142.022 12.1974 141.545 12.5774 141.698C17.0494 143.492 81.9684 143.992 111.602 142.959C126.977 142.423 123.342 142.17 136.314 141.628C163.464 140.493 167.915 138.81 171.343 138.804C171.428 142.172 170.272 148.622 169.24 151.264L169.242 151.263Z" fill="#2596BE"/>
<path d="M117.916 61.9781C117.486 57.4971 115.923 49.4441 110.296 45.2771C110.642 44.5501 110.347 43.6691 109.628 43.2991C107.083 41.9911 98.1085 37.8871 89.5445 39.9831C81.4515 41.9631 76.0755 46.8291 74.1395 48.8291C73.5375 49.4521 73.5865 50.4491 74.2395 51.0111C74.3305 51.0891 74.4265 51.1711 74.5245 51.2551C71.9615 55.6631 71.4855 61.2451 73.0065 68.7881C73.1085 69.2931 73.1405 69.4581 73.3335 69.5591C73.5535 69.6751 73.8015 69.5441 74.1275 69.4021C74.5795 69.2061 74.5605 69.0241 74.4365 68.5271C73.2505 63.7451 73.2795 56.4581 75.6665 52.2081C76.3955 52.7961 77.2425 52.6611 77.7535 52.1271C79.4125 50.3931 84.0595 46.2261 91.3545 44.9691C98.6825 43.7071 105.149 46.2521 107.588 47.4041C108.332 47.7541 109.201 47.4551 109.569 46.7221L109.589 46.6821C113.707 50.0691 116.204 56.8061 116.257 61.5911C116.267 62.4021 116.723 62.3351 117.687 62.2501C117.824 62.2381 117.927 62.1161 117.914 61.9771L117.916 61.9781ZM108.017 46.5011C105.492 45.3081 98.7985 42.6741 91.1865 43.9851C83.5985 45.2921 78.7605 49.6321 77.0325 51.4371C76.8545 51.6231 76.5595 51.6431 76.3595 51.4811C75.9065 51.1171 75.3415 50.6381 74.8925 50.2521C74.6735 50.0641 74.6575 49.7311 74.8595 49.5231C79.7835 44.4361 87.5425 40.3941 94.6225 40.3941C101.18 40.3941 107.188 43.1681 109.172 44.1871C109.415 44.3121 109.513 44.6121 109.39 44.8551L108.679 46.2721C108.556 46.5161 108.267 46.6161 108.018 46.4991L108.017 46.5011Z" fill="black"/>
<path d="M48.3934 93.731C48.2444 94.471 47.6974 94.361 47.5314 93.838C46.7804 91.474 47.1144 90.604 44.9494 88.992C44.7164 88.819 43.6164 87.982 43.4834 87.689C43.3164 87.322 43.7204 86.956 44.0214 87.096C46.9904 88.483 49.0384 90.517 48.3934 93.731Z" fill="black"/>
<path d="M111.256 67.3438C111.011 72.5258 111.044 73.0438 106.278 74.1468C100.563 75.4688 100.924 74.6858 99.8174 71.8798C98.8354 69.3888 99.2204 68.6758 98.6474 68.4578C98.2384 68.3028 98.3134 67.9108 97.1404 67.8118C94.7274 67.6088 94.0864 68.2518 92.5944 69.6418C92.4214 69.8028 92.4954 70.9098 92.5104 71.0548C92.7144 73.0348 92.5584 73.8998 92.4854 75.0628C92.3664 76.9468 90.2934 77.3278 88.2864 77.5428C84.6024 77.9378 83.0144 78.9588 81.4544 74.6058C80.8964 73.0498 79.3164 68.9418 80.7434 68.1088C82.7894 66.9148 88.7864 65.5888 89.0294 65.5498C93.2754 64.8788 91.7874 68.0268 92.6044 67.3568C95.8114 64.7288 97.7414 66.4488 98.1264 66.2438C98.3254 66.1378 97.6444 64.3408 99.5154 63.6308C100.617 63.2128 101.276 63.0698 105.93 62.3898C111.172 61.6238 111.028 62.4678 111.256 67.3438ZM109.57 67.2758C109.402 63.1428 109.928 63.6428 106.71 63.9468C106.686 63.9488 101.08 64.6968 100.319 65.0008C99.7934 65.2108 99.9194 65.5578 100.196 66.6568C101.002 69.8518 101.7 73.2788 102.889 73.0598C107.79 72.1578 107.414 72.1108 108.44 71.7858C109.331 71.5028 109.25 70.7638 109.57 67.2758ZM90.7874 71.9768C90.7524 70.6218 90.9584 71.0728 90.4324 67.4088C90.3494 66.8288 89.8734 66.6618 82.2404 69.0028C81.6524 69.1828 81.4134 69.2458 81.6784 70.1468C83.4824 76.2758 83.8174 76.6408 86.1124 76.1668C91.1204 75.1308 90.9044 76.5108 90.7874 71.9768Z" fill="black"/>
<path d="M102.328 90.113C101.363 91.976 99.2494 92.385 98.5104 91.926C97.9864 91.6 98.4184 91.267 99.0134 91.166C101.619 90.724 102.278 87.553 102.068 84.918C101.368 85.504 99.5014 87.853 96.1414 87.282C95.6234 87.194 95.0894 86.292 96.6504 86.337C98.4054 86.388 100.288 85.448 101.124 83.841C101.582 82.96 101.603 82.463 102.282 82.365C103.996 82.117 103.614 87.629 102.328 90.113Z" fill="black"/>
<path d="M95.6246 70.4448C96.4056 70.5958 95.4996 71.8948 95.3916 75.6868C95.3676 76.5438 95.4946 77.4018 95.7516 78.2158C96.7466 81.3688 100.477 77.8508 101.621 78.0378C103.765 78.3878 95.7846 84.4278 94.2116 78.5468C93.6516 76.4538 94.6896 70.2648 95.6256 70.4458L95.6246 70.4448Z" fill="black"/>
<path d="M104.171 57.7979C104.536 58.4899 103.65 58.8499 103.115 58.7029C101.722 58.3189 100.442 58.0149 99.1822 58.2069C98.6352 58.2899 98.0212 57.7229 98.4602 57.1569C99.3122 56.0579 103.522 56.5679 104.171 57.7979Z" fill="black"/>
<path d="M86.5536 58.7418C87.5576 58.6858 87.6856 59.4108 87.0876 59.8698C86.0676 60.6528 85.4256 60.5328 83.9636 62.1348C83.5956 62.5388 83.2946 62.8778 82.8156 62.5918C81.4936 61.8018 84.3246 58.8658 86.5536 58.7418Z" fill="black"/>
<path d="M105.022 68.6708C105.011 67.4348 103.752 66.9848 103.094 67.9588C102.669 68.5828 103.034 69.9088 103.991 69.9088C104.584 69.9088 105.104 69.3508 105.022 68.6708Z" fill="black"/>
<path d="M86.8734 70.8162C86.6664 71.2962 86.8334 72.1782 87.1924 72.5002C87.5974 72.8642 88.2824 72.8452 88.5564 72.3212C89.4604 70.5962 87.4384 69.4942 86.8734 70.8162Z" fill="black"/>
<path d="M155.405 121.926L154.66 122.9C158.994 126.544 160.713 128.843 161.443 128.44C162.321 127.956 158.675 124.653 155.405 121.926Z" fill="black"/>
<path d="M142.241 112.77C128.313 105.244 115.11 103.828 114.737 100.44C114.734 100.415 114.362 98.521 114.29 97.249C114.125 94.317 114.477 94.374 115.133 88.752C115.154 88.574 115.777 83.291 115.892 83.154C115.899 83.146 117.6 82.767 117.958 82.674C118.649 82.495 119.315 82.219 120.047 82.206C120.235 82.202 120.427 82.093 120.605 82.008C124.66 80.076 124.185 78.506 124.022 73.444C124.022 73.42 123.566 69.034 123.463 68.583C123.068 66.863 122.739 65.209 121.71 63.94C120.361 62.275 119.485 61.944 118.61 61.757C117.88 61.601 115.758 61.293 115.038 61.488C113.727 61.843 115.191 58.059 111.175 52.716C106.89 47.015 100.919 46.786 96.7788 46.257C96.5288 46.225 96.2668 46.316 96.0088 46.327C95.5518 46.348 95.3098 46.04 95.2588 45.773C94.4088 41.279 94.8458 41.234 94.6918 39.323C94.6278 38.528 93.8458 38.612 93.2668 39.161C91.3848 40.946 91.6288 40.827 90.5438 42.597C89.9628 43.545 89.9848 43.205 90.0488 38.562C90.0618 37.627 89.3238 37.436 88.8388 37.846C88.2437 38.349 87.6058 38.805 87.0408 39.339C85.8478 40.465 84.3078 42.327 84.0598 44.336C83.9148 45.514 83.6228 47.13 84.2038 48.837C84.5048 49.721 84.3248 48.986 81.7348 50.892C80.0928 52.101 78.1838 54.481 77.9248 54.855C72.3748 62.857 76.6608 67.362 75.5818 67.732C73.8058 68.342 73.0767 68.603 72.0888 69.107C69.0098 70.676 68.7578 74.728 69.5028 78.156C70.0798 80.811 70.8688 84.495 72.0108 86.72C74.3078 91.196 81.1528 87.741 81.7668 88.981C83.4768 92.433 84.7318 94.413 87.8108 96.729C88.2548 97.063 88.6438 97.479 89.1867 97.676C89.3378 97.731 89.3428 97.856 89.2858 98.022C87.8538 102.202 88.6688 101.925 87.6198 102.107C78.0648 103.768 58.9888 109.806 52.4118 113.92C48.2888 116.5 48.3608 116.559 48.3948 116.256C48.6038 114.428 49.9398 106.755 51.0368 103.476C51.0848 103.332 52.4758 99.247 52.9038 98.85C57.8108 94.295 57.4038 95.395 60.3888 87.735C61.8178 84.068 62.2078 83.585 62.1288 82.714C62.0188 81.5 60.6638 81.733 59.8338 82.624C57.9218 84.676 57.6178 86.018 56.7798 87.356C56.5768 87.68 56.3538 87.658 55.6468 87.761C55.2318 87.822 55.4488 87.42 55.3448 86.76C54.5058 81.425 56.9028 79.614 58.3488 72.609C58.5618 71.58 57.1288 70.104 55.8058 72.047C52.4528 76.969 51.5358 82.358 50.8468 81.609C50.7718 81.527 50.6938 81.411 50.6908 81.308C50.6568 79.991 51.0658 76.383 51.0708 76.358C51.2388 75.585 51.5078 70.066 50.9218 69.076C50.2128 67.876 48.9898 68.344 48.5588 69.571C46.8458 74.452 47.4238 73.359 46.3558 79.732C46.3158 79.971 46.2398 80.029 45.9398 80.064C45.7388 80.087 45.5748 80.059 45.5208 79.833C44.0848 73.895 44.9188 71.801 43.3468 70.632C42.6978 70.15 41.7628 70.32 41.5148 71.124C40.6498 73.926 41.2638 75.803 41.6418 79.895C41.8088 81.707 41.8028 81.691 41.5968 81.79C41.1278 82.015 41.1378 81.691 37.4008 75.797C36.4978 74.373 35.4338 74.54 35.0788 75.333C34.3878 76.872 37.1818 82.559 38.1048 83.831C38.6278 84.552 38.5468 84.99 38.7658 87.369C39.4248 94.554 42.1518 96.477 41.8758 97.098C41.6588 97.586 41.5798 98.127 41.2558 98.576C38.1658 102.855 39.4018 101.971 33.0268 107.989C30.3118 110.552 24.2588 115.713 21.6368 120.359C21.3048 120.946 21.7548 121.315 22.3038 120.897C22.3658 120.85 23.4578 119.765 23.9058 119.265C34.3728 107.587 38.0298 107.5 42.9148 97.541C43.3408 96.672 42.9608 95.901 42.4078 95.098C40.4818 92.302 40.3618 89.254 40.1888 88.057C39.5368 83.549 38.1768 82.354 35.9678 76.602C35.6858 75.867 36.1288 75.518 36.3098 75.73C37.0478 76.601 36.4128 75.667 38.6758 79.398C41.0028 83.234 40.8348 83.255 42.3868 82.536C43.7788 81.891 41.4558 74.477 42.3458 71.456C42.4498 71.105 42.5438 71.08 42.8468 71.259C44.0898 71.992 43.8158 78.01 44.7228 80.559C44.8828 81.009 45.3538 81.129 45.8158 81.09C46.1268 81.064 46.4288 80.929 46.7328 80.835C46.9568 80.766 47.1138 80.617 47.1818 80.39C47.8478 78.164 48.6648 69.289 49.8278 69.715C50.9938 70.142 50.1558 74.425 49.7148 79.644C49.4898 82.31 49.4048 82.389 51.3438 82.727C51.9928 82.84 52.2168 81.104 56.1248 73.3C56.5638 72.423 57.2128 72.11 57.2058 73.092C57.1928 74.919 53.8698 80.877 53.9508 85.125C53.9528 85.253 53.9398 85.128 54.3958 87.773C54.5108 88.437 54.1548 87.711 51.4308 90.003C50.1188 91.107 50.1718 92.079 50.7238 91.735C51.3178 91.366 51.9268 91.015 52.4828 90.595C55.9798 87.954 56.9278 89.641 57.7758 87.938C59.0768 85.325 59.4478 84.857 60.8288 83.165C60.8768 83.106 61.0008 83.108 61.0888 83.082C61.2578 83.665 60.1488 85.777 59.4088 87.804C56.0868 96.9 52.4218 96.315 51.2978 99.57C50.1108 103.008 49.3898 104.711 47.5608 114.096C47.5548 114.124 44.0828 132.821 44.0718 133.212C44.0508 133.925 44.5908 134.125 44.9008 133.394C45.3508 132.331 46.3318 127.891 46.5198 127.039C47.5998 122.14 47.7428 118.239 48.3498 117.742C54.3378 112.838 72.1298 107.467 79.6208 105.162C80.3098 104.95 79.8908 105.349 81.1078 107.144C87.7208 116.898 93.7708 119.681 100.26 122.802C100.83 123.076 101.789 123.482 102.754 122.879C104.648 121.695 108.875 117.815 112.134 115.164C120.386 108.453 120.24 105.264 121.065 105.538C128.546 108.018 134.865 110.335 141.177 113.764L142.24 112.769L142.241 112.77ZM119.001 63.168C123.352 65.264 122.479 75.993 122.866 76.033C122.593 78.473 122.771 79.832 120.734 80.504C120.391 80.617 121.092 80.338 120.195 72.435C119.797 68.927 119.92 67.307 119.188 64.761C118.87 63.656 118.087 62.728 119.001 63.168ZM115.88 62.871C117.807 62.95 118.371 64.745 119.307 77.312C119.353 77.935 119.279 78.575 119.338 78.575C119.338 80.937 119.349 80.807 116.179 81.59C116.003 81.633 115.958 81.559 115.964 81.417C116.84 61.43 112.135 62.718 115.88 62.871ZM72.7248 85.015C71.2948 81.238 68.7648 71.815 72.3028 70.476C72.3108 70.679 72.3348 70.482 72.2018 71.229C71.6368 74.404 75.8188 87.69 75.8198 87.714C74.0418 87.654 73.4448 86.918 72.7248 85.015ZM78.7888 87.508C76.6318 87.819 76.4908 85.667 75.2568 80.56C72.7468 70.168 72.6288 69.875 76.4188 68.967C77.0448 68.817 76.8418 68.798 77.0568 70.249C78.7408 81.605 79.8928 83.248 80.9148 86.98C81.0288 87.397 80.8788 87.206 78.7888 87.508ZM119.219 105.274C113.207 112.78 109.546 116.107 101.819 121.832C101.613 121.985 101.444 122.009 101.216 121.901C90.9288 117.065 87.5868 113.717 82.4238 106.8C80.8138 104.643 80.8828 104.818 81.4148 104.685C86.0968 103.511 88.4438 103.458 88.7848 102.933C89.3328 102.092 90.0677 100.41 90.3388 99.702C90.5497 99.15 90.6508 98.555 90.7808 97.975C90.8618 97.612 90.7398 97.326 90.4268 97.091C83.1798 91.662 81.5358 85.725 78.5978 72.771C77.0568 65.974 78.4208 61.809 81.2098 58.382C82.8138 56.412 83.9648 55.31 86.0258 54.01C87.3918 53.148 87.5018 52.903 87.8748 53.007C90.4227 53.717 93.6898 52.59 95.9878 51.28C96.8708 50.777 100.065 51.257 101.044 51.529C109.003 53.739 112.34 59.228 113.893 66.384C115.702 74.718 114.708 79.85 114.188 84.432C113.376 91.578 112.342 92.598 112.737 97.827C113.114 102.819 114.145 103.032 116.451 103.919C119.281 105.008 119.583 104.819 119.218 105.273L119.219 105.274Z" fill="black"/>
<path d="M60.1063 114.805C52.3173 116.938 50.3463 126.825 56.7333 131.541C61.9553 135.397 69.7643 133.013 71.8263 127.01C74.4533 119.362 67.4973 112.781 60.1063 114.805ZM63.6883 132.153C52.3223 133.057 50.4393 118.097 60.8513 115.68C64.5063 114.831 69.0113 116.505 70.8743 120.975C72.9933 126.058 68.9933 131.731 63.6883 132.153Z" fill="black"/>
<path d="M121.223 112.885C116.569 113.553 112.759 117.857 113.124 123.071C113.769 132.29 126.31 134.923 131.156 127.054C135.196 120.495 130.239 111.591 121.223 112.885ZM124.85 130.283C118.773 131.762 113.476 126.636 114.163 121.292C114.814 116.222 119.803 112.902 124.745 113.994C133.842 116.004 133.795 128.106 124.85 130.283Z" fill="black"/>
<path d="M154.603 116.125C149.161 107.308 134.784 112.536 136.706 123.035C138.671 133.768 155.51 133.302 156 120.867C155.851 119.481 155.811 118.083 154.603 116.125ZM147.583 129.384C142.364 130.279 137.428 125.881 137.526 121.508C137.732 112.284 149.571 109.659 153.839 116.925C157.04 122.375 153.442 128.38 147.583 129.384Z" fill="black"/>
<path d="M55.2165 124.392C55.2935 125.79 55.3635 126.761 56.6885 127.231C58.0825 127.726 60.1115 127.265 60.5285 125.904C60.8655 124.805 60.2225 124.538 60.7715 124.303C61.2075 124.116 61.7505 123.816 63.1505 123.784C64.8735 123.98 65.0835 123.886 65.0865 124.538C65.0915 125.58 64.9065 126.113 65.6795 126.595C66.3865 127.036 67.6785 127.175 69.0195 126.572C70.3705 125.965 71.0925 123.099 68.9355 121.493C64.1925 117.961 55.0055 120.569 55.2175 124.391L55.2165 124.392ZM69.2935 124.472C69.1255 125.654 67.8585 125.679 66.7435 125.62C65.4135 125.55 68.0445 122.707 63.1255 122.627C62.1015 122.61 60.1905 122.935 59.6005 123.88C59.3755 124.24 59.4365 124.934 59.4545 125.342C59.4955 126.299 57.9165 126.337 57.0095 126.031C56.2675 125.781 55.7435 124.548 56.7355 122.886C56.8125 122.757 58.0915 121.753 58.8905 121.533C60.6965 121.037 62.2985 120.739 65.1645 120.978C67.2365 121.151 69.5835 122.428 69.2935 124.472Z" fill="black"/>
<path d="M126.867 120.721C126.43 120.559 126.087 121.172 126.105 121.501C126.214 123.496 126.264 122.868 126.032 124.038C125.674 125.846 122.976 125.273 122.297 125.435C121.61 125.599 121.001 125.392 120.381 125.173C118.919 124.657 119.442 121.197 118.869 120.984C118.474 120.838 118.064 121.149 118.077 121.603C118.084 121.86 118.139 122.116 118.169 122.372C118.444 124.772 118.278 126.461 121.722 126.675C122.121 126.7 122.124 126.655 122.139 127.017C122.157 127.46 122.245 127.692 121.92 127.691C121.05 127.688 120.504 127.627 119.799 127.91C119.489 128.034 119.423 128.575 119.831 128.685C120.314 128.815 120.2 128.787 122.819 128.787C122.819 128.669 125.433 129.009 126.016 128.566C126.524 128.18 126 127.661 125.489 127.669C124.593 127.684 123.739 127.705 123.731 127.587C123.666 126.596 123.729 126.629 123.92 126.585C126.475 126 127.497 125.634 127.217 121.167C127.203 120.936 127.055 120.789 126.869 120.72L126.867 120.721Z" fill="black"/>
<path d="M121.641 124.512C126.469 126.04 124.82 120.299 125.181 120.298C125.181 117.988 125.239 117.839 124.924 116.791C124.543 115.524 122.639 115.164 121.65 115.686C120.346 116.374 120.4 117.247 120.373 120.896C120.36 122.687 120.313 124.092 121.642 124.513L121.641 124.512ZM122.358 116.52C124.026 116.258 123.985 117.21 124.22 119.731C124.018 123.345 124.222 123.55 122.872 123.588C120.954 123.642 121.749 122.665 121.433 119.317C121.334 118.271 121.32 116.683 122.358 116.52Z" fill="black"/>
<path d="M152.734 118.507C152.176 117.974 151.709 118.524 150.227 119.65C149.742 120.018 150.147 118.704 149.016 118.303C148.843 118.241 148.949 118.145 148.984 118.072C149.252 117.505 149.413 116.946 149.261 116.291C148.51 113.049 143.892 114.908 145.255 117.901C145.368 118.15 145.359 118.154 145.116 118.184C144.499 118.26 144.491 118.257 144.679 117.677C145.039 116.564 144.49 115.297 143.158 114.938C141.895 114.598 140.566 115.729 140.54 117.137C140.518 118.364 141.386 118.487 140.831 118.704C140.396 118.874 140.056 119.086 139.968 119.541C139.689 120.972 139.901 124.043 140.11 124.596C140.29 125.07 140.597 125.458 141.124 125.508C142.074 125.599 143.025 125.748 143.987 125.55C144.418 125.461 149.599 126.021 149.846 124.809C150.146 123.336 150.065 123.426 150.379 123.591C153.437 125.198 153.085 125.248 153.085 121.838C153.109 121.838 153.21 118.962 152.734 118.507ZM147.179 115.407C147.789 115.401 148.386 116.021 148.39 116.665C148.394 117.29 147.818 117.921 147.233 117.884C145.256 117.758 145.917 115.42 147.179 115.407ZM143.768 117.001C143.788 118.279 141.511 118.568 141.51 116.975C141.51 115.444 143.741 115.31 143.768 117.001ZM148.887 123.105C148.867 124.203 148.974 124.207 148.149 124.372C147.88 124.426 142.711 124.519 141.626 124.429C140.978 124.375 140.984 123.396 140.934 122.139C140.846 119.921 140.822 119.723 141.493 119.498C142.444 119.179 145.719 119.231 145.719 119.255C148.917 119.255 148.655 119.137 148.833 119.776C149.124 120.823 148.926 120.977 148.887 123.104V123.105ZM152.126 122.151C152.126 123.637 152.38 123.565 150.548 122.569C150.09 122.32 150.023 122.1 150.038 121.561C150.051 121.112 150.205 120.823 150.586 120.591C151.478 120.048 151.953 119.307 152 120.007C152.144 122.149 152.165 122.148 152.126 122.151Z" fill="black"/>
<path d="M182.758 10.585C175.745 5.328 162.827 3.941 154.294 5.76C131.496 10.622 128.937 37.591 146.266 46.375C148.112 47.311 148.199 47.181 148.078 47.503C147.479 49.104 144.58 55.669 143.382 57.182C141.243 59.884 152.198 58.036 158.857 50.133C159.507 49.361 163.281 49.914 164.58 50.026C171.357 49.559 171.226 49.589 174.168 48.781C191.833 43.931 197.555 21.676 182.757 10.584L182.758 10.585ZM174.194 46.725C169.879 47.866 171.547 47.7 166.443 48.242C159.675 48.961 159.627 47.73 158.302 48.981C155.2 51.908 154.151 52.716 149.954 54.958C148.566 55.7 146.06 56.644 145.272 56.652C145.53 56.009 146.108 55.808 148.397 50.356C150.284 45.862 149.73 46.738 146.897 44.882C143.311 42.532 140.349 40.401 138.21 35.582C134.066 26.249 137.071 9.04 159.574 7.224C160.79 7.126 162.009 7.079 163.227 7.009C163.236 7.261 166.097 6.877 169.543 7.611C171.424 8.011 170.495 7.585 172.589 8.159C175.193 8.873 178.777 9.706 182.401 12.746C195.255 23.531 189.684 42.63 174.195 46.726L174.194 46.725Z" fill="#2596BE"/>
<path d="M162.546 26.2549C160.837 26.2479 159.786 27.8909 159.8 29.1099C159.839 32.6989 165.225 32.8879 165.322 28.9279C165.361 27.3299 164.118 26.2609 162.547 26.2549H162.546Z" fill="#2596BE"/>
<path d="M151.903 26.0991C150.381 26.0181 149.091 27.6461 149.072 28.9521C149.051 30.3811 150.325 31.7311 151.757 31.6671C155.084 31.8931 155.935 26.3141 151.904 26.0991H151.903Z" fill="#2596BE"/>
<path d="M172.857 25.9671C171.384 25.8331 170.137 27.4951 170.138 28.8211C170.14 30.2661 171.439 31.5251 172.86 31.5291C176.356 31.5371 176.849 25.9011 172.856 25.9681L172.857 25.9671Z" fill="#2596BE"/>
</svg>
