<svg width="154" height="154" viewBox="0 0 154 154" fill="none" xmlns="http://www.w3.org/2000/svg">
<g clip-path="url(#clip0_589_2742)">
<path d="M34.8722 76.4141C33.3575 63.7568 34.039 51.0467 36.8085 38.5335C37.211 36.716 38.8767 38.3695 50.6195 35.7394C51.5179 35.5386 52.4086 35.3286 53.2909 35.1116C53.6864 34.3796 54.1249 33.6506 54.6124 32.9331C44.3874 35.3608 36.3632 36.1856 36.0772 36.4347C35.5698 36.8762 35.4119 37.0633 35.057 38.5841C31.6397 53.2329 31.5508 68.7532 34.2958 83.6297C34.4315 81.2633 34.6239 78.8326 34.8715 76.4134L34.8722 76.4141Z" fill="black"/>
<path d="M149.438 46.1318C147.43 44.2093 144.044 42.148 142.606 41.6367C140.604 40.9238 122.821 39.219 97.6463 24.2215C88.2392 18.618 89.4113 17.6276 85.9127 20.1304C84.6878 21.0066 83.4053 21.8367 82.0784 22.6225C82.6564 22.7106 83.2298 22.8133 83.7993 22.9314C88.4032 20.0798 87.7003 19.4896 88.7842 20.3021C99.752 28.5272 119.35 38.2624 138.349 42.1296C140.399 42.5466 141.55 41.9633 141.228 43.8843C140.749 46.7305 139.624 63.9518 131.374 83.994C120.583 110.208 98.3086 134.3 77.2285 145.472C75.6287 146.32 74.0159 147.483 71.832 145.778C66.8463 141.884 63.3225 138.823 58.7178 133.334C50.7143 123.795 48.0712 119.154 44.5535 110.849C43.9947 110.635 43.4014 110.407 42.7284 110.155C42.6502 110.126 42.5727 110.097 42.4961 110.067C47.9079 122.137 55.3419 132.944 64.4463 141.404C66.148 142.985 78.0364 153.302 80.4066 152.612C87.524 150.541 107.543 137.19 121.455 119.981C146.584 88.8945 150.853 47.4878 149.437 46.1333L149.438 46.1318ZM148.429 47.1743C145.103 87.3538 123.513 126.186 87.1952 147.853C79.302 152.562 79.8294 151.849 78.2158 150.65C77.8065 150.346 75.5413 148.637 75.4846 148.58C74.7962 147.887 74.5609 148.763 80.0478 145.718C98.6865 135.377 114.591 117.644 124.962 100.515C133.624 86.2085 137.514 74.2243 140.32 60.2961C144.147 41.3079 141.527 42.4401 144.232 43.9425C145.585 44.6937 146.811 45.6374 148.097 46.4905C148.441 46.719 148.439 46.7266 148.429 47.1743Z" fill="black"/>
<path d="M65.3923 49.0444C91.1315 49.7044 90.8118 52.9017 91.1261 49.8815C92.1509 40.0244 86.7346 34.4869 77.9836 33.981C73.5729 36.1564 69.0908 37.8022 64.8909 39.057C63.7786 40.5825 62.9424 42.4291 62.3292 44.5716C61.8823 46.1338 61.7519 47.2745 61.7549 48.6704C61.7557 49.1724 61.7221 48.9501 65.3923 49.0444Z" fill="#2596BE"/>
<path d="M48.5371 49.5967C49.693 49.5753 49.3205 49.0034 49.3742 48.7275C49.5827 47.6551 49.8134 45.2427 50.5577 42.2915C46.7242 42.9139 44.2429 43.1554 43.9738 43.3562C43.6749 43.5785 43.4142 43.853 43.3337 44.2516C42.8278 46.7413 42.4154 49.1851 42.0889 51.5813C43.9853 50.4077 46.6192 49.6328 48.5371 49.5967Z" fill="#2596BE"/>
<path d="M130.625 48.0021C129.651 47.664 118.134 46.157 103.143 38.7038C102.943 38.6049 102.746 38.506 102.552 38.4087C102.82 39.2603 103.039 40.1442 103.203 41.0594C104.801 49.9276 102.011 52.8582 103.326 53.2177C109.834 54.9999 112.988 56.1735 114.18 63.504C115.58 72.1239 112.272 94.2902 109.227 106.481C119.098 92.5118 128.847 68.9871 131.442 49.3773C131.455 48.3953 131.356 48.255 130.626 48.0021H130.625Z" fill="#2596BE"/>
<path d="M90.9456 117.623C81.8773 117.623 74.809 118.371 54.2969 113.712C63.4709 128.862 74.336 136.641 75.9442 136.15C79.9104 134.94 85.4249 130.539 87.7024 128.808C93.6661 124.276 97.459 120.738 101.017 116.735C97.7894 117.422 93.9835 117.454 90.9456 117.623Z" fill="#2596BE"/>
<path d="M114.179 63.504C112.988 56.1735 109.834 54.9999 103.326 53.2176C102.011 52.8574 104.801 49.9276 103.203 41.0594C100.175 24.2451 79.106 18.1924 64.0816 24.9818C50.7828 30.9915 49.9817 45.5912 49.3731 48.728C49.3194 49.0039 49.692 49.575 48.536 49.5965C45.6515 49.6509 41.1465 51.3756 39.9698 53.6139C34.6201 63.7922 32.6247 95.4032 35.1291 103.028C35.8351 105.177 35.4955 107.449 42.7279 110.155C46.4203 111.536 47.7219 112.212 53.9739 113.639C74.7359 118.38 81.8304 117.623 90.9462 117.623C96.8087 117.298 105.534 117.48 107.441 112.486C110.73 103.874 115.864 73.8777 114.179 63.5047L114.179 63.504ZM51.0618 49.1641C51.1078 47.0546 52.7827 39.6213 55.1835 35.4628C57.6672 31.1602 60.1508 29.0613 63.519 27.1572C67.7235 24.7809 75.5301 23.8549 76.4614 23.8365C81.8349 23.73 87.092 25.3382 91.2451 27.5405C97.2379 30.7179 99.7162 34.4801 100.931 39.291C102.028 43.635 101.994 48.8222 101.402 52.0594C101.178 53.282 101.358 52.6887 93.0434 51.4929C92.7491 51.4507 92.6778 51.3756 92.7223 51.0437C95.7393 28.5317 68.2977 27.7007 61.9376 40.8118C60.1378 44.5219 60.2259 48.8958 60.2228 48.9165C60.1469 49.345 56.6852 49.0338 56.6852 49.1511C50.8242 49.1511 51.0549 49.5022 51.0618 49.1641ZM91.1263 49.8816C90.812 52.9018 91.1317 49.7045 65.3925 49.0445C61.7222 48.9502 61.7552 49.1733 61.7544 48.6705C61.7521 47.2746 61.8817 46.1332 62.3286 44.5717C64.3223 37.6022 68.6825 33.7557 77.1858 33.9489C86.4036 34.1581 92.1811 39.7287 91.1255 49.8808L91.1263 49.8816ZM107.353 106.464C105.864 112.984 105.946 113.59 99.9324 114.963C96.6492 115.713 81.7414 116.073 78.4016 115.649C75.9609 115.338 75.8367 116.58 58.6031 112.996C33.0808 107.69 37.6763 105.594 35.8749 97.0582C34.8362 73.9919 39.6371 56.7875 41.0691 54.8197C42.2342 53.2192 43.2131 53.0099 44.1743 52.3208C44.4764 52.1046 44.3522 52.2433 45.8876 51.7336C46.996 51.3656 48.7231 51.3089 48.7415 51.3089C64.5569 50.0096 77.8696 51.3411 93.5923 53.4813C101.365 54.5392 110.554 55.2889 111.978 61.2649C114.339 71.1718 109.503 97.0589 107.354 106.463L107.353 106.464Z" fill="black"/>
<path d="M62.9743 68.6815C60.5689 73.1152 61.3653 79.0184 65.7676 82.8611C65.9539 83.0236 66.0267 83.2053 65.9922 83.4406C65.6503 85.7962 65.1122 91.3438 65.1252 94.2766C65.1475 99.1764 65.3537 101.885 69.4976 103.635C72.4312 104.875 75.4913 103.727 76.7208 99.9145C77.2352 98.3186 77.2681 97.1435 77.8783 91.6113C78.6426 84.687 78.0447 84.9024 78.7376 84.6019C82.0468 83.167 85.2541 79.0491 85.1728 74.1792C85.6435 63.2014 68.7794 57.9812 62.9735 68.6807L62.9743 68.6815ZM69.687 88.0154C68.2052 102.006 70.3017 103.456 67.9323 101.562C66.3226 100.275 66.2528 97.2063 66.2774 94.9642C66.377 85.879 68.0488 83.2344 67.0424 82.3521C63.3537 79.1219 61.4749 73.8365 64.7113 68.6033C65.4648 67.3852 67.1972 66.0859 67.3137 65.9755C68.6138 64.7468 70.5877 64.6142 69.8295 65.452C64.8516 70.9589 66.7649 77.0453 70.3431 79.8148C71.0346 80.3499 70.5164 80.1736 69.6854 88.0146L69.687 88.0154Z" fill="#2596BE"/>
<path d="M103.571 64.2382C103.327 74.1436 99.7499 113.556 98.1164 108.955C97.7024 107.79 102.457 65.2776 102.427 63.5529C102.362 59.898 101.462 59.4726 102.002 59.1782C102.394 58.9643 102.848 59.609 102.99 59.9831C103.505 61.3429 103.608 62.7841 103.572 64.239L103.571 64.2382Z" fill="black"/>
<path d="M31.4322 134.556C30.9922 134.407 35.0649 130.212 34.9906 129.434C34.9285 128.782 34.1535 128.406 33.6284 128.872C32.914 129.509 31.5779 130.915 30.5384 131.975C30.1 132.423 30.3299 128.736 28.8137 125.903C28.4527 125.228 27.5681 125.389 27.5428 126.209C27.4914 127.878 28.3323 132.306 28.6175 133.641C27.1764 133.276 23.0347 132.136 23.0002 133.641C22.9926 133.978 23.185 134.176 23.4441 134.304C26.5486 135.834 27.3826 135.485 27.0575 135.917C25.3267 138.221 24.7771 138.825 24.4797 139.711C24.2673 140.342 24.4344 141.045 25.1312 141.051C25.8939 141.057 26.1469 140.425 27.8417 138.378C30.0854 135.667 28.8988 136.379 30.3859 140.493C30.7561 141.517 30.8489 141.774 31.3303 141.702C32.1612 141.578 31.6093 138.833 31.4361 137.335C31.3525 136.614 35.5356 138.998 36.132 137.473C36.6295 136.202 34.4003 135.564 31.4322 134.555V134.556Z" fill="black"/>
<path d="M134.73 15.7143C134.133 15.5326 136.194 14.6189 137.688 12.5431C138.119 11.9444 137.578 11.3097 136.109 12.2242C133.081 14.1084 133.043 14.8082 132.953 14.3437C132.623 12.6588 132.445 11.3687 131.916 10.4205C131.357 9.41936 129.885 9.12271 130.333 12.2978C130.886 16.2187 131.532 14.6986 128.272 14.865C126.786 14.9408 126.253 15.8362 126.705 16.4249C126.971 16.7721 127.415 16.8403 128.329 17.0351C130.111 17.4145 129.766 16.7476 126.91 19.5509C126.61 19.846 126.227 20.5045 126.63 20.956C127.334 21.7432 128.543 20.5374 131.175 18.4647C131.53 18.1849 131.236 18.457 132.104 20.9222C132.396 21.7478 132.576 22.3066 133.177 22.3104C133.683 22.3143 134.207 21.77 134.073 20.7689C133.354 15.4153 132.925 19.0403 137.643 17.4996C139.268 16.9684 136.258 16.1804 134.73 15.7143Z" fill="black"/>
<path d="M133.303 144.195C132.68 146.558 136.376 146.652 136.169 144.595C136.308 143.135 133.828 142.202 133.303 144.195Z" fill="black"/>
<path d="M49.4422 7.00466C48.3882 6.94027 45.253 8.12613 46.3729 10.4672C47.2384 12.2762 49.7527 12.7377 51.216 11.1019C52.8618 9.26215 51.1861 6.88048 49.4422 7.00466ZM49.0689 10.6235C47.4423 10.7385 47.174 8.85282 47.7428 8.65888C48.2717 8.47874 48.7799 8.20508 49.3656 8.24341C51.0351 8.35302 50.546 10.7516 49.0689 10.6235Z" fill="black"/>
</g>
<defs>
<clipPath id="clip0_589_2742">
<rect width="153.31" height="153.31" fill="white" transform="translate(0 0.0610352)"/>
</clipPath>
</defs>
</svg>
