<svg width="230" height="230" viewBox="0 0 230 230" fill="none" xmlns="http://www.w3.org/2000/svg">
<path d="M156.457 35.0637C156.451 35.0488 156.441 35.036 156.427 35.027C156.414 35.0179 156.398 35.0131 156.382 35.0131C156.366 35.0131 156.35 35.0179 156.337 35.027C156.324 35.036 156.313 35.0488 156.307 35.0637C156.307 35.7767 155.272 36.2137 155.56 37.0187C155.686 37.3637 156.158 37.6052 156.422 37.2602C156.432 37.2432 156.437 37.2243 156.438 37.2049C156.439 37.1855 156.435 37.1662 156.428 37.1484C156.42 37.1306 156.408 37.1148 156.393 37.1023C156.378 37.0898 156.361 37.0809 156.342 37.0762H156.215C155.663 37.0762 155.663 36.6852 156.284 35.9262C156.379 35.8059 156.443 35.6653 156.473 35.5155C156.503 35.3657 156.498 35.211 156.457 35.0637ZM158.895 33.9022C158.964 34.0862 159.263 34.0287 159.297 33.8447C159.297 33.4566 159.247 33.0701 159.148 32.6947C159.148 32.652 159.131 32.6111 159.101 32.5809C159.071 32.5507 159.03 32.5337 158.987 32.5337C158.944 32.5337 158.903 32.5507 158.873 32.5809C158.843 32.6111 158.826 32.652 158.826 32.6947C158.751 33.0969 158.774 33.5113 158.895 33.9022ZM153.651 33.0167C153.651 33.3732 153.651 34.0747 154.007 34.2932C154.024 34.3026 154.043 34.308 154.063 34.3089C154.082 34.3098 154.102 34.3062 154.119 34.2984C154.137 34.2906 154.153 34.2788 154.165 34.264C154.178 34.2491 154.187 34.2316 154.191 34.2127C154.135 33.8239 154.05 33.4396 153.938 33.0627C153.915 32.8442 153.651 32.8327 153.651 33.0167ZM152.547 31.6252C152.526 31.6603 152.519 31.7024 152.529 31.7423C152.538 31.7822 152.564 31.8166 152.599 31.838C152.634 31.8593 152.676 31.8659 152.716 31.8562C152.756 31.8465 152.79 31.8213 152.811 31.7862C152.984 31.5562 153.961 30.8777 154.076 30.6362C154.091 30.6181 154.101 30.5961 154.104 30.5728C154.108 30.5495 154.104 30.5257 154.095 30.5042C154.085 30.4827 154.07 30.4643 154.05 30.4511C154.031 30.4378 154.008 30.4302 153.984 30.4292C153.352 30.4177 152.8 31.1307 152.547 31.6252ZM159.01 30.1187C159.585 30.1877 159.884 30.6477 160.16 31.0847C160.179 31.1182 160.209 31.1442 160.245 31.1587C160.28 31.1732 160.32 31.1753 160.357 31.1647C160.394 31.1541 160.426 31.1314 160.449 31.1003C160.472 31.0691 160.483 31.0312 160.482 30.9927C160.482 30.2452 159.665 29.7852 158.987 29.7737C158.78 29.7622 158.791 30.0957 159.01 30.1187ZM170.51 69.0002C172.982 68.8507 175.409 68.1492 177.881 67.9307C178.077 67.9307 178.077 67.5972 177.881 67.6202C175.386 67.8405 172.915 68.2831 170.498 68.9427L170.51 69.0002ZM158.607 69.4947C158.791 69.4947 158.711 69.1842 158.527 69.2072C155.962 69.6097 153.386 70.0697 150.833 70.5527C150.764 70.5527 150.833 70.6792 150.833 70.6792C153.444 70.3227 156.043 69.9432 158.607 69.4947ZM120.68 135.045L102.349 122.28L98.8765 128.064L123.291 144.21L143.738 106.364L137.85 103.604L120.68 135.045Z" fill="#2596BE"/>
<path d="M151.719 89.7924C151.409 89.0104 151.259 89.1139 150.431 88.9414C149.063 88.6424 147.683 88.3779 146.303 88.1019C142.025 87.2394 137.827 85.8019 133.653 84.6519C129.432 83.5197 125.306 82.0586 121.313 80.2819C120.163 79.7759 119.105 79.2814 118.047 78.6834C117.415 78.3154 116.104 77.1654 115.402 77.2114C115 77.2114 115.195 77.2114 114.735 77.6024C113.873 78.4074 113.033 79.2009 112.125 79.9024C108.571 82.6707 104.789 85.1328 100.82 87.2624C94.7168 90.9626 88.3608 94.229 81.7991 97.0374C81.7535 97.0498 81.7131 97.0767 81.6841 97.114C81.6551 97.1514 81.6389 97.1971 81.6381 97.2444C81.0492 104.072 81.688 110.951 83.5241 117.553C85.2382 124.212 87.2995 130.776 89.6996 137.218C93.9776 148.914 100.36 159.781 109.802 167.958C119.657 176.502 128.202 177.997 128.282 177.917C131.74 175.285 134.908 172.293 137.735 168.993C144.286 161.686 149.39 153.202 152.777 143.992C154.842 138.254 156.138 132.268 156.63 126.19C157.274 118.14 156.124 110.193 154.732 102.224C154.176 97.9841 153.166 93.8164 151.719 89.7924ZM154.755 135.792C153.198 143.366 150.246 150.584 146.05 157.079C135.481 172.65 128.248 177.468 128.133 177.549C117.453 173.93 108.131 167.142 101.407 158.091C98.2305 153.915 95.5016 149.416 93.2646 144.67C90.7993 139.135 88.6829 133.45 86.9281 127.65C85.0186 122.114 83.5384 116.44 82.5006 110.676C81.9968 107.613 81.762 104.512 81.7991 101.407C81.7991 100.671 81.9371 97.4744 81.9256 97.4859C82.0406 97.2904 90.4931 93.6794 94.0581 91.6554C98.8996 88.8494 103.914 86.2504 108.56 83.0764C110.594 81.731 112.517 80.2234 114.31 78.5684C114.954 77.9704 115.207 77.6599 116.081 78.0164C116.69 78.2579 120.301 80.3164 121.566 80.8339C126.647 82.9759 131.883 84.729 137.229 86.0779C140.024 86.8714 142.818 87.7799 145.659 88.3779C147.458 88.6588 149.239 89.0428 150.995 89.5279C151.65 89.9419 152.961 95.1744 153.295 96.5544C153.916 99.4064 154.376 102.304 154.87 105.156C156.607 115.414 157.078 125.569 154.755 135.815V135.792ZM75.4971 42.4814C75.4798 42.5005 75.4683 42.5242 75.4637 42.5495C75.4592 42.5749 75.4619 42.6011 75.4715 42.625C75.481 42.649 75.4971 42.6698 75.5179 42.685C75.5387 42.7003 75.5634 42.7094 75.5891 42.7114C75.7995 42.6849 75.995 42.5892 76.145 42.4393C76.2949 42.2893 76.3906 42.0938 76.4171 41.8834C76.4171 41.6879 75.7156 40.8254 75.6006 40.4344C75.5935 40.4141 75.5803 40.3965 75.5628 40.384C75.5453 40.3716 75.5243 40.3649 75.5028 40.3649C75.4814 40.3649 75.4604 40.3716 75.4429 40.384C75.4254 40.3965 75.4122 40.4141 75.4051 40.4344C75.3016 40.7679 76.0836 41.7109 76.0376 41.9639C75.9916 42.2169 75.6696 42.3089 75.4971 42.4814ZM77.6131 38.7554C77.5037 39.1284 77.457 39.5171 77.4751 39.9054C77.4751 40.2389 77.9926 40.2389 78.0041 39.9054C78.0562 39.5175 78.0128 39.1227 77.8776 38.7554C77.8649 38.7313 77.8459 38.7112 77.8226 38.6971C77.7993 38.683 77.7726 38.6756 77.7453 38.6756C77.7181 38.6756 77.6914 38.683 77.6681 38.6971C77.6448 38.7112 77.6258 38.7313 77.6131 38.7554ZM72.9326 38.7209C72.8258 39.0968 72.8258 39.495 72.9326 39.8709C72.9326 40.1124 73.3926 40.0779 73.3696 39.8709C73.3466 39.6639 73.2891 39.1579 73.2431 38.8014C73.2538 38.7602 73.2476 38.7165 73.2261 38.6798C73.2045 38.6432 73.1693 38.6166 73.1281 38.6059C73.0869 38.5952 73.0432 38.6013 73.0065 38.6229C72.9699 38.6445 72.9433 38.6797 72.9326 38.7209ZM71.9551 38.3989C72.1391 38.1574 73.1051 37.3984 73.2431 37.1799C73.2666 37.1571 73.282 37.1273 73.2869 37.095C73.2918 37.0626 73.286 37.0296 73.2704 37.0009C73.2547 36.9722 73.2301 36.9494 73.2002 36.936C73.1704 36.9226 73.1369 36.9194 73.1051 36.9269C72.4916 37.1525 71.9781 37.5886 71.6561 38.1574C71.5296 38.3414 71.8171 38.5599 71.9551 38.3989ZM77.3831 37.0649C77.8011 37.2752 78.1881 37.5422 78.5331 37.8584C78.5556 37.8814 78.5845 37.8971 78.616 37.9035C78.6476 37.9099 78.6803 37.9067 78.71 37.8943C78.7397 37.882 78.7651 37.861 78.7827 37.8341C78.8004 37.8071 78.8096 37.7756 78.8091 37.7434C78.8091 37.4444 77.6591 36.7774 77.3486 36.8004C77.3204 36.8119 77.2969 36.8325 77.2816 36.8588C77.2664 36.8851 77.2602 36.9157 77.2641 36.9459C77.2681 36.9761 77.2819 37.0041 77.3034 37.0256C77.3249 37.0471 77.3529 37.0609 77.3831 37.0649ZM72.0241 44.3099H71.9206C71.9206 45.0459 73.5536 46.5409 75.7271 45.6094C75.8306 45.6094 75.7271 45.3909 75.6466 45.4254C75.0075 45.6912 74.2955 45.7252 73.634 45.5215C72.9725 45.3178 72.403 44.8892 72.0241 44.3099ZM27.9676 141.45C24.1611 141.83 20.2626 141.232 16.4676 141.703C16.4676 141.703 16.3871 141.772 16.3871 141.807C16.0861 144.943 16.1479 148.103 16.5711 151.225C16.5735 151.254 16.5829 151.281 16.5984 151.305C16.614 151.329 16.6353 151.349 16.6604 151.363C16.6855 151.376 16.7136 151.383 16.7421 151.384C16.7707 151.384 16.7989 151.377 16.8241 151.363C20.5271 151.559 24.4026 151.432 28.1171 151.26C28.2206 151.26 28.2666 151.03 28.2666 151.007C28.378 147.866 28.3165 144.722 28.0826 141.588C28.0842 141.572 28.0825 141.555 28.0775 141.539C28.0726 141.523 28.0645 141.508 28.0538 141.495C28.0432 141.483 28.03 141.472 28.0152 141.464C28.0004 141.457 27.9842 141.452 27.9676 141.45ZM16.8126 144.774C16.8126 143.808 16.8126 142.842 16.7436 141.864C20.3837 142.051 24.0316 142.024 27.6686 141.784C27.5784 142.905 27.5516 144.03 27.5881 145.153C24.0051 144.844 20.408 144.728 16.8126 144.808V144.774ZM17.0541 150.972C16.8816 149.052 16.8586 147.143 16.8356 145.222C18.5376 145.222 20.2856 145.291 21.9416 145.337C21.8033 147.145 21.9077 148.963 22.2521 150.742C20.515 150.669 18.7748 150.757 17.0541 151.007V150.972ZM22.8041 150.777C22.8041 149.753 22.5396 146.096 22.3901 145.303C24.1036 145.303 27.5766 145.59 27.5881 145.59C27.5881 147.338 27.7606 149.098 27.7951 150.823C26.1966 150.938 24.5061 150.857 22.8386 150.811L22.8041 150.777Z" fill="#2596BE"/>
<path d="M223.468 149.155C223.23 147.572 222.45 146.12 221.26 145.05C219.822 143.957 217.913 144.141 216.223 144.199C213.693 144.279 208.483 144.774 208.483 144.762C207.609 142.313 206.839 139.806 205.827 137.425C205.131 135.398 203.682 133.718 201.779 132.733C199.916 131.928 191.176 132.549 187.128 132.917C190.175 122.843 190.336 108.917 190.336 106.226C190.758 105.941 191.122 105.578 191.406 105.156C192.314 103.65 191.682 101.327 191.544 99.7051C191.153 95.3006 190.911 90.8271 190.29 86.4456C191.465 85.2503 192.492 83.9183 193.349 82.4781C196.132 77.7976 196.144 72.5881 194.856 67.4016C193.568 62.2151 189.934 58.2016 185.851 54.6826C181.796 50.9997 176.758 48.5746 171.35 47.7021C170.794 46.73 170.151 45.8101 169.429 44.9536L168.417 45.5401C168.417 43.9876 167.773 37.3406 167.773 37.3406C168.716 37.0876 170.579 34.3621 170.867 32.3611C171.004 30.4115 170.664 28.4578 169.874 26.6699C169.084 24.8821 167.87 23.3144 166.336 22.1031C162.081 18.6531 153.686 20.2746 151.834 21.6776C151.326 22.079 150.738 22.3685 150.11 22.527C149.482 22.6856 148.827 22.7096 148.189 22.5976C148.189 22.5976 149.73 24.1386 148.787 24.4261C147.844 24.7136 147.2 23.1496 147.2 23.1496C146.981 26.2776 148.235 27.0596 148.235 27.0596C152.363 31.4986 155.48 27.9451 155.48 27.9451C155.48 27.9451 155.905 26.5651 160.344 27.5656C160.916 27.6471 161.464 27.8487 161.952 28.1571C162.44 28.4654 162.858 28.8736 163.177 29.3547C163.496 29.8358 163.71 30.3791 163.805 30.9487C163.899 31.5184 163.872 32.1016 163.725 32.6601L164.289 32.8901C164.501 32.5821 164.739 32.2935 165.002 32.0276C167.509 30.2911 168.153 32.9246 168.153 32.9246C168.659 35.0636 166.025 35.6846 166.025 35.6846C166.094 38.6516 165.554 39.1346 165.554 39.1346C163.415 41.6991 161.241 38.9161 161.241 38.9161C160.761 38.3629 160.156 37.9324 159.476 37.6604C158.796 37.3883 158.06 37.2826 157.331 37.3521C154.617 37.4671 155.031 38.3296 153.881 39.1691C153.157 39.6981 152.421 39.1001 151.972 38.6056C151.972 37.6281 151.581 33.7986 151.363 32.8556V29.5091C150.557 29.2738 149.823 28.8432 149.224 28.2556C148.074 31.7056 150.523 32.7636 151.202 33.0051C151.282 34.0516 150.903 42.0211 152.352 45.0111C152.739 45.8425 153.326 46.5652 154.061 47.1149C154.795 47.6646 155.654 48.0244 156.561 48.1621C156.434 48.8406 156.308 49.9676 156.285 50.2781C153.456 50.6921 151.167 52.5091 148.971 54.2226C146.335 56.2363 143.891 58.4883 141.668 60.9501C137.664 65.2955 135.06 70.7449 134.193 76.5901L130.249 75.4401C130.306 75.1873 130.333 74.9287 130.329 74.6696C130.326 74.2068 130.183 73.7559 129.919 73.3757C129.655 72.9955 129.283 72.7038 128.85 72.5386C128.418 72.3734 127.946 72.3424 127.496 72.4497C127.046 72.557 126.638 72.7976 126.327 73.1401C126.1 73.4546 125.936 73.8099 125.844 74.1866C125.844 74.1866 119.243 71.2656 115.943 69.8511C115.242 69.3974 114.39 69.2402 113.574 69.4141C112.31 70.0901 111.19 71.0038 110.273 72.1051V72.0361C109.123 70.6216 106.593 70.7366 106.225 72.7951C106.154 73.3958 106.249 74.0046 106.501 74.5546C105.926 74.9801 105.351 75.4286 104.684 75.8656C103.074 71.8866 101.545 67.7351 98.9342 64.3656C96.7648 61.4806 94.1481 58.961 91.1832 56.9021C87.1161 54.0044 82.2139 52.5144 77.2222 52.6586L76.9232 51.9341C76.9232 51.4626 76.8312 50.9911 76.7737 50.5311C80.5112 50.8416 82.4547 45.2181 82.4547 45.2181C82.5864 46.1895 82.4879 47.1782 82.1672 48.1046C82.1672 48.1046 85.9622 42.6536 83.7197 33.6031C81.4772 24.5526 73.3697 26.4501 73.3697 26.4501C63.7442 20.8726 58.7417 30.8661 58.7417 30.8661C52.8767 45.0571 63.3417 50.9911 63.3417 50.9911C62.3297 50.2321 62.6517 48.5301 62.6517 48.5301C63.1767 49.2718 63.8639 49.8841 64.6609 50.3205C65.458 50.7569 66.344 51.0059 67.2517 51.0486C67.2517 51.4051 67.1252 51.7961 67.0907 52.1986L66.8492 53.0496C56.8327 56.5801 48.0122 63.0776 44.5737 73.4966C42.9407 78.4301 42.8372 83.5591 45.3212 88.2396C47.4082 92.0383 50.8487 94.9122 54.9582 96.2896C54.9085 96.9632 55.0144 97.6392 55.2676 98.2653C55.5209 98.8914 55.9147 99.451 56.4187 99.9006C55.6367 100.257 53.6242 101.706 52.4742 107.456C52.0027 109.825 51.1287 113.965 50.1742 118.462C45.1487 114.529 37.7657 108.526 37.6507 108.618C26.8637 117.3 5.80724 135.608 5.80724 135.631C5.78432 135.65 5.76749 135.675 5.75888 135.703C5.75028 135.732 5.75029 135.762 5.75892 135.79C5.76754 135.819 5.78439 135.844 5.80733 135.863C5.83026 135.881 5.85825 135.893 5.88774 135.896C7.62424 136.045 9.33774 136.149 11.1202 136.206C11.1202 146.89 12.0172 168.406 12.0632 168.406H8.04974C7.96933 170.21 8.03856 172.018 8.25674 173.811C16.1917 173.811 46.0802 173.604 56.7177 173.397C57.0627 178.469 57.4882 184.564 57.4882 184.564C56.7867 184.84 53.7737 186.634 52.8307 187.048C51.5657 187.6 50.5307 188.278 50.6917 189.808C50.7455 189.868 50.8124 189.915 50.8872 189.946C55.0321 190.257 59.199 190.094 63.3072 189.463C63.3983 189.433 63.4757 189.372 63.5257 189.29C63.8535 188.128 63.8535 186.898 63.5257 185.737L68.6662 164.347C69.4252 161.322 72.2197 149.259 72.9097 146.28C75.8076 146.262 78.7022 146.086 81.5807 145.751C82.7307 149.27 85.9507 162.725 87.2387 165.6C88.5267 168.475 88.6647 169.66 88.6877 169.671C91.9652 170.591 94.6792 171.753 98.6122 168.521C98.6473 168.486 98.6949 168.466 98.7445 168.466C98.7941 168.466 98.8417 168.486 98.8767 168.521C98.9118 168.556 98.9315 168.604 98.9315 168.653C98.9315 168.703 98.9118 168.75 98.8767 168.786C96.5077 171.327 91.5052 171.661 88.6532 169.752L93.6557 184.46C93.3417 185.931 93.3417 187.451 93.6557 188.922C93.6557 189.014 101.177 188.922 104.868 188.819C104.983 188.819 105.075 188.589 105.075 188.566C105.109 187.994 104.97 187.425 104.677 186.933C104.383 186.441 103.949 186.048 103.431 185.806C102.764 185.426 99.7622 183.989 98.9572 183.586V166.52C100.393 168.411 101.973 170.187 103.684 171.833C107.616 175.405 111.849 178.633 116.334 181.482C120.359 184.184 124.602 186.864 129.283 188.255C129.375 188.255 141.657 180.366 148.177 170.649V175.076C148.696 175.611 149.34 176.006 150.052 176.226C150.144 177.18 150.29 178.129 150.489 179.067C148.81 180.217 146.222 181.965 145.785 184.058C145.731 184.25 145.717 184.452 145.744 184.65C145.772 184.848 145.841 185.038 145.946 185.208C145.348 188.071 151.8 187.508 153.18 187.324C154.974 187.082 161.23 186.726 160.172 183.517C160.172 183.517 160.505 179.492 159.378 178.791C159.481 177.862 159.481 176.925 159.378 175.996C160.988 175.651 162.115 175.306 162.115 175.306L163.541 139.656C166.198 153.341 177.008 176.364 177.008 176.364C177.838 176.485 178.676 176.546 179.515 176.548C179.84 177.343 180.224 178.111 180.665 178.848C179.779 179.688 175.248 184.012 177.686 185.495C178.215 188.324 182.666 186.749 184.31 186.047C185.345 185.61 191.624 182.597 189.635 180.953C189.635 180.953 188.151 177.376 187.645 177.181C187.546 176.24 187.338 175.313 187.024 174.421C187.618 174.048 188.169 173.612 188.669 173.121C188.669 173.121 187.519 166.486 186.369 159.816C192.395 159.989 198.425 159.631 204.389 158.746C204.47 158.746 204.527 158.631 204.539 158.551C204.539 157.01 204.642 155.377 205.838 154.25C206.909 153.377 208.19 152.802 209.553 152.582C213.187 151.8 214.751 154.238 215.671 157.309C215.671 157.389 221.363 157.044 224.123 157.148C224.273 157.148 224.33 156.826 224.33 156.791C224.314 154.222 224.025 151.663 223.468 149.155ZM156.4 27.2436C154.859 28.1291 152.892 26.8066 152.421 25.3001C152.421 25.2196 152.513 25.1621 152.559 25.2426C152.927 25.9096 154.399 27.6116 156.308 26.9101C156.4 26.8526 156.526 27.1631 156.4 27.2436ZM183.85 53.5786C187.875 56.6376 192.107 60.5476 193.855 65.4006C195.603 70.2536 196.086 76.2911 193.683 81.0866C191.357 85.4212 187.684 88.8808 183.218 90.9421C178.105 93.2938 172.538 94.495 166.911 94.4611C166.881 94.4495 166.848 94.4495 166.819 94.4611C165.744 92.2785 164.481 90.1931 163.047 88.2281C169.5 84.1082 176.168 80.3347 183.022 76.9236C183.049 76.9074 183.07 76.8831 183.083 76.8542C183.095 76.8253 183.098 76.7933 183.091 76.7626C182.389 74.3955 181.923 71.9649 181.7 69.5061C181.7 69.4026 181.527 69.3911 181.527 69.5061C181.581 71.4718 181.843 73.4262 182.309 75.3366C182.539 76.3256 183.091 76.4866 182.24 76.9811C180.584 77.8436 169.786 83.5821 166.14 85.8131C165.979 83.8581 165.439 74.7731 165.462 74.7501C167.037 72.1166 173.006 61.2606 174.662 58.6501C174.675 58.6373 174.685 58.622 174.692 58.6052C174.699 58.5885 174.702 58.5705 174.702 58.5523C174.702 58.5342 174.699 58.5162 174.692 58.4994C174.685 58.4826 174.675 58.4674 174.662 58.4546C173.964 57.3184 173.126 56.2751 172.166 55.3496C173.447 54.3512 174.836 53.4987 176.306 52.8081C176.433 52.8081 176.582 52.7046 176.49 52.5666C175.549 51.0524 174.446 49.645 173.201 48.3691C177.063 49.3489 180.678 51.1231 183.816 53.5786H183.85ZM160.39 93.5296C158.217 95.4731 158.09 94.3576 158.033 94.0011C158.839 93.5723 159.586 93.0387 160.252 92.4141C160.252 92.4141 160.183 92.2301 160.126 92.2761C159.654 92.5981 157.021 94.8176 157.021 93.4951C157.877 92.4331 158.866 91.4861 159.965 90.6776C159.804 90.3671 159.229 90.6776 159.079 88.7571C159.804 89.3058 160.689 89.6008 161.598 89.5966C162.143 89.6246 162.684 89.4884 163.15 89.2056C163.57 90.0792 164.046 90.9244 164.576 91.7356C163.852 92.432 163.084 93.0811 162.276 93.6791C161.552 94.1851 159.976 95.4386 159.056 94.8291C159.587 94.4791 160.094 94.0949 160.574 93.6791C160.597 93.6101 160.425 93.4721 160.356 93.5296H160.39ZM172.902 48.3001C173.328 49.0016 175.639 51.8536 176.226 52.6586C174.636 53.1751 173.208 54.0989 172.086 55.3381L174.501 58.5006C171.442 63.7561 167.842 68.8506 165.45 74.4971C166.287 65.6325 168.108 56.8885 170.878 48.4266L171.292 47.9896L172.902 48.3001ZM169.372 45.2181C169.843 46.1151 170.522 46.8741 171.016 47.7941C169.475 49.4041 167.773 50.8071 166.152 52.3941C165.543 50.9967 164.771 49.6764 163.852 48.4611C165.813 47.6097 167.666 46.5289 169.372 45.2411V45.2181ZM162.955 47.7826C166.577 46.9891 167.486 42.3661 167.716 39.5371C167.716 40.1121 167.946 44.1371 168.118 45.5861C168.112 45.6125 168.112 45.6401 168.118 45.6666L163.645 48.3001C163.149 49.2084 162.726 50.1543 162.38 51.1291C161.992 50.1043 161.531 49.1089 161 48.1506C161.655 48.0701 162.288 47.9551 162.955 47.8056V47.7826ZM162.23 51.6466C162.226 51.6707 162.226 51.6956 162.231 51.7196C162.236 51.7437 162.246 51.7665 162.26 51.7868C162.274 51.8071 162.291 51.8244 162.312 51.8379C162.333 51.8513 162.356 51.8605 162.38 51.8651C162.404 51.8696 162.429 51.8693 162.453 51.8643C162.477 51.8592 162.5 51.8495 162.52 51.8356C162.54 51.8217 162.558 51.804 162.571 51.7834C162.584 51.7628 162.594 51.7397 162.598 51.7156C162.943 50.6691 163.449 49.6571 163.748 48.6106C164.387 50.014 165.157 51.3539 166.048 52.6126C167.636 51.4708 169.132 50.2057 170.522 48.8291C166.738 57.1896 165.312 69.1496 165.094 73.0826C164.174 69.6326 160.068 55.5796 158.55 52.1641C158.937 52.4055 159.373 52.555 159.827 52.6011C160.114 52.1066 160.655 49.0706 160.977 48.2311C161 48.4036 161.966 50.9911 162.23 51.6696V51.6466ZM156.906 41.6876C157.155 41.7612 157.417 41.7818 157.675 41.748C157.933 41.7143 158.181 41.6269 158.403 41.4914C158.625 41.356 158.816 41.1756 158.965 40.9618C159.113 40.748 159.214 40.5056 159.263 40.2501C159.263 40.1006 159.574 40.1811 159.551 40.3306C159.217 42.4351 157.251 42.2741 156.871 41.7681C156.848 41.7566 156.871 41.7106 156.906 41.7106V41.6876ZM156.837 48.1966C158.145 48.3855 159.473 48.3855 160.781 48.1966C160.255 49.5129 159.84 50.8707 159.539 52.2561C159.194 52.0261 157.17 50.8531 156.549 50.4391C156.561 50.4161 156.791 49.0246 156.837 48.2196V48.1966ZM156.4 50.6001C156.939 51.1053 157.533 51.5488 158.171 51.9226C159.171 55.7521 163.921 70.2536 164.852 73.7726C163.415 71.7256 155.744 63.4226 153.824 60.9616C154.379 59.7242 154.856 58.4528 155.25 57.1551C154.243 56.7647 153.199 56.4795 152.133 56.3041C153.287 54.6616 154.204 52.8654 154.859 50.9681C155.33 50.8071 156.4 50.6001 156.4 50.6001ZM134.446 76.6131C135.462 70.8682 138.045 65.5156 141.91 61.1456C143.764 59.0608 145.791 57.1373 147.97 55.3956C149.921 53.5886 152.16 52.1195 154.594 51.0486C153.594 52.7621 152.639 54.8091 151.547 56.4881C151.455 56.6376 153.927 57.1091 154.916 57.4541C154.698 57.8221 153.709 60.3751 153.421 61.0651C153.421 61.1456 163.311 72.2201 165.117 74.7616C164.967 76.5326 165.991 85.9396 166.002 85.9511C164.933 86.6066 163.794 87.3541 162.771 88.0671C162.679 88.0671 163.024 88.6766 163.127 88.8951C162.701 89.1074 162.234 89.2251 161.759 89.2401C161.885 86.7906 161.667 83.9501 159.574 82.3401C158.655 81.6794 157.574 81.2818 156.446 81.1901C154.617 80.9601 152.789 80.8566 150.96 80.5921C150.178 80.4771 149.385 80.3391 148.603 80.1896V80.1206C147.967 76.6048 147.721 73.0298 147.867 69.4601C147.867 69.3681 147.717 69.3336 147.694 69.4601C147.27 73.0247 147.441 76.635 148.2 80.1436C143.52 79.2581 139 77.9241 134.4 76.6016L134.446 76.6131ZM126.109 74.3131C126.218 73.7693 126.525 73.2855 126.971 72.9561C127.32 72.7325 127.73 72.6254 128.144 72.6502C128.557 72.675 128.952 72.8305 129.271 73.0941C129.621 73.3941 129.873 73.7924 129.994 74.2374C130.115 74.6824 130.1 75.1535 129.95 75.5896C129.789 76.1301 128.926 77.7286 128.236 76.4521C128.278 76.3589 128.312 76.2628 128.34 76.1646C128.452 75.6675 128.536 75.1645 128.593 74.6581C128.455 75.1181 128.374 75.6126 128.213 76.0611C128.177 76.2034 128.112 76.3365 128.02 76.4515C127.929 76.5665 127.815 76.6608 127.684 76.7281C127.316 76.8546 127.04 76.5671 126.902 76.2566C127.124 75.5669 127.26 74.8522 127.305 74.1291C127.239 74.8875 127.036 75.6278 126.707 76.3141C126.477 76.7281 126.04 76.7741 125.89 76.3141C125.862 76.1582 125.862 75.9984 125.89 75.8426C125.906 75.3224 125.98 74.8057 126.109 74.3016V74.3131ZM109.802 72.0131C109.905 72.1166 109.997 72.2316 110.101 72.3581C110.102 72.3756 110.108 72.3924 110.118 72.4067C110.128 72.421 110.142 72.432 110.158 72.4386C110.399 72.7461 110.585 73.0921 110.71 73.4621C110.86 73.9221 111.17 75.0606 110.216 74.6121C109.928 74.2047 109.609 73.8202 109.261 73.4621C109.192 73.4621 109.261 73.4621 109.261 73.4621C109.468 73.8301 111.113 76.0956 109.261 75.5896C109.085 75.0562 108.803 74.5635 108.433 74.1406C108.413 74.1262 108.388 74.1189 108.363 74.1196C108.339 74.1204 108.315 74.1292 108.295 74.1448C108.276 74.1603 108.262 74.1818 108.256 74.2059C108.249 74.2301 108.251 74.2556 108.261 74.2786C108.491 74.8076 109.779 76.7856 108.261 76.2566C107.396 75.7465 106.762 74.9226 106.49 73.9566C106.313 73.5246 106.298 73.0435 106.447 72.6013C106.596 72.1591 106.899 71.7852 107.301 71.548C107.703 71.3108 108.177 71.2261 108.636 71.3094C109.095 71.3926 109.509 71.6383 109.802 72.0016V72.0131ZM65.1472 46.5751C65.7018 46.5734 66.2508 46.6847 66.761 46.9021C67.2711 47.1196 67.7315 47.4388 68.1142 47.8401C67.9072 46.1841 65.4002 43.8266 65.4002 43.8266C62.4677 43.8956 63.1002 40.9976 63.1002 40.9976C63.2327 40.6922 63.4368 40.4232 63.6953 40.2135C63.9539 40.0038 64.2592 39.8595 64.5853 39.7929C64.9115 39.7263 65.2489 39.7394 65.5689 39.831C65.889 39.9226 66.1822 40.09 66.4237 40.3191C66.4237 40.6756 67.0447 42.3086 67.9417 42.3776C68.8387 42.4466 68.5167 43.3896 68.5167 43.3896C68.5167 43.3896 69.1837 42.5271 68.5167 42.0441C67.8497 41.5611 67.7922 40.3076 67.7922 40.3076C71.5642 39.9626 74.2207 30.8891 74.2207 30.8891C75.1867 35.9146 80.6377 36.0066 80.6377 36.0066C80.6467 38.9893 80.47 41.9698 80.1087 44.9306C79.9522 45.8272 79.5004 46.6458 78.8254 47.2563C78.1503 47.8668 77.2905 48.2342 76.3827 48.3001C76.3827 48.3001 76.3827 51.3131 76.5437 52.1526C75.2907 53.2339 73.6908 53.8288 72.0357 53.8288C70.3807 53.8288 68.7807 53.2339 67.5277 52.1526V51.0026C68.0615 51.0397 68.5977 51.0166 69.1262 50.9336C65.9062 50.3011 65.1472 46.5751 65.1472 46.5751ZM66.9182 53.3026C68.0682 55.4416 74.5887 56.7526 77.2682 52.8656C78.5359 52.8738 79.8009 52.9814 81.0517 53.1876C80.1662 62.3071 66.6767 62.6291 63.4682 54.8206C64.5837 54.2916 65.7452 53.7971 66.9182 53.3026ZM46.7242 89.7001C40.5717 80.7761 45.1257 68.7586 52.3132 61.8816C55.4831 58.9811 59.128 56.6471 63.0887 54.9816C64.3997 59.1561 69.6092 61.2491 73.7147 60.7316C75.6651 60.5482 77.4948 59.7054 78.9018 58.3423C80.3088 56.9792 81.2091 55.1772 81.4542 53.2336C84.745 53.8082 87.879 55.0657 90.6542 56.9251C93.5749 58.8963 96.1607 61.3229 98.3132 64.1126C101.096 67.6431 102.672 71.9211 104.328 76.0726C101.556 77.9931 98.3017 80.0056 94.9667 81.8916C94.3917 81.4546 93.0807 80.2931 92.8162 80.0516C92.9039 76.645 92.1785 73.2665 90.7002 70.1961H90.5852C92.9542 76.0496 92.2987 80.9486 92.4022 83.2486C86.3302 86.5146 80.4652 89.1251 77.4522 89.7691C77.4522 89.7691 77.4522 89.5966 77.3602 89.5736C72.5417 87.9751 58.1782 82.8576 58.1552 82.8576C58.4526 80.9334 58.6483 78.9949 58.7417 77.0501C58.7417 77.0501 58.6497 77.0501 58.6497 77.1191C58.1552 79.0166 58.0862 81.0751 57.7757 83.0186C57.7699 83.0537 57.7744 83.0899 57.7887 83.1225C57.803 83.1552 57.8264 83.183 57.8562 83.2026C64.1122 85.9051 70.7132 87.8026 77.1992 89.8611C77.3515 92.0541 77.2512 94.2574 76.9002 96.4276C66.6997 97.3591 53.5092 99.5326 46.7242 89.7001ZM94.6102 82.0986C93.9662 82.4666 93.3107 82.8231 92.6667 83.1681C92.7357 82.3056 92.7817 81.3971 92.7932 80.4656C93.3401 81.072 93.9491 81.6193 94.6102 82.0986ZM77.5787 91.4941C77.9607 91.656 78.3714 91.7395 78.7862 91.7395C79.2011 91.7395 79.6118 91.656 79.9937 91.4941C80.8447 91.0456 81.2702 90.1141 82.0407 89.5506C82.0913 90.1792 81.9204 90.8057 81.5577 91.3216C81.4772 91.4251 81.5577 91.5516 81.7187 91.5401C82.5007 91.6551 84.1222 91.3446 84.6857 91.8046C85.4792 92.4371 82.6502 92.7131 81.9257 92.8051C81.8107 92.8051 81.8452 92.9891 81.9257 93.0006C82.8202 92.9953 83.7086 92.8517 84.5592 92.5751C85.2377 94.3001 82.3742 93.9091 81.8337 94.1046C81.8107 94.1121 81.7907 94.1268 81.7765 94.1464C81.7623 94.166 81.7546 94.1896 81.7546 94.2138C81.7546 94.238 81.7623 94.2616 81.7765 94.2813C81.7907 94.3009 81.8107 94.3155 81.8337 94.3231C82.5039 94.3689 83.1772 94.3225 83.8347 94.1851C84.4442 95.6226 78.8207 96.7496 77.4062 94.8406C77.5629 93.7324 77.6206 92.6125 77.5787 91.4941ZM60.0182 112.7C60.0182 112.631 60.1677 112.7 60.1562 112.7C59.8687 117.07 57.1087 134.849 56.2692 139.346C56.2692 139.472 56.0622 139.415 56.0852 139.346C56.6832 134.907 59.1442 117.116 60.0182 112.7ZM50.8757 141.83C52.0773 142.432 53.3139 142.962 54.5787 143.417C54.5787 143.75 54.6477 144.21 54.6822 144.728C51.8302 144.452 49.1162 145.015 46.2757 144.82C46.2757 143.796 46.1952 141.91 46.1952 141.91C46.9657 141.887 49.1392 141.841 50.8757 141.864V141.83ZM51.7152 145.142H54.6247C54.7282 146.533 54.8432 148.442 54.9582 150.489C53.9375 150.345 52.9043 150.311 51.8762 150.386C51.9315 148.648 51.8893 146.909 51.7497 145.176L51.7152 145.142ZM51.4277 150.374C51.3012 150.374 47.9777 150.374 46.4712 150.443C46.4712 149.063 46.2757 145.567 46.2757 145.199C47.9758 145.313 49.6816 145.313 51.3817 145.199C51.1776 146.931 51.1931 148.681 51.4277 150.409V150.374ZM6.71574 135.608C17.0657 126.569 27.0937 117.99 37.6737 109.158C41.5952 112.608 45.9192 115.69 50.1282 118.83C48.8287 124.867 47.4027 131.48 46.5747 135.286C35.9832 135.47 13.1902 135.7 6.71574 135.608ZM8.67074 173.478C8.74393 171.869 8.64368 170.258 8.37174 168.671C12.2242 169.131 46.8507 168.74 56.3497 168.59C56.4187 169.74 56.5337 171.293 56.6487 172.995C45.9997 172.995 16.5137 173.271 8.67074 173.478ZM34.9827 157.999C37.0871 157.834 39.1999 157.807 41.3077 157.918C41.3077 157.918 41.3077 166.52 41.4917 168.383L35.2012 168.487C35.1092 164.887 35.2012 161.575 34.9827 157.999ZM63.2037 189.049C56.8097 190.141 53.0262 189.509 51.0137 189.635C50.9332 189.118 51.7842 187.933 52.1637 187.646C52.5432 187.358 57.4997 184.989 57.4997 184.989C59.0522 187.807 62.2607 186.45 63.2497 185.955C63.5092 186.985 63.5092 188.064 63.2497 189.095L63.2037 189.049ZM67.2402 168.843C63.2842 170.58 59.3627 169.487 56.2232 166.67L56.3152 168.096L41.9172 168.326C42.0873 164.735 41.9835 161.136 41.6067 157.562C41.6067 157.562 36.7307 156.906 34.5572 157.481C34.4882 157.481 34.6147 164.841 34.7067 168.441L12.8567 168.36C12.8567 168.36 12.4657 146.844 11.8562 136.16C16.7552 136.31 36.5237 135.93 46.5172 135.723L45.9077 138.518C47.1516 139.674 48.5438 140.66 50.0477 141.45C48.6888 141.307 47.3153 141.4 45.9882 141.726C45.9809 141.752 45.9809 141.78 45.9882 141.807C45.7469 144.794 45.7931 147.798 46.1262 150.777C46.1262 150.777 46.2067 150.915 46.2642 150.915C47.6902 151.007 53.4287 150.742 55.1077 150.984C55.3722 155.733 55.6827 161.104 55.9817 162.944C55.9817 162.944 56.3152 166.543 56.3727 166.578C57.9942 167.728 61.9962 170.936 67.1827 168.648C67.2862 168.567 67.3897 168.832 67.2402 168.889V168.843ZM68.2177 164.381C63.2497 165.6 57.7297 163.484 56.3497 162.863C55.8897 159.505 55.6137 146.545 54.9122 143.555C60.562 145.448 66.4919 146.369 72.4497 146.28C71.5527 149.155 68.8502 161.311 68.2177 164.45V164.381ZM66.5157 125.281C66.5238 125.255 66.5398 125.233 66.5615 125.217C66.5833 125.201 66.6095 125.192 66.6365 125.192C66.6634 125.192 66.6897 125.201 66.7114 125.217C66.7331 125.233 66.7492 125.255 66.7572 125.281C66.7572 129.237 66.8837 133.205 66.7572 137.161C66.7572 137.276 66.5732 137.276 66.5617 137.161C66.3892 133.262 66.5042 129.295 66.5157 125.35V125.281ZM75.2902 100.763C72.7142 100.901 60.3402 101.476 56.7867 99.7281H56.7292C55.824 98.7963 55.2781 97.574 55.1882 96.2781C55.6712 96.4506 56.1772 96.6001 56.6717 96.7381C62.8702 98.3596 69.3217 97.4051 75.5662 96.8416C75.3897 98.1607 75.2975 99.4897 75.2902 100.821V100.763ZM87.6757 165.727C86.5257 162.426 83.1677 148.845 81.7762 145.659C82.9262 145.521 85.3757 145.096 86.2382 144.946C87.3882 147.35 88.7682 149.673 90.0332 152.007C91.2982 154.342 92.6437 156.849 94.0352 159.206C95.1852 161.104 96.3352 162.967 97.6117 164.761C93.7592 167.463 89.1937 166.29 87.6757 165.784V165.727ZM104.362 188.301C100.717 188.382 97.8187 188.669 94.0122 188.462C93.7419 187.203 93.699 185.906 93.8857 184.633C97.4507 187.588 98.8767 183.747 98.8767 183.747C99.6702 184.483 104.328 186.634 104.362 188.359V188.301ZM150.224 176.226C152.812 176.985 156.457 176.491 159.01 175.962C158.895 176.916 159.643 180.355 155.422 180.838C150.155 181.516 150.454 177.181 150.224 176.284V176.226ZM153.766 186.703C152.306 186.944 146.51 187.853 146.107 185.403C146.544 185.696 147.054 185.859 147.579 185.875C149.58 186.036 159.206 184.288 159.746 183.644C160.356 186.185 155.342 186.507 153.766 186.76V186.703ZM159.746 183.391C159.137 183.954 151.225 185.357 149.592 185.484C147.959 185.61 145.084 185.863 146.291 183.368C146.545 182.866 146.866 182.402 147.246 181.988C147.721 182.458 148.224 182.9 148.752 183.31C148.89 183.402 149.028 183.241 148.959 183.103C148.598 182.522 148.08 182.055 147.464 181.758C147.798 181.413 148.177 181.068 148.557 180.746C148.787 180.93 149.603 181.827 149.856 181.976C149.882 181.991 149.912 181.998 149.942 181.996C149.972 181.994 150.001 181.983 150.024 181.964C150.048 181.946 150.065 181.92 150.074 181.892C150.083 181.863 150.083 181.832 150.075 181.804C149.82 181.245 149.382 180.791 148.833 180.516L149.672 179.837C150.282 180.228 150.822 180.711 151.42 181.125C151.501 181.125 151.604 181.125 151.547 181.01C151.093 180.443 150.52 179.983 149.868 179.665C150.096 179.479 150.334 179.306 150.581 179.147C151.089 179.811 151.746 180.348 152.498 180.715C153.25 181.082 154.077 181.269 154.913 181.261C155.75 181.253 156.573 181.051 157.318 180.67C158.063 180.289 158.71 179.74 159.206 179.067C160.034 179.941 159.746 182.701 159.746 183.448V183.391ZM161.759 137.149C160.885 148.155 148.074 169.51 148.074 169.51V169.786C141.45 179.4 132.652 185.15 129.237 187.899C124.43 186.461 120.106 183.667 115.977 180.884C111.535 178.039 107.359 174.798 103.5 171.201C99.8281 167.447 96.6794 163.215 94.1387 158.62C91.4707 154.02 89.2167 149.213 86.4337 144.716C85.2837 142.255 76.2332 121.532 75.7617 100.798C75.8668 99.4969 75.886 98.1908 75.8192 96.8876L76.9002 96.7956C76.9717 96.7502 77.0247 96.6809 77.0497 96.6001C77.1791 96.1315 77.279 95.6552 77.3487 95.1741C77.9623 95.6024 78.6635 95.8886 79.4016 96.0119C80.1396 96.1352 80.8958 96.0926 81.6152 95.8871C82.4547 95.7031 84.5247 95.3121 84.0992 94.0356C84.2298 93.9865 84.3535 93.9208 84.4672 93.8401C84.5873 93.7787 84.6905 93.689 84.768 93.5787C84.8455 93.4684 84.8949 93.3409 84.9119 93.2071C84.9289 93.0734 84.913 92.9376 84.8656 92.8114C84.8181 92.6852 84.7406 92.5725 84.6397 92.4831C85.0537 92.2761 85.2377 91.9886 84.9157 91.5861C84.7432 91.4426 84.5425 91.3367 84.3267 91.2753C84.1108 91.2139 83.8845 91.1984 83.6622 91.2296C83.0469 91.2217 82.4318 91.2601 81.8222 91.3446C82.2362 90.7696 82.4547 88.7916 81.8912 89.1366C81.3754 89.5355 80.9253 90.0128 80.5572 90.5511C79.6947 91.5401 78.6942 91.4366 77.5212 91.2526C77.5212 90.8501 77.5212 90.4476 77.4177 90.1026C79.7328 89.8093 81.9786 89.1126 84.0532 88.0441C86.7442 86.8941 99.7967 80.8796 106.605 74.9456C106.783 75.3477 107.043 75.7086 107.367 76.0055C107.692 76.3024 108.074 76.5288 108.491 76.6706C109.25 76.8431 109.388 76.4061 109.273 75.8541C109.355 75.9134 109.45 75.9522 109.55 75.9672C109.65 75.9822 109.752 75.973 109.848 75.9403C109.944 75.9076 110.03 75.8525 110.1 75.7794C110.17 75.7064 110.222 75.6176 110.25 75.5206C110.336 75.2828 110.336 75.0224 110.25 74.7846C110.664 75.0031 110.963 75.0376 111.09 74.5431C111.132 74.1421 111.092 73.7367 110.974 73.3513C110.855 72.9659 110.66 72.6085 110.4 72.3006C111.216 71.6566 111.975 70.9551 112.78 70.2996C114.425 68.9886 116.437 70.5181 118.082 71.2196C120.589 72.3006 125.718 74.4971 125.752 74.4511C125.679 74.7579 125.625 75.069 125.591 75.3826C125.591 75.8081 125.35 76.6246 125.902 76.8431C126.258 76.9811 126.523 76.7741 126.707 76.4291C126.74 76.5436 126.799 76.6488 126.88 76.7364C126.961 76.8241 127.061 76.8917 127.173 76.9341C127.284 76.9764 127.404 76.9923 127.523 76.9805C127.641 76.9687 127.756 76.9296 127.857 76.8661C127.944 76.8096 128.021 76.7397 128.087 76.6591C128.397 77.1651 128.972 77.4411 129.444 76.9811C129.817 76.6222 130.087 76.1693 130.226 75.6701C136.073 77.7137 142.061 79.328 148.143 80.5001C151.029 81.0406 153.973 81.1441 156.86 81.6501C160.747 82.3056 161.586 85.8131 161.46 89.2401C161.179 89.225 160.902 89.1787 160.632 89.1021C160.037 88.9178 159.453 88.6989 158.884 88.4466C158.884 88.4466 158.815 88.4466 158.815 88.5156C158.699 88.9708 158.735 89.4515 158.918 89.8841C159.022 90.2215 159.248 90.5083 159.551 90.6891C158.87 91.0441 158.264 91.5284 157.768 92.1151C157.435 92.4601 156.503 93.2651 156.618 93.8401C156.733 94.4151 157.331 94.2541 157.768 94.1276C157.722 94.2302 157.702 94.3431 157.71 94.4555C157.719 94.568 157.756 94.6764 157.818 94.7706C157.88 94.8648 157.965 94.9417 158.065 94.9942C158.165 95.0466 158.276 95.0729 158.389 95.0706H158.746C159.459 95.8756 160.494 95.2086 161.218 94.7371L162.173 94.1276C162.173 96.8761 162.598 99.6361 162.851 102.373C163.035 104.478 163.127 106.617 163.403 108.721C163.955 124.522 162.621 126.224 161.759 137.207V137.149ZM163.794 108.641C163.645 106.341 163.323 104.041 163.127 101.741C162.897 99.1301 162.805 96.4621 162.391 93.8746C163.28 93.306 164.095 92.6301 164.818 91.8621C165.404 92.7936 166.025 93.7021 166.577 94.5876C166.733 94.6831 166.904 94.7493 167.083 94.7831C166.876 97.0831 167.992 105.927 168.406 109.078C166.175 109.009 164.519 108.802 163.794 108.698V108.641ZM168.624 109.101C168.383 105.904 167.762 97.0831 167.474 94.7831C175.593 94.6566 184.218 92.4141 190.072 86.6066C190.198 90.1946 191.314 100.936 191.371 102.707C191.454 103.255 191.397 103.815 191.206 104.336C191.015 104.856 190.696 105.32 190.279 105.685C183.034 109.25 174.156 109.469 168.624 109.158V109.101ZM184.724 185.3C182.873 186.139 179.147 187.772 177.905 185.438C178.555 185.494 179.209 185.432 179.837 185.254C183.276 184.59 186.528 183.177 189.359 181.114C190.612 182.482 185.449 185.001 184.667 185.357L184.724 185.3ZM189.244 180.826C186.581 182.813 183.502 184.169 180.239 184.794C179.216 185.001 177.571 185.403 177.364 184.035C177.398 183.528 177.582 183.044 177.893 182.643C178.02 182.413 178.169 182.195 178.319 181.976C178.734 182.197 179.095 182.508 179.377 182.885C179.503 182.977 179.618 182.804 179.572 182.689C179.317 182.27 178.934 181.944 178.48 181.758C178.698 181.459 178.928 181.171 179.158 180.884C179.975 181.217 180.193 181.861 180.435 182.034C180.676 182.206 180.642 182.034 180.607 181.907C180.317 181.377 179.877 180.945 179.342 180.665L179.929 179.952C180.803 180.493 181.079 181.194 181.332 181.436C181.435 181.516 181.642 181.436 181.585 181.286C181.278 180.624 180.787 180.065 180.17 179.676L180.78 178.917C182.137 181.217 187.358 180.067 187.553 177.422C188.209 178.52 188.756 179.679 189.186 180.884L189.244 180.826ZM186.714 174.432C186.944 175.283 188.611 178.906 184.161 179.711C181.067 180.274 179.883 176.583 179.814 176.433C182.224 176.384 184.58 175.715 186.656 174.49L186.714 174.432ZM216.2 156.837C215.659 156.596 215.659 156.136 215.464 155.687C215.205 154.941 214.861 154.227 214.44 153.56C212.543 151.03 208.69 151.72 206.241 153.1C205.631 153.465 205.115 153.967 204.732 154.565C204.348 155.164 204.109 155.843 204.033 156.55C204.019 156.858 203.988 157.165 203.941 157.47C203.722 158.24 203.55 158.217 202.722 158.321C201.652 158.459 191.969 159.126 186.495 159.287C185.633 154.25 184.782 149.259 184.414 147.223C183.867 144.932 183.777 142.556 184.149 140.231C185.544 138.143 186.604 135.85 187.289 133.435C190.865 133.193 198.789 132.503 200.813 133.032C203.331 133.722 204.677 135.861 205.608 138.138C206.54 140.415 207.253 142.945 208.058 145.211C208.058 145.303 208.299 145.349 208.334 145.349C210.335 145.349 212.382 145.061 214.383 144.969C216.384 144.877 219.075 144.118 220.777 145.383C222.023 146.546 222.8 148.125 222.962 149.822C223.36 152.042 223.552 154.294 223.537 156.55C221.513 156.481 216.522 156.987 216.2 156.837Z" fill="black"/>
<path d="M212.945 162.725C213.335 162.415 213.657 162.029 213.892 161.59C214.127 161.151 214.271 160.669 214.314 160.173C214.357 159.677 214.299 159.178 214.142 158.705C213.986 158.232 213.735 157.797 213.405 157.424C212.696 156.537 211.709 155.915 210.603 155.659C209.497 155.402 208.337 155.525 207.31 156.009C204.941 157.412 205.654 160.368 206.735 161.863C207.977 163.565 211.243 163.875 212.945 162.725ZM207.494 156.4C208.186 156.064 208.958 155.923 209.724 155.994C210.49 156.065 211.223 156.345 211.841 156.803C213.451 157.849 214.463 160.333 212.991 161.92C211.841 163.151 209.058 163.07 207.782 162.093C205.321 160.241 206.218 157.021 207.494 156.4Z" fill="#2596BE"/>
<path d="M210.45 159.85C210.661 159.635 210.779 159.346 210.779 159.045C210.779 158.744 210.661 158.455 210.45 158.24C210.237 158.039 209.955 157.928 209.662 157.928C209.369 157.928 209.088 158.039 208.874 158.24C208.767 158.33 208.679 158.441 208.616 158.567C208.553 158.693 208.517 158.83 208.509 158.97C208.502 159.11 208.523 159.25 208.572 159.382C208.621 159.514 208.697 159.634 208.794 159.735C208.893 159.854 209.016 159.952 209.154 160.022C209.292 160.093 209.443 160.135 209.597 160.146C209.752 160.156 209.907 160.136 210.054 160.085C210.2 160.034 210.335 159.954 210.45 159.85ZM209.978 158.481C210.065 158.515 210.143 158.568 210.204 158.638C210.266 158.707 210.311 158.79 210.334 158.88C210.358 158.97 210.36 159.064 210.34 159.154C210.32 159.245 210.279 159.33 210.22 159.401C209.058 160.632 208.38 157.952 209.955 158.458L209.978 158.481ZM199.858 136.988C197.558 135.217 193.211 136.436 190.762 137.172C190.737 137.175 190.713 137.187 190.696 137.206C190.679 137.225 190.67 137.25 190.67 137.275C190.877 139.978 191.509 142.853 191.935 145.532C191.935 145.532 199.145 144.624 202.722 144.635C202.814 144.635 202.986 144.635 202.975 144.509C202.641 141.933 202.055 138.69 199.858 136.988ZM192.257 145.038C191.877 142.554 191.716 139.989 191.222 137.517C193.648 137.057 197.673 135.757 199.755 137.632C201.572 139.253 201.986 141.875 202.331 144.164C200.652 144.164 193.936 144.785 192.257 145.061V145.038ZM211.531 167.279C208.196 165.266 203.573 165.945 200.031 167.279C198.169 167.959 196.42 168.916 194.844 170.119C193.614 171.074 192.464 172.189 192.717 173.857C192.717 174.11 194.614 180.147 194.649 180.159C197.719 182.125 202.273 181.999 205.677 181.182C207.57 180.735 209.381 179.998 211.048 178.997C212.538 178.071 213.759 176.77 214.59 175.225C214.59 175.225 214.291 171.396 214.279 171.304C214.181 170.461 213.88 169.654 213.401 168.953C212.922 168.252 212.281 167.677 211.531 167.279ZM193.993 171.522C195.429 170.015 197.175 168.838 199.111 168.072C202.814 166.428 208.104 165.876 211.174 167.681C213.164 168.831 214.498 171.258 213.037 173.431C211.812 174.891 210.226 176.005 208.437 176.663C204.815 178.284 199.789 179.584 196.121 177.433C194.154 176.283 192.257 173.65 193.993 171.522ZM210.289 178.825C208.807 179.64 207.221 180.247 205.574 180.63C202.134 181.536 198.489 181.261 195.224 179.848C195.224 179.848 194.361 177.272 193.936 176.007C194.729 176.956 195.727 177.713 196.854 178.22C197.981 178.728 199.209 178.974 200.445 178.94C204.483 178.837 208.401 177.54 211.703 175.214C212.597 174.643 213.305 173.824 213.739 172.856C213.842 173.592 213.934 175.099 213.934 175.156C213.075 176.688 211.815 177.956 210.289 178.825Z" fill="#2596BE"/>
<path d="M201.468 176.226L201.123 176.836C200.997 177.066 201.353 177.273 201.48 177.043L201.871 176.364C202.258 176.481 202.668 176.506 203.067 176.438C203.466 176.371 203.844 176.211 204.171 175.973C204.366 175.824 204.171 175.525 203.918 175.64C203.369 175.946 202.729 176.048 202.112 175.927C202.779 174.777 203.492 173.731 204.217 172.673C204.481 172.673 204.746 172.673 205.022 172.742C205.54 172.823 206.07 172.742 206.54 172.509C207.009 172.277 207.395 171.904 207.644 171.442C207.801 171.026 207.824 170.571 207.708 170.142C207.593 169.713 207.345 169.331 207 169.05L206.827 168.935L207.218 168.337C207.225 168.329 207.23 168.319 207.233 168.309C207.236 168.299 207.237 168.288 207.236 168.277C207.235 168.267 207.232 168.256 207.227 168.247C207.222 168.237 207.215 168.229 207.207 168.222C207.198 168.215 207.189 168.21 207.179 168.207C207.168 168.204 207.158 168.203 207.147 168.204C207.136 168.205 207.126 168.208 207.116 168.213C207.107 168.218 207.099 168.225 207.092 168.234C206.908 168.418 206.724 168.602 206.551 168.797C205.938 168.622 205.294 168.586 204.665 168.692C204.037 168.797 203.44 169.041 202.917 169.407C202.814 169.476 202.917 169.66 203.009 169.614C203.594 169.349 204.214 169.167 204.849 169.073C205.308 169.018 205.773 169.053 206.218 169.177C205.385 170.149 204.617 171.175 203.918 172.247C202.71 172.121 201.319 172.029 200.468 173.144C200.276 173.398 200.149 173.694 200.096 174.008C200.044 174.321 200.068 174.643 200.166 174.945C200.264 175.248 200.434 175.522 200.66 175.745C200.887 175.968 201.164 176.133 201.468 176.226ZM206.586 169.246C206.877 169.343 207.122 169.546 207.272 169.813C207.423 170.081 207.469 170.395 207.402 170.695C207.103 172.236 205.769 172.362 204.527 172.259C205.217 171.258 205.907 170.258 206.586 169.246ZM202.4 172.558C202.782 172.515 203.168 172.515 203.55 172.558C202.871 173.604 202.239 174.685 201.629 175.743C199.536 174.8 200.755 172.753 202.4 172.558ZM74.8302 198.502C74.4381 197.461 73.8005 196.531 72.9715 195.79C72.1426 195.049 71.1469 194.52 70.0692 194.247C66.8658 193.428 63.4895 193.6 60.3862 194.741C57.6952 195.592 53.4862 197.973 54.3372 201.446C54.4407 202.182 55.8552 207.472 55.9357 207.472C58.6727 210.278 63.3187 210.197 66.8952 209.772C70.0692 209.346 74.5772 208.185 75.8192 204.781C75.6117 202.702 75.2892 200.637 74.8532 198.594C74.8594 198.587 74.8638 198.578 74.866 198.569C74.8682 198.56 74.8682 198.551 74.8659 198.542C74.8637 198.532 74.8592 198.524 74.853 198.517C74.8468 198.51 74.8389 198.505 74.8302 198.502ZM55.0617 198.95C56.1924 197.139 57.961 195.818 60.0182 195.247C63.2023 194.036 66.6789 193.82 69.9887 194.626C72.2197 195.144 75.0487 197.34 74.5887 199.939C74.1977 202.343 72.2887 203.389 70.2302 204.183C66.4795 205.827 62.2543 206.032 58.3622 204.758C55.9472 203.815 53.5667 201.699 55.0617 198.95ZM66.3317 209.381C64.5378 209.617 62.7206 209.617 60.9267 209.381C59.2008 209.061 57.5623 208.379 56.1197 207.38C56.1197 207.38 55.4987 204.459 55.1422 203.067C56.9132 205.264 60.7427 205.85 63.2497 205.85C65.3578 205.847 67.45 205.486 69.4367 204.781C71.133 204.337 72.6909 203.475 73.9677 202.274C74.3435 201.847 74.6325 201.351 74.8187 200.813C74.9797 202.113 75.4742 204.677 75.4742 204.677C73.3122 207.805 69.9772 208.898 66.3317 209.3V209.381Z" fill="#2596BE"/>
<path d="M62.4906 203.435L62.2261 203.849C62.1456 203.976 62.3411 204.137 62.4331 204.01L62.7666 203.562C63.2339 203.762 63.7407 203.854 64.2487 203.83C64.7567 203.806 65.2526 203.667 65.6991 203.424C65.8716 203.32 65.7681 203.021 65.5611 203.09C64.7457 203.407 63.8487 203.448 63.0081 203.205C63.6866 202.182 65.1931 199.479 65.3656 199.226C66.4006 199.341 67.5046 199.376 68.1486 198.41C68.3052 198.244 68.4182 198.041 68.4774 197.821C68.5366 197.6 68.5402 197.368 68.4877 197.146C68.4353 196.924 68.3285 196.718 68.177 196.547C68.0255 196.376 67.834 196.246 67.6196 196.167L67.8381 195.857C67.9186 195.753 67.7576 195.65 67.6656 195.73L67.3321 196.052C66.856 195.869 66.3433 195.8 65.8358 195.852C65.3282 195.904 64.8401 196.075 64.4111 196.351C64.3191 196.432 64.4111 196.547 64.5376 196.501C65.118 196.254 65.7483 196.148 66.3776 196.19C66.6136 196.206 66.846 196.257 67.0676 196.34C66.3551 197.109 65.7231 197.949 65.1816 198.847C64.6499 198.727 64.1043 198.68 63.5601 198.709C63.0409 198.764 62.5468 198.961 62.1313 199.277C61.7158 199.593 61.3946 200.017 61.2026 200.503C60.994 201.063 61.0118 201.683 61.2522 202.23C61.4927 202.777 61.9368 203.21 62.4906 203.435ZM67.3781 196.535C68.3786 197.168 68.0911 198.605 66.4466 198.916C66.1643 198.956 65.8778 198.956 65.5956 198.916C66.1591 198.076 66.7686 197.294 67.3781 196.501V196.535ZM64.9746 199.226C64.1926 200.503 63.5026 201.837 62.6746 203.102C62.4171 202.966 62.1916 202.776 62.0131 202.546C61.8346 202.316 61.7073 202.051 61.6396 201.768C61.0991 199.537 63.2496 199.019 64.9746 199.192V199.226ZM42.0436 178.963C39.0582 177.393 35.6295 176.878 32.3146 177.503C29.5431 177.813 24.9546 179.354 25.1616 182.885C25.1616 183.598 25.4376 189.026 25.5066 189.049C27.5881 192.269 31.9811 193.166 35.5231 193.453C38.7661 193.718 43.5731 193.568 45.5281 190.406L45.8386 184.115C45.6581 183.018 45.2201 181.979 44.5604 181.083C43.9008 180.188 43.0382 179.461 42.0436 178.963ZM45.2176 190.314C42.5151 192.844 39.1226 193.281 35.5231 192.993C33.7088 192.891 31.9153 192.554 30.1871 191.993C28.4967 191.327 26.9705 190.303 25.7136 188.991C25.7136 188.991 25.7136 186.013 25.6331 184.587C26.9556 187.174 30.7391 188.543 33.2921 189.037C35.2941 189.42 37.3456 189.471 39.3641 189.187C41.0848 189.084 42.7546 188.563 44.2286 187.669C44.691 187.322 45.0815 186.888 45.3786 186.392C45.2521 187.692 45.2176 190.314 45.2176 190.314ZM45.4706 185.047C44.7921 187.462 42.6876 188.198 40.4681 188.635C36.4668 189.531 32.2762 188.938 28.6806 186.967C26.5416 185.702 24.4141 183.322 26.1506 180.815C26.8128 179.996 27.6322 179.318 28.5604 178.82C29.4886 178.322 30.5069 178.015 31.5556 177.917C35.059 177.196 38.7027 177.67 41.9056 179.262C43.7801 180.205 46.1376 182.712 45.4706 185.047Z" fill="#2596BE"/>
<path d="M39.3298 180.263L39.5253 180.09C39.6173 180.01 39.5253 179.86 39.3873 179.918L39.1113 180.102C38.6517 179.859 38.1476 179.712 37.6296 179.671C37.1116 179.629 36.5906 179.694 36.0983 179.86C36.0765 179.871 36.0593 179.889 36.0496 179.911C36.0399 179.934 36.0383 179.959 36.0452 179.982C36.052 180.005 36.0669 180.025 36.0871 180.039C36.1073 180.052 36.1316 180.058 36.1558 180.056C37.0312 179.912 37.929 180.008 38.7548 180.332C37.9593 180.896 37.2199 181.535 36.5468 182.241L35.8913 182.149C35.3476 181.982 34.7734 181.941 34.2117 182.029C33.6499 182.117 33.1154 182.331 32.6483 182.655C32.3526 182.875 32.1143 183.163 31.9534 183.495C31.7925 183.827 31.7139 184.193 31.724 184.562C31.7342 184.93 31.8328 185.291 32.0117 185.614C32.1906 185.936 32.4444 186.211 32.7518 186.415L32.4068 186.772C32.2803 186.887 32.4643 187.059 32.6023 186.956L32.9933 186.599C33.4 186.911 33.878 187.116 34.384 187.196C34.89 187.276 35.408 187.229 35.8913 187.059C35.9284 187.039 35.9574 187.007 35.9735 186.967C35.9896 186.928 35.9918 186.885 35.9796 186.845C35.9675 186.804 35.9418 186.769 35.9069 186.745C35.8719 186.721 35.8299 186.71 35.7878 186.714C34.9522 186.814 34.1056 186.67 33.3498 186.3C34.2813 185.392 36.4203 182.919 36.6618 182.689C37.3943 182.838 38.1522 182.807 38.8698 182.597C39.2 182.51 39.4838 182.299 39.6618 182.007C39.8397 181.716 39.8979 181.367 39.8243 181.033C39.7511 180.728 39.5768 180.456 39.3298 180.263ZM33.0393 186.116C32.833 186.001 32.6521 185.845 32.5074 185.658C32.3627 185.471 32.2571 185.257 32.197 185.028C32.1369 184.799 32.1235 184.561 32.1575 184.327C32.1916 184.093 32.2724 183.869 32.3953 183.667C33.0278 182.39 34.2928 182.333 35.5233 182.517L36.1903 182.62C35.1093 183.747 34.1203 184.978 33.0393 186.116ZM38.0763 182.31C37.7283 182.344 37.3778 182.344 37.0298 182.31C37.6853 181.7 38.3753 181.16 39.0538 180.527C39.1772 180.623 39.2753 180.747 39.3395 180.889C39.4036 181.032 39.4319 181.188 39.4218 181.344C39.4103 182.126 38.6743 182.264 38.0763 182.31Z" fill="#2596BE"/>
</svg>
