<svg width="230" height="230" viewBox="0 0 230 230" fill="none" xmlns="http://www.w3.org/2000/svg">
<path d="M199.316 123.363C197.34 122.994 195.332 122.83 193.323 122.879L200.065 86.288C200.755 82.493 201.283 82.1733 197.29 81.9329C158.233 79.5789 135.489 81.5362 135.43 80.6047C135.404 80.2079 133.475 69.5405 132.689 63.1166C132.487 61.4618 131.361 55.8325 130.964 53.9109C130.345 50.9128 130.411 50.1964 128.944 50.2447C116.611 50.6506 85.9577 53.743 69.7289 56.3627C41.5884 60.9029 41.7057 60.95 41.8598 62.2219C41.8598 62.2518 42.919 76.0783 48.1365 104.644C34.6735 104.965 35.4865 107.419 37.4059 135.933C38.3259 149.666 41.7874 177.282 44.9039 191.335C49.2106 210.759 50.7056 215.075 65.4532 215.962C75.0822 216.537 159.128 217.513 181.15 214.718C183.248 214.452 184.638 211.636 185.085 209.862C185.66 207.578 186.81 205.183 191.574 184.997C204.252 131.345 207.52 125.142 199.316 123.363ZM194.256 83.6752C198.649 83.7246 198.46 83.6637 198.341 84.2134C198.164 85.0356 181.666 171.35 177.296 191.871C173.748 170.203 167.268 130.597 166.738 128.421C164.764 120.306 162.685 119.869 156.786 119.227C155.464 119.083 104.621 118.144 104.148 118.113C103.458 118.066 103.591 117.823 103.64 117.583C103.64 117.583 103.745 116.941 103.799 116.663C109.708 86.4915 109.266 84.1398 110.383 84.0972C161.596 82.1595 176.219 83.4693 194.254 83.6752H194.256ZM43.5584 62.905C43.4146 62.3875 43.8194 62.6244 45.8423 62.3898C50.4147 61.8608 62.4172 59.8161 69.2919 58.7754C95.2946 54.8412 128.064 51.6592 128.067 51.6891C129.266 51.5741 128.998 51.5499 129.237 53.3347C129.352 54.2064 129.571 55.5554 129.653 56.296C132.455 81.8501 134.084 81.0095 132.445 81.021C124.859 81.0692 117.28 81.4983 109.737 82.3067C108.111 82.4941 108.18 83.421 106.667 90.612C103.695 104.732 102.261 112.306 101.715 115.989C101.579 116.909 101.33 117.858 99.7819 117.76C95.9869 117.521 87.6862 117.881 85.4747 114.924C78.7012 105.87 85.5644 104.947 63.0555 104.679C61.6053 104.662 55.5023 104.543 50.3192 104.602C50.1019 103.638 49.8592 101.988 49.4912 99.8867C45.4869 76.7211 43.5572 62.2219 43.5584 62.905ZM190.012 181.97C189.182 186.455 187.551 193.262 186.733 196.422C181.862 215.235 183.73 212.586 173.4 213.236C157.645 214.229 69.6093 214.757 62.0998 213.908C51.8177 212.745 50.6378 208.013 47.3672 191.112C45.8423 183.232 41.3964 155.763 39.1056 126.586C37.5163 106.358 38.1959 107.586 44.1656 106.921C49.85 106.292 56.9053 106.902 65.2221 106.907C65.6303 106.907 74.5865 107.318 75.8113 107.425C77.3063 107.555 78.0975 107.725 78.6863 108.345C81.1013 110.875 83.0241 118.084 87.5965 119.188C94.968 120.97 139.824 120.978 155.676 121.591C163.082 121.877 163.31 122.598 164.761 130.86C166.453 140.477 166.371 142.178 173.25 181.209C177.232 203.798 177.882 209.413 179.399 209.121C180.209 208.964 179.751 206.556 179.578 205.755C179.544 205.596 179.025 202.449 178.218 197.507C186.718 157.691 186.189 161.236 192.997 124.609C194.816 124.609 196.633 124.708 198.44 124.907C204.86 125.762 202.12 129.709 193.906 165.908C194.043 166.175 190.67 178.398 190.012 181.97Z" fill="#2596BE"/>
<path d="M112.556 101.43C111.426 101.294 111.291 100.38 111.922 99.957C114.178 98.4344 157.915 99.7075 165.129 100.877C166.988 101.177 165.841 102.526 162.285 102.572C155.77 102.653 119.025 102.204 112.556 101.43Z" fill="#2596BE"/>
<path d="M136.306 92.345C124.494 92.345 110.516 93.3731 112.805 91.1732C114.816 89.24 145.1 88.9882 145.613 91.0513C145.728 91.5113 145.72 91.6792 145.327 91.8735C143.857 92.5911 136.306 92.368 136.306 92.345Z" fill="#2596BE"/>
<path d="M111.062 111.075C110.257 110.597 110.732 109.608 112.362 109.39C116.049 108.901 130.359 109.555 130.388 109.556C136.932 109.671 137.323 109.795 139.05 110.742C139.678 111.087 139.64 111.651 139.065 112.056C137.635 113.061 112.432 111.885 111.062 111.075Z" fill="#2596BE"/>
<path d="M150.379 92.1403C149.291 91.471 151.108 90.6211 152.345 90.6027C157.629 90.528 165.416 90.7097 168.365 90.881C169.219 90.9305 170.108 91.7148 169.583 92.4036C168.982 93.1937 168.371 93.0568 165.839 93.219C165.822 92.9384 152.202 93.265 150.379 92.1403Z" fill="#2596BE"/>
<path d="M50.2435 68.1087C50.2435 66.5286 49.8123 66.5838 56.7548 65.3096C66.0158 63.6111 73.945 62.675 90.9823 60.6625C98.4274 59.785 97.7075 59.6758 98.2572 61.9183C100.273 70.15 102.847 89.194 102.881 89.4953C103.153 91.862 103.08 91.6964 95.1867 92.9959C94.5324 93.104 76.5567 95.8571 74.3717 96.1745C58.4568 98.4814 55.1356 98.9345 54.6515 97.221C52.4757 89.4838 50.2447 68.885 50.2435 68.1087ZM99.452 78.6738C96.6541 61.8171 97.4211 60.9258 96.2228 61.1144C91.4043 61.8688 78.7486 63.6548 74.6281 64.3206C51.6879 68.0271 58.2096 67.045 51.6477 68.0248C51.0888 68.1076 51.7742 68.0098 53.4877 80.5322C55.7992 97.3958 55.5945 96.8978 56.0545 96.7472C56.5639 96.5735 56.871 96.8219 57.224 96.2147C57.569 95.6271 59.232 93.8768 60.9949 91.7665C63.7734 88.571 66.7257 85.5308 69.8384 82.6597C71.7658 80.7898 71.4656 80.8484 77.6929 84.87C78.6819 85.5094 78.8578 85.5876 78.6681 85.8314C78.6451 85.8601 73.6369 92.6428 73.4207 93.5525C72.802 96.1503 79.6306 86.0303 88.5328 75.4239C90.9581 72.5328 90.4383 72.4132 99.1887 79.0096C99.3658 79.1349 99.452 79.1993 99.452 78.6738Z" fill="#2596BE"/>
<path d="M76.6187 72.8686C75.3537 72.7214 72.9295 72.8686 72.6983 70.3742C72.5833 69.1334 73.8955 66.9242 76.9372 66.7195C79.2039 66.5666 79.7697 67.5763 80.2078 66.8759C81.5545 64.722 83.2668 64.737 84.4122 65.8111C85.3874 66.7311 84.9539 67.1658 85.9923 67.0404C87.3965 66.8714 89.9196 66.4044 91.2513 66.9737C92.7302 67.6073 91.9654 69.5428 90.5417 70.1719C85.8451 72.2476 75.4514 72.8686 76.6187 72.8686ZM76.399 71.6772C80.0399 71.2574 93.8181 69.8154 90.7246 67.7822C90.0346 67.3222 88.9099 67.796 87.5586 67.8719C85.3092 67.9972 85.0102 68.632 84.6411 68.0455C84.3898 67.4196 83.9638 66.8791 83.414 66.4884C82.532 65.9318 81.1888 66.7862 80.9024 67.9926C80.7426 68.6642 80.5574 68.9793 79.6662 68.5538C77.572 67.5487 74.8983 67.6338 73.9564 70.0488C73.6873 70.7388 74.1715 71.0125 74.712 71.3655C75.2355 71.6212 75.8187 71.7289 76.399 71.6772Z" fill="#2596BE"/>
<path d="M63.4048 68.7701C69.4676 68.3941 71.4628 77.0915 65.9543 79.8423C65.082 80.2753 64.1122 80.4745 63.1397 80.4203C62.1673 80.366 61.2255 80.0603 60.4067 79.533C59.3114 78.885 58.4604 77.8939 57.9854 76.7132C57.5104 75.5325 57.438 74.2281 57.7796 73.0021C58.1211 71.7762 58.8573 70.6971 59.8743 69.932C60.8912 69.1669 62.1322 68.7585 63.4048 68.7701ZM67.8208 74.6535C67.5172 72.6882 67.0894 71.0621 64.7273 70.1363C61.4026 68.8334 57.7215 73.1976 59.8053 76.7028C60.2709 77.5197 60.9921 78.1609 61.8578 78.5279C62.7235 78.8948 63.6857 78.9672 64.5966 78.7338C65.5074 78.5004 66.3164 77.9742 66.899 77.2362C67.4814 76.4981 67.8054 75.5891 67.8208 74.6489V74.6535Z" fill="#2596BE"/>
<path d="M70.5301 34.7186C71.2148 33.2508 72.3667 32.0515 73.8056 31.308C75.2444 30.5645 76.8891 30.3189 78.4824 30.6096C79.0056 30.7074 78.7204 30.7706 77.4692 27.1044C76.5124 24.2973 75.1485 20.0526 74.9783 19.5489C74.7805 18.967 75.4866 19.2764 65.1585 22.9345C56.3932 26.0395 57.0004 25.7819 57.1832 26.181C61.1657 34.9118 62.464 38.0007 62.778 39.3634C63.9199 44.3326 55.1788 48.8118 51.6299 44.4303C49.185 41.4116 51.7161 37.3912 55.487 36.0848C59.5235 34.6852 60.1284 39.2783 54.3496 25.5968C53.2203 22.923 52.206 21.7684 53.5228 21.0106C59.7308 17.849 66.2472 15.3333 72.9693 13.5034C74.4861 13.0974 74.8357 13.9829 75.9041 16.2404C77.644 19.9204 78.6951 23.3704 81.2631 31.4307C82.0313 33.8388 82.5729 36.0618 80.8698 38.2341C76.5021 43.807 67.8127 40.5583 70.5301 34.7186Z" fill="black"/>
<path d="M12.6716 165.304C12.6222 164.902 11.7275 159.25 11.6527 156.255C11.5918 153.792 12.7625 153.074 13.2213 154.036C14.8164 157.371 15.2235 160.399 15.9997 164.369C16.1009 164.887 16.2102 164.6 19.5394 163.956C19.858 163.895 21.9613 163.691 23.0124 163.518C23.7588 163.397 25.8874 163.713 25.1388 164.497C23.4759 166.243 17.4878 168.039 17.0244 168.097C16.5241 168.159 16.7311 168.352 17.0589 170.232C17.244 171.295 18.923 180.487 17.8719 180.659C17.6063 180.703 17.2969 180.813 17.0669 180.532C15.4868 178.585 14.2287 174.207 13.8722 172.022C13.0983 167.29 14.4472 169.418 6.65481 169.684C6.46347 169.676 6.27713 169.62 6.11316 169.521C5.18396 169.022 6.23851 167.876 7.17576 167.499C8.85708 166.721 10.6093 166.108 12.4083 165.667C12.6716 165.611 12.7061 165.492 12.6716 165.304Z" fill="black"/>
<path d="M109.997 23.4347C109.997 21.5188 115.224 22.8677 115.203 21.8638C115.113 20.5711 115.202 19.2721 115.464 18.0032C115.625 17.2155 115.449 16.1241 116.393 16.0931C116.813 16.0793 117.05 16.2437 117.241 16.7267C117.362 17.0124 117.449 17.3116 117.499 17.618C118.222 23.0391 116.615 22.1478 120.581 22.3238C121.634 22.3602 122.662 22.6595 123.571 23.1943C124.19 23.6486 123.068 24.2466 122.547 24.3443C117.938 25.231 117.956 24.2983 117.963 25.6496C118.099 27.4224 117.937 29.2056 117.482 30.9246C117.306 31.579 116.58 31.8676 116.128 31.2294C115.622 30.5141 115.833 30.1495 115.483 28.0979C115.102 25.8727 115.673 24.9515 115.046 24.9228C112.182 24.794 110.001 24.7549 109.997 23.4347Z" fill="black"/>
<path d="M15.9843 69.3621C16.4294 69.4154 16.8588 69.5593 17.2459 69.7853C17.633 70.0112 17.9696 70.3142 18.2349 70.6754C18.9525 71.4781 19.3691 72.5052 19.4136 73.581C19.4582 74.6567 19.1276 75.7146 18.4787 76.5738C13.0967 83.0276 5.58257 73.0743 11.8087 69.8854C13.1107 69.2756 14.572 69.0924 15.9843 69.3621ZM14.3226 76.2966C15.0539 76.2968 15.7618 76.0394 16.3222 75.5696C16.8827 75.0998 17.2598 74.4476 17.3873 73.7275C17.4299 72.2716 17.1504 70.9848 15.5473 70.787C12.6551 70.4293 11.2923 72.2487 11.9386 74.3291C12.2376 75.2721 13.3106 76.3978 14.3237 76.2966H14.3226Z" fill="black"/>
<path d="M223.243 58.5155C224.676 60.9604 224.438 63.1397 223.403 64.5289C219.777 69.3945 213.874 64.5059 215.195 60.3705C216.377 56.6686 222.166 56.6778 223.243 58.5155ZM218.662 64.1919C220.178 65.2718 221.85 63.9079 222.233 62.5566C222.638 61.1295 221.967 59.0641 220.807 59.0411C216.495 58.9525 216.216 62.4451 218.662 64.1919Z" fill="black"/>
<path d="M147 22.5123C148.198 16.0068 147.243 16.8083 152.681 17.2534C160.905 17.9273 169.786 18.7403 176.986 19.5913C177.919 19.7063 197.997 22.4215 199.562 22.755C201.279 23.1207 200.942 22.8619 197.476 52.0351C195.022 72.6753 194.77 72.5051 194.012 72.5051C191.129 72.5212 189.306 71.9301 172.513 69.9073C153.193 67.5797 153.665 68.3709 142.827 66.3423C141.958 66.1801 142.107 64.7392 142.08 63.0866C141.957 55.5518 145.652 29.8217 147 22.5123ZM193.69 62.3495C194.598 62.5553 193.729 63.2902 196.509 42.9455C197.883 32.8911 198.035 32.9405 197.745 32.8715C196.663 32.6139 151.616 27.6045 148.34 27.1077C147.862 27.0353 148.056 25.6001 144.803 54.2236C144.532 56.6144 144.351 56.5385 145.148 56.5788C161.1 57.3918 193.801 62.3495 193.684 62.3495H193.69ZM174.915 20.7287C174.249 20.6401 173.928 22.7573 173.699 25.4437C173.486 27.9438 173.749 29.4227 173.986 29.4054C174.57 29.3997 175.864 20.8575 174.915 20.7287ZM169.106 67.1772C169.44 69.4979 169.822 68.3456 170.285 66.0341C170.644 64.2424 170.658 62.1034 170.797 61.0419C170.801 60.7115 170.776 60.3813 170.722 60.0552C170.712 59.7712 170.05 59.5228 169.883 60.4163C169.481 62.6515 169.221 64.9095 169.103 67.1772H169.106ZM193.743 23.4898C193.763 22.9148 193.176 23.0908 193.071 23.2598C192.416 24.3339 191.569 31.2604 192.411 31.2328C192.785 31.2213 193.175 29.1432 193.446 27.2998C193.689 26.0451 193.788 24.7668 193.739 23.4898H193.743ZM188.664 62.2517C188.319 62.7117 188.271 62.5438 187.796 65.8167C187.52 67.1322 187.475 68.4858 187.665 69.8164C187.672 69.9498 187.859 70.557 188.073 70.227C188.726 69.2161 190.013 60.4301 188.661 62.2517H188.664ZM164.105 28.1554C164.128 28.1808 164.156 28.2007 164.187 28.2137C164.218 28.2268 164.252 28.2324 164.285 28.2305C164.319 28.2285 164.352 28.2189 164.382 28.2022C164.411 28.1856 164.436 28.1625 164.456 28.1347C164.665 27.8597 164.812 27.5428 164.887 27.2055C164.951 26.1233 165.99 19.9214 165.248 19.7305C164.406 19.5131 163.79 24.3604 163.77 26.1498C163.662 26.8369 163.779 27.5406 164.105 28.1554ZM159.275 65.29C159.671 67.4348 159.581 67.1185 159.798 67.3991C160.488 66.5723 160.398 64.2941 160.791 61.8055C161.06 60.9414 161.101 60.0226 160.913 59.1375C160.869 59.0156 160.968 58.8339 160.768 58.781C159.973 58.574 160.04 59.2249 159.275 65.29ZM177.637 67.6199C177.797 68.939 177.811 69.422 178.003 69.422C178.974 69.422 178.969 64.6276 179.153 63.7479C179.309 62.9252 179.296 62.0795 179.117 61.2616C179.048 60.8993 178.406 61.1109 178.275 61.8515C178.237 62.0585 177.637 67.4969 177.637 67.6199ZM182.122 28.5107C182.051 29.8482 182.272 30.7222 182.697 30.3024C183.218 29.7815 183.548 27.3734 183.6 26.6535C183.715 25.0872 184.144 21.5015 183.187 22.1156C182.635 22.4686 182.197 27.1744 182.127 28.5107H182.122ZM149.891 63.7847C149.845 64.4528 149.865 65.1239 149.951 65.788C150.053 66.1169 150.505 66.0283 150.641 65.3625C151.185 63.0889 151.426 60.7533 151.358 58.4165C151.358 57.6678 150.609 57.7426 150.488 58.4832C150.094 60.2229 149.893 62.0009 149.891 63.7847ZM155.91 20.4699C155.828 20.4607 155.818 20.4699 155.843 19.3096C155.856 18.7449 155.313 18.7047 155.103 19.0899C154.903 19.841 154.755 20.6048 154.66 21.3761C153.595 28.6625 155.33 28.0898 155.58 23.6566C155.619 22.8424 155.909 20.3549 155.91 20.4699Z" fill="black"/>
<path d="M165.11 38.6171C165.824 33.0051 165.532 33.2373 167.026 32.7049C167.698 32.4645 168.235 33.1246 177.387 40.4099C179.306 41.8191 181.054 43.4477 182.595 45.2629C183.36 46.3566 182.948 46.5624 178.39 48.7037C175.939 49.8537 169.297 52.6367 165.961 53.7223C162.955 54.701 163.365 52.3251 165.11 38.6171ZM167.561 34.5851C166.792 33.7606 167.433 35.8295 166.355 43.8024C165.176 52.5136 165.177 52.4872 165.179 52.516C165.761 52.478 165.07 52.2365 179.696 46.3922C180.197 46.2229 180.676 45.9911 181.119 45.7022C181.125 45.8161 170.292 37.5142 167.561 34.5851Z" fill="black"/>
</svg>
